<svg width="16" height="16" viewBox="0 0 16 16" fill="rgb(34, 34, 34)" xmlns="http://www.w3.org/2000/svg"><title>add-square-plus-o</title><path d="M11 9H14V11H11V14H9V11H6V9H9V6H11V9ZM16 5V15C15.998 15.552 15.552 15.998 15 16H5C4.448 15.998 4.002 15.552 4 15V14H3C2.448 13.998 2.002 13.552 2 13V12H1C0.448 11.998 0.002 11.552 0 11V1C0.002 0.448 0.448 0.002 1 0H11C11.552 0.002 11.998 0.448 12 1V2H13C13.552 2.002 13.998 2.448 14 3V4H15C15.552 4.002 15.998 4.448 16 5ZM3 2H11V1H1V11H2V3C2.002 2.448 2.448 2.002 3 2ZM5 4H13V3H3V13H4V5C4.002 4.448 4.448 4.002 5 4ZM15 5H5V15H15V5Z" fill="rgb(34, 34, 34)" fill-opacity="1.00"/></svg>