<svg width="16" height="16" viewBox="0 0 16 16" fill="rgb(34, 34, 34)" xmlns="http://www.w3.org/2000/svg"><title>AI-security</title><g clip-path="url(#clip0_1239_2695)"><path d="M12.66 3.9001C12.84 2.6901 12.6 1.6601 11.92 1.0501C10.63 -0.0998982 8.39996 0.760102 6.97996 1.7001C6.01996 0.890102 4.99996 0.560102 4.11996 0.870102C2.44996 1.4501 2.08996 4.0001 2.20996 5.7301C1.01996 6.1701 0.219959 6.9201 0.0399588 7.8601C-0.300041 9.6301 1.68996 11.2301 3.21996 11.9901C3.00996 13.2501 3.23996 14.3201 3.94996 14.9501C5.26996 16.1301 7.60996 15.1901 9.01996 14.2201C9.97996 15.0301 11.01 15.3601 11.89 15.0501C13.55 14.4701 13.92 11.9501 13.8 10.2201C14.99 9.7801 15.79 9.0301 15.97 8.0801C16.32 6.2601 14.21 4.6201 12.67 3.8901L12.66 3.9001ZM11.23 12.9901C10.72 12.9901 10.1 12.9101 8.60996 11.2901L7.98996 13.1501C8.28996 13.5401 8.60996 13.8901 8.92996 14.1701C7.52996 14.8001 5.95996 14.4001 5.36996 13.3601C5.11996 12.9101 4.87996 12.3201 5.49996 10.1901L3.61996 10.5701C3.43996 11.0301 3.30996 11.4801 3.22996 11.9101C1.97996 11.0001 1.51996 9.3901 2.11996 8.3401C2.36996 7.8901 2.75996 7.3801 4.86996 6.8701L3.59996 5.4001C3.11996 5.4701 2.68996 5.5801 2.28996 5.7201C2.43996 4.1601 3.57996 2.9601 4.75996 2.9601C5.26996 2.9601 5.88996 3.0401 7.37996 4.6601L7.99996 2.8001C7.70996 2.4101 7.38996 2.0801 7.07996 1.8001C8.43996 1.2601 9.91996 1.6701 10.49 2.6801C10.74 3.1301 10.98 3.7201 10.36 5.8501L12.24 5.4701C12.44 4.9601 12.58 4.4601 12.65 3.9901C13.99 4.8901 14.5 6.5601 13.88 7.6501C13.63 8.1001 13.24 8.6101 11.13 9.1201L12.4 10.5901C12.87 10.5201 13.3 10.4201 13.7 10.2801C13.53 11.8301 12.41 13.0101 11.23 13.0101V12.9901Z" fill="rgb(34, 34, 34)" fill-opacity="1.00"/><path d="M8 4.96997C8 4.96997 7.24 7.03997 5 7.96997C7.24 8.89997 8 10.97 8 10.97C8 10.97 8.76 8.89997 11 7.96997C8.76 7.03997 8 4.96997 8 4.96997Z" fill="rgb(34, 34, 34)" fill-opacity="1.00"/></g><defs><clipPath id="clip0_1239_2695"><rect width="16" height="16" fill="rgb(34, 34, 34)"/></clipPath></defs></svg>