<svg width="16" height="16" viewBox="0 0 16 16" fill="rgb(34, 34, 34)" xmlns="http://www.w3.org/2000/svg"><title>attach</title><path d="M4.188 15.5C4.182 15.5 4.175 15.5 4.168 15.5C3.306 15.5 2.523 15.166 1.94 14.62L1.942 14.622C1.362 14.083 1 13.316 1 12.464C1 11.612 1.362 10.845 1.94 10.308L1.942 10.306L9.19 3.44802C9.541 3.12302 10.012 2.92302 10.53 2.92302C11.048 2.92302 11.519 3.12302 11.871 3.44902L11.87 3.44802C12.219 3.77302 12.437 4.23502 12.437 4.74802C12.437 5.26102 12.219 5.72302 11.871 6.04702L11.87 6.04802L7.317 10.356L6.448 9.47002L11.001 5.16202C11.114 5.05902 11.185 4.91202 11.185 4.74702C11.185 4.58202 11.115 4.43602 11.003 4.33402C10.879 4.22002 10.713 4.14902 10.531 4.14902C10.349 4.14902 10.183 4.21902 10.059 4.33402L2.811 11.192C2.467 11.509 2.252 11.961 2.252 12.463C2.252 12.965 2.467 13.418 2.809 13.733L2.81 13.734C3.171 14.068 3.655 14.273 4.188 14.273C4.721 14.273 5.205 14.068 5.567 13.733L5.566 13.734L12.813 6.87602C13.388 6.34502 13.747 5.58802 13.747 4.74702C13.747 3.90602 13.388 3.14802 12.815 2.62002L12.813 2.61802C12.215 2.06502 11.412 1.72602 10.529 1.72602C9.646 1.72602 8.844 2.06502 8.243 2.62002L8.245 2.61802L3.715 6.90502L2.846 6.01902L7.376 1.73202C8.202 0.968023 9.31 0.499023 10.528 0.499023C11.746 0.499023 12.855 0.968023 13.683 1.73402L13.68 1.73102C14.491 2.48402 14.998 3.55602 14.998 4.74602C14.998 5.93602 14.492 7.00902 13.683 7.75902L13.68 7.76102L6.433 14.619C5.852 15.163 5.068 15.497 4.207 15.497C4.2 15.497 4.193 15.497 4.185 15.497L4.188 15.5Z" fill="rgb(34, 34, 34)" fill-opacity="1.00"/></svg>