<svg width="16" height="16" viewBox="0 0 16 16" fill="rgb(34, 34, 34)" xmlns="http://www.w3.org/2000/svg"><title>attach-alert</title><g clip-path="url(#clip0_3_1733)"><path d="M10.56 5.02193C9.99398 5.06393 9.46798 5.17793 8.97298 5.35593L9.01498 5.34293L9.27098 5.09593C9.72098 4.66993 9.99998 4.06893 9.99998 3.40293C9.99998 2.73693 9.71998 2.13593 9.27198 1.71093L9.27098 1.70993C8.80598 1.26993 8.17698 0.99993 7.48498 0.99993C6.79298 0.99993 6.16398 1.27093 5.69798 1.71193L5.69898 1.71093L2.14598 5.13293L1.45298 4.41193L5.00598 0.98993C5.65098 0.37893 6.52398 0.00292969 7.48498 0.00292969C8.44598 0.00292969 9.31898 0.37893 9.96598 0.99093L9.96398 0.98893C10.603 1.59693 11 2.45293 11 3.40193C10.995 3.99893 10.833 4.55593 10.552 5.03593L10.56 5.01993V5.02193ZM3.58498 10.5719C3.30598 10.8379 2.92698 11.0009 2.50998 11.0009C2.09298 11.0009 1.71498 10.8379 1.43498 10.5709L1.43598 10.5719C1.16798 10.3189 0.999977 9.96093 0.999977 9.56393C0.999977 9.16693 1.16698 8.80893 1.43498 8.55593L1.43598 8.55493L7.12198 3.07893C7.21698 2.98893 7.34498 2.93393 7.48598 2.93393C7.62698 2.93393 7.75498 2.98893 7.84998 3.07893C7.93698 3.15993 7.99198 3.27493 7.99198 3.40293C7.99198 3.53093 7.93798 3.64593 7.85098 3.72593L4.27998 7.16593L4.97298 7.88693L8.54398 4.44693C8.81998 4.18393 8.99198 3.81293 8.99198 3.40293C8.99198 2.99293 8.81998 2.62193 8.54398 2.35893L8.54298 2.35793C8.26798 2.09793 7.89598 1.93793 7.48598 1.93793C7.07598 1.93793 6.70398 2.09793 6.42798 2.35893L6.42898 2.35793L0.742977 7.83393C0.284977 8.26893 0.000976562 8.88293 0.000976562 9.56293C0.000976562 10.2429 0.285977 10.8569 0.741977 11.2909L0.742977 11.2919C1.20298 11.7289 1.82498 11.9969 2.51098 11.9969C3.19698 11.9969 3.81898 11.7279 4.27998 11.2909L4.27898 11.2919L5.02198 10.5759C5.06798 9.92693 5.20998 9.32393 5.43498 8.76293L5.42098 8.80293L3.58498 10.5719ZM16 10.9999C16 13.7609 13.761 15.9999 11 15.9999C8.23898 15.9999 5.99998 13.7609 5.99998 10.9999C5.99998 8.23893 8.23898 5.99993 11 5.99993C13.761 5.99993 16 8.23893 16 10.9999ZM12 12.9999H9.99998V13.9999H12V12.9999ZM12 7.99993H9.99998V11.9999H12V7.99993Z" fill="rgb(34, 34, 34)" fill-opacity="1.00"/></g><defs><clipPath id="clip0_3_1733"><rect width="16" height="16" fill="rgb(34, 34, 34)"/></clipPath></defs></svg>