<!-- Generated by Trend Micro Style Portal -->
<svg version="1.1" xmlns="http://www.w3.org/2000/svg" width="0" height="0" viewBox="0 0 0 0">
  <title>block-app</title>
  <path fill="rgb(34,34,34)" d="M960 64h-896c-35.303 0.107-63.893 28.697-64 63.99v768.010c0.107 35.303 28.697 63.893 63.99 64h320.010v-64h-320v-704h896v256h64v-320c-0.107-35.303-28.697-63.893-63.99-64h-0.010zM704 384c-176.723 0.020-319.98 143.277-320 319.998v0.002c0 176.731 143.269 320 320 320s320-143.269 320-320c0-176.731-143.269-320-320-320v0zM928 704.064c-0.029 44.741-13.4 86.352-36.35 121.078l0.51-0.822-308.48-308.48-0.832 0.512c34.352-22.628 76.481-36.096 121.756-36.096 123.366 0 223.376 99.997 223.396 223.358v0.45zM704 928h-0.384c-123.349-0.022-223.338-100.011-223.36-223.358v-0.002c-0.001-0.2-0.001-0.436-0.001-0.673 0-44.718 13.276-86.336 36.102-121.126l-0.517 0.839 308.48 308.48 0.832-0.512c-34.127 22.718-76.048 36.278-121.133 36.352h-0.019z"></path>
</svg>