<svg width="16" height="16" viewBox="0 0 16 16" fill="rgb(34, 34, 34)" xmlns="http://www.w3.org/2000/svg"><title>bold</title><path d="M2.99999 1.99998H8.35299C8.45699 1.99198 8.57899 1.98798 8.70199 1.98798C9.66499 1.98798 10.565 2.25398 11.334 2.71598L11.311 2.70298C11.918 3.14498 12.308 3.85398 12.308 4.65398C12.308 4.70698 12.306 4.75898 12.303 4.81098V4.80398C12.304 4.82698 12.304 4.85498 12.304 4.88198C12.304 5.53298 12.059 6.12598 11.656 6.57398L11.658 6.57198C11.155 7.08198 10.51 7.44998 9.78599 7.61098L9.76099 7.61598C9.80599 7.61398 9.85899 7.61298 9.91199 7.61298C10.761 7.61298 11.541 7.91098 12.152 8.40798L12.145 8.40298C12.673 8.89098 13.002 9.58698 13.002 10.36C13.002 10.409 13.001 10.458 12.998 10.506V10.499C13.001 10.552 13.003 10.614 13.003 10.676C13.003 11.653 12.552 12.524 11.846 13.093L11.84 13.098C11.004 13.671 9.96999 14.013 8.85599 14.013C8.73299 14.013 8.61099 14.009 8.49099 14.001L8.50699 14.002H2.99799V13.137L4.05099 13.041L4.33899 12.76V3.21498L4.05099 2.96198L2.99799 2.87498L2.99999 1.99998ZM6.66399 7.32698C6.70999 7.33298 6.76899 7.33798 6.83799 7.33998C6.90799 7.34331 7.00965 7.34498 7.14299 7.34498C7.21799 7.35198 7.30599 7.35498 7.39499 7.35498C8.06899 7.35498 8.69299 7.13998 9.20199 6.77498L9.19299 6.78098C9.60299 6.38198 9.85699 5.82398 9.85699 5.20798C9.85699 5.14198 9.85399 5.07698 9.84799 5.01298L9.84899 5.02098C9.85299 4.97598 9.85499 4.92298 9.85499 4.86898C9.85499 4.31498 9.61899 3.81598 9.24199 3.46698L9.24099 3.46598C8.78099 3.14398 8.21099 2.95098 7.59499 2.95098C7.51599 2.95098 7.43699 2.95398 7.35899 2.95998L7.36899 2.95898C7.22965 2.95898 7.00932 2.97064 6.70799 2.99398H6.65599L6.66399 7.32698ZM6.65599 12.987L6.71699 12.995C7.07632 13.013 7.34332 13.0216 7.51799 13.021C7.60799 13.029 7.71199 13.033 7.81699 13.033C8.55299 13.033 9.23899 12.814 9.81199 12.439L9.79799 12.448C10.242 12.04 10.52 11.456 10.52 10.808C10.52 10.737 10.517 10.667 10.51 10.598L10.511 10.607C10.515 10.558 10.517 10.502 10.517 10.445C10.517 9.83398 10.257 9.28398 9.84199 8.89798L9.84099 8.89698C9.34599 8.53898 8.72699 8.32398 8.05799 8.32398C7.97799 8.32398 7.89899 8.32698 7.81999 8.33298L7.82999 8.33198C7.56932 8.33198 7.35165 8.33498 7.17699 8.34098C7.00299 8.34598 6.82899 8.35598 6.65599 8.36598V12.987Z" fill="rgb(34, 34, 34)" fill-opacity="1.00"/></svg>