<svg width="16" height="16" viewBox="0 0 16 16" fill="rgb(34, 34, 34)" xmlns="http://www.w3.org/2000/svg"><title>bug</title><g clip-path="url(#clip0_3_1735)"><path d="M16 7.49663C16 7.77248 15.776 7.99636 15.5 7.99636H13V9.99529C13 9.99729 13 10.0003 13 10.0033C13 10.9528 12.734 11.8393 12.272 12.5939L12.284 12.5719L14.853 15.1396C14.946 15.2305 15.003 15.3564 15.003 15.4964C15.003 15.7722 14.779 15.9961 14.503 15.9961C14.363 15.9961 14.237 15.9391 14.146 15.8462L11.678 13.3795C10.984 14.1321 10.067 14.6698 9.03202 14.8867L8.99902 14.8927V7.99636H6.99902V14.8927C5.93102 14.6698 5.01402 14.1321 4.32302 13.3825L4.32002 13.3785L1.85202 15.8452C1.76202 15.9331 1.63802 15.9881 1.50202 15.9881C1.22602 15.9881 1.00202 15.7642 1.00202 15.4884C1.00202 15.3524 1.05702 15.2285 1.14502 15.1386L3.71402 12.5709C3.26502 11.8383 2.99902 10.9508 2.99902 10.0023C2.99902 9.99929 2.99902 9.99729 2.99902 9.99429V7.99536H0.499023C0.223023 7.99536 -0.000976562 7.77148 -0.000976562 7.49563C-0.000976562 7.21978 0.223023 6.99589 0.499023 6.99589H2.99902V5.99643H12.999V6.99589H15.499C15.775 6.99589 15.999 7.21978 15.999 7.49563L16 7.49663ZM4.01002 4.71511C4.00302 4.80806 4.00002 4.90301 4.00002 4.99796H12C12 4.90301 11.996 4.80906 11.99 4.71511L14.854 1.85264C14.947 1.76169 15.004 1.63575 15.004 1.49583C15.004 1.21997 14.78 0.996094 14.504 0.996094C14.364 0.996094 14.238 1.05306 14.147 1.14601L11.733 3.55873C11.138 2.04853 9.69202 1.00009 8.00002 1.00009C6.30802 1.00009 4.86202 2.04953 4.27702 3.53174L4.26802 3.55873L1.85402 1.14601C1.76402 1.05806 1.64002 1.00309 1.50402 1.00309C1.22802 1.00309 1.00402 1.22697 1.00402 1.50282C1.00402 1.63875 1.05902 1.76269 1.14702 1.85264L4.01002 4.71511Z" fill="rgb(34, 34, 34)" fill-opacity="1.00"/></g><defs><clipPath id="clip0_3_1735"><rect width="16" height="16" fill="rgb(34, 34, 34)"/></clipPath></defs></svg>