<svg width="16" height="16" viewBox="0 0 16 16" fill="rgb(34, 34, 34)" xmlns="http://www.w3.org/2000/svg"><title>build</title><g clip-path="url(#clip0_3_1718)"><path d="M16 4.50548C16 6.98274 14 8.96456 11.6 8.96456C10.9 8.96456 10.2 8.86547 9.6 8.5682L2.4 15.7027C2 16.0991 1.4 16.0991 1 15.7027L0.3 14.91C-0.1 14.5136 -0.1 13.9191 0.3 13.5227L7.5 6.3882C6.4 4.2082 7.3 1.53275 9.5 0.442755C10.6 -0.0526985 11.8 -0.151789 12.9 0.244574L10.3 2.82093C9.9 3.2173 9.9 3.81184 10.3 4.2082L11.7 5.59547C12.1 5.99184 12.7 5.99184 13.1 5.59547L15.7 3.01911C15.9 3.51457 16 4.01002 16 4.50548Z" fill="rgb(34, 34, 34)" fill-opacity="1.00"/></g><defs><clipPath id="clip0_3_1718"><rect width="16" height="16" fill="rgb(34, 34, 34)"/></clipPath></defs></svg>