<!-- Generated by Trend Micro Style Portal -->
<svg version="1.1" xmlns="http://www.w3.org/2000/svg" width="0" height="0" viewBox="0 0 0 0">
  <title>callback</title>
  <path fill="rgb(34,34,34)" d="M0 509.452v0.74c-0.001 0.287-0.001 0.627-0.001 0.966 0 125.857 45.376 241.116 120.661 330.309l-0.628-0.764-0.64-0.772-119.392 120.068h320v-321.82l-132.256 133.009c-57.16-71.062-91.744-162.393-91.744-261.801 0-159.258 88.765-297.785 219.52-368.803l2.208-1.097 2.272-1.094v-106.394c-189.374 79.273-320 263.067-320 477.37 0 0.018 0 0.035 0 0.053v0.029zM576 24.48c-16.907-15.19-39.382-24.48-64.028-24.48-53.004 0-95.972 42.968-95.972 95.972 0 0.010 0 0.019 0 0.029v0.031c0.008 4.069 0.264 8.069 0.752 11.997l-0.048-0.477-0.032-0.448c5.72 48.054 46.228 84.959 95.354 84.959 48.968 0 89.373-36.667 95.254-84.043l0.047-0.468 0.032-0.448c0.408-3.225 0.64-6.957 0.64-10.744 0-0.104 0-0.208-0.001-0.312v-0.016c0-0.033 0-0.072 0-0.111 0-28.295-12.286-53.721-31.814-71.233l-0.090-0.079-0.096-0.064zM602.528 896c-13.553-37.638-48.951-64.065-90.521-64.065-48.99 0-89.408 36.703-95.256 84.111l-0.047 0.466-0.032 0.448c-0.408 3.225-0.64 6.957-0.64 10.744 0 0.104 0 0.208 0.001 0.312v-0.016c0 53.019 42.981 96 96 96s96-42.981 96-96v0 0c-0.008-4.069-0.264-8.069-0.752-11.997l0.048 0.477 0.032 0.448c-0.908-8.027-2.687-15.347-5.266-22.278l0.21 0.646 0.224 0.672zM1024 64h-320v321.82l132.256-133.009c57.16 71.062 91.744 162.393 91.744 261.801 0 159.258-88.765 297.785-219.52 368.803l-2.208 1.097-2.272 1.094v106.394c189.391-79.406 320.002-263.282 320.002-477.664 0-126.34-45.361-242.085-120.685-331.837l0.651 0.797 0.64 0.772z"></path>
</svg>