<svg width="16" height="16" viewBox="0 0 16 16" fill="rgb(34, 34, 34)" xmlns="http://www.w3.org/2000/svg"><title>chart-donut</title><path d="M15 8V8.002C15 10.007 14.154 11.814 12.8 13.086L12.796 13.089L10.666 10.959C11.485 10.238 11.999 9.188 11.999 8.017C11.999 7.341 11.827 6.704 11.525 6.149L11.535 6.17L13.725 3.98C14.522 5.097 14.999 6.49 14.999 7.994C14.999 7.996 14.999 7.997 14.999 7.999L15 8ZM9.82901 11.536C9.29901 11.824 8.67001 11.995 8.00101 12H8.00001C7.99701 12 7.99401 12 7.99101 12C5.78701 12 3.99901 10.213 3.99901 8.008C3.99901 6.156 5.26101 4.598 6.97101 4.148L6.99901 4.142V1.08C3.58601 1.583 0.997009 4.492 0.997009 8.005C0.997009 11.869 4.12901 15.001 7.99301 15.001C9.50101 15.001 10.897 14.524 12.04 13.712L12.018 13.727L9.82901 11.536ZM8.00001 4C9.17501 4.003 10.23 4.516 10.956 5.329L10.959 5.333L13.089 3.203C11.814 1.845 10.007 0.999001 8.00201 0.999001H8.00001V4Z" fill="rgb(34, 34, 34)" fill-opacity="1.00"/></svg>