<svg width="16" height="16" viewBox="0 0 16 16" fill="rgb(34, 34, 34)" xmlns="http://www.w3.org/2000/svg"><title>chrome</title><g clip-path="url(#clip0_3_1694)"><path d="M4.24333 6.75901L1.77756 2.97201C3.25602 1.15301 5.49372 0.00100708 8.0005 0.00100708C11.1045 0.00100708 13.7953 1.76801 15.1217 4.35001L15.1427 4.39501L8.51766 4.04701C8.41663 4.03801 8.29859 4.03301 8.17956 4.03301C6.388 4.03301 4.85752 5.15301 4.25133 6.73101L4.24132 6.76001L4.24333 6.75901ZM5.30466 8.00101C5.30466 9.49001 6.51203 10.698 8.0025 10.698C9.49297 10.698 10.7003 9.49101 10.7003 8.00101C10.7003 6.51201 9.49297 5.30401 8.0025 5.30401C6.51304 5.30401 5.30466 6.51201 5.30466 8.00101ZM15.4668 5.12301L10.9584 5.35501C11.5536 6.07801 11.9137 7.01301 11.9137 8.03201C11.9137 8.92701 11.6356 9.75601 11.1615 10.44L11.1705 10.426L7.55336 15.987C7.6854 15.995 7.83945 15.999 7.9955 15.999C12.4169 15.999 16 12.416 16 7.99701C16 6.96301 15.8039 5.97501 15.4468 5.06801L15.4658 5.12201L15.4668 5.12301ZM4.31435 9.53601L1.30341 3.61701C0.486152 4.85101 0 6.36601 0 7.99501C0 11.976 2.90691 15.278 6.7141 15.895L6.76011 15.901L8.81575 11.875C8.60769 11.911 8.36862 11.932 8.12454 11.932C6.45602 11.932 5.01257 10.965 4.32535 9.56101L4.31435 9.53601Z" fill="rgb(34, 34, 34)" fill-opacity="1.00"/></g><defs><clipPath id="clip0_3_1694"><rect width="16" height="16" fill="rgb(34, 34, 34)"/></clipPath></defs></svg>