<svg width="16" height="16" viewBox="0 0 16 16" fill="rgb(34, 34, 34)" xmlns="http://www.w3.org/2000/svg"><title>circle-merge</title><g clip-path="url(#clip0_3_1692)"><path d="M0 10C0 6.686 2.686 4 6 4C9.314 4 12 6.686 12 10C12 13.314 9.314 16 6 16C2.688 15.996 0.004 13.312 0 10ZM13.44 10.907C14.996 9.809 16 8.019 16 5.994C16 2.684 13.316 0 10.006 0C7.981 0 6.191 1.004 5.106 2.542L5.093 2.561C5.378 2.522 5.707 2.5 6.041 2.5C10.16 2.5 13.5 5.839 13.5 9.959C13.5 10.293 13.478 10.623 13.435 10.945L13.44 10.907Z" fill="rgb(34, 34, 34)" fill-opacity="1.00"/></g><defs><clipPath id="clip0_3_1692"><rect width="16" height="16" fill="rgb(34, 34, 34)"/></clipPath></defs></svg>