<svg width="16" height="16" viewBox="0 0 16 16" fill="rgb(34, 34, 34)" xmlns="http://www.w3.org/2000/svg"><title>circle-dot</title><path d="M11 8C11 9.657 9.657 11 8 11C6.343 11 5 9.657 5 8C5 6.343 6.343 5 8 5C9.657 5 11 6.343 11 8ZM15 8C15 11.866 11.866 15 8 15C4.134 15 1 11.866 1 8C1 4.134 4.134 1 8 1C11.866 1 15 4.134 15 8ZM13.5 8C13.5 4.962 11.038 2.5 8 2.5C4.962 2.5 2.5 4.962 2.5 8C2.5 11.038 4.962 13.5 8 13.5C11.036 13.496 13.496 11.036 13.5 8Z" fill="rgb(34, 34, 34)" fill-opacity="1.00"/></svg>