<svg width="16" height="16" viewBox="0 0 16 16" fill="rgb(34, 34, 34)" xmlns="http://www.w3.org/2000/svg"><title>cloud</title><path d="M13.469 7.045C13.469 7.03 13.473 7.016 13.473 7C13.473 6.987 13.473 6.971 13.473 6.955C13.473 4.771 11.702 3 9.518 3C7.89 3 6.491 3.984 5.885 5.39L5.875 5.416C5.486 5.153 5.006 4.995 4.49 4.995C3.114 4.995 1.999 6.11 1.999 7.486C1.999 7.684 2.022 7.876 2.066 8.061L2.063 8.044C0.883 8.258 0 9.277 0 10.503C0 11.882 1.118 13 2.497 13C2.498 13 2.499 13 2.5 13L13 12.997C13.01 12.997 13.019 13 13.029 13C14.673 12.986 16 11.65 16 10.004C16 8.514 14.912 7.277 13.486 7.047L13.469 7.045Z" fill="rgb(34, 34, 34)" fill-opacity="1.00"/></svg>