<svg width="16" height="16" viewBox="0 0 16 16" fill="rgb(34, 34, 34)" xmlns="http://www.w3.org/2000/svg"><title>companion</title><path fill-rule="evenodd" clip-rule="evenodd" d="M7.33369 10.6672L2.6668 14.6674V10.6672H2.52767C2.36352 10.6672 2.20384 10.6488 2.0484 10.6189C2.0415 10.6176 2.03458 10.6164 2.02767 10.6152C2.01845 10.6137 2.00924 10.6121 2.0001 10.6102C1.76189 10.5596 1.54162 10.4669 1.3334 10.3543C1.15106 10.2557 0.981493 10.1391 0.82963 10.0005C0.323258 9.53822 0 8.87913 0 8.13947V2.52767C0 1.13169 1.13169 0 2.52767 0H11.473C12.7048 0 13.7281 0.882001 13.9524 2.0484C13.9823 2.20384 14.0007 2.36352 14.0007 2.52767V8.13947C14.0007 9.53549 12.869 10.6672 11.473 10.6672H7.33369ZM5.33359 5.00024C5.33359 4.44793 4.88586 4.00019 4.33354 4.00019C3.78123 4.00019 3.33349 4.44793 3.33349 5.00024C3.33349 5.55256 3.78123 6.00029 4.33354 6.00029C4.88586 6.00029 5.33359 5.55256 5.33359 5.00024ZM8.66709 5.00024C8.66709 5.55256 9.11482 6.00029 9.66713 6.00029C10.2194 6.00029 10.6672 5.55256 10.6672 5.00024C10.6672 4.44793 10.2194 4.00019 9.66713 4.00019C9.11482 4.00019 8.66709 4.44793 8.66709 5.00024ZM15.2937 2.24583C15.2912 2.22903 15.2888 2.21223 15.2864 2.19542C15.7261 2.67091 16.0008 3.30155 16.0008 4.00027V8.66729C16.0008 10.8723 14.2077 12.6661 12.003 12.6674H7.91876L4.00019 16V15.0693L7.5802 12.0008H12.0006C13.8386 12.0008 15.3341 10.5053 15.3341 8.66729V2.667C15.3341 2.52296 15.3139 2.38436 15.2937 2.24583Z" fill="rgb(34, 34, 34)" fill-opacity="1.00"/></svg>