<svg width="16" height="16" viewBox="0 0 16 16" fill="rgb(34, 34, 34)" xmlns="http://www.w3.org/2000/svg"><title>conditional-access-policy</title><path fill-rule="evenodd" clip-rule="evenodd" d="M11.0334 3.82738C11.0279 3.8214 11.0223 3.81553 11.0166 3.80976L8.35325 1.14645C8.15799 0.951185 7.84141 0.951184 7.64614 1.14645L4.98283 3.80976C4.97706 3.81553 4.97147 3.8214 4.96604 3.82738H2.5C2.22386 3.82738 2 4.05123 2 4.32738V7.82738H3V4.82738H5.29334L7.64614 7.18018C7.84141 7.37544 8.15799 7.37544 8.35325 7.18018L10.7061 4.82738H13V7.82738H14V4.32738C14 4.05123 13.7761 3.82738 13.5 3.82738H11.0334ZM8.35325 5.76597C8.15799 5.96123 7.84141 5.96123 7.64614 5.76597L6.39705 4.51687C6.20178 4.3216 6.20178 4.00502 6.39705 3.80976L7.64614 2.56066C7.84141 2.3654 8.15799 2.3654 8.35325 2.56066L9.60235 3.80976C9.79761 4.00502 9.79761 4.3216 9.60235 4.51687L8.35325 5.76597Z" fill="rgb(34, 34, 34)" fill-opacity="1.00"/><path fill-rule="evenodd" clip-rule="evenodd" d="M13.0125 14.8314C14.6623 14.8314 15.9998 13.4939 15.9998 11.8441C15.9998 10.1943 14.6623 8.85686 13.0125 8.85686C11.3627 8.85686 10.0253 10.1943 10.0253 11.8441C10.0253 13.4939 11.3627 14.8314 13.0125 14.8314ZM15.176 11.0015L14.4691 10.2942L12.6447 12.1174L11.8222 11.2949L11.1151 12.002L12.6444 13.5314L15.176 11.0015Z" fill="rgb(34, 34, 34)" fill-opacity="1.00"/><path fill-rule="evenodd" clip-rule="evenodd" d="M5.95786 11.8534C5.95786 13.4986 4.62415 14.8323 2.97893 14.8323C1.33371 14.8323 0 13.4986 0 11.8534C0 10.2081 1.33371 8.87444 2.97893 8.87444C4.62415 8.87444 5.95786 10.2081 5.95786 11.8534ZM3.90159 13.6045C3.6261 13.7499 3.31213 13.8323 2.97893 13.8323C1.886 13.8323 1 12.9463 1 11.8534C1 11.5202 1.08235 11.2062 1.22781 10.9307L3.90159 13.6045ZM4.6403 12.929L1.90331 10.192C2.21297 9.99111 2.58233 9.87444 2.97893 9.87444C4.07187 9.87444 4.95786 10.7604 4.95786 11.8534C4.95786 12.25 4.84119 12.6193 4.6403 12.929Z" fill="rgb(34, 34, 34)" fill-opacity="1.00"/></svg>