<svg width="16" height="16" viewBox="0 0 16 16" fill="rgb(34, 34, 34)" xmlns="http://www.w3.org/2000/svg"><title>connection</title><path d="M14 2C12.9 2 12 2.9 12 4C12 4.1 12 4.1 12 4.2L9.6 5.2C9.3 4.8 8.9 4.4 8.5 4.2L8.7 3C9.4 2.9 10 2.3 10 1.5C10 0.7 9.3 0 8.5 0C7.7 0 7 0.7 7 1.5C7 2 7.3 2.5 7.7 2.8L7.5 4C6.3 4 5.3 4.9 5.1 6H2.9C2.7 5.4 2.2 5 1.5 5C0.7 5 0 5.7 0 6.5C0 7.3 0.7 8 1.5 8C2.2 8 2.7 7.6 2.9 7H5C5.1 7.4 5.3 7.8 5.5 8.1L3.9 10.1C3.8 10 3.7 10 3.5 10C2.7 10 2 10.7 2 11.5C2 12.3 2.7 13 3.5 13C4.3 13 5 12.3 5 11.5C5 11.2 4.9 10.9 4.8 10.7L6.4 8.7C6.7 8.9 7.1 9 7.5 9C7.8 9 8.1 8.9 8.3 8.8L10.5 12.5C10.2 13 10 13.5 10 14C10 15.1 10.9 16 12 16C13.1 16 14 15.1 14 14C14 12.9 13.1 12 12 12C11.8 12 11.6 12 11.4 12.1L9.2 8.3C9.7 7.9 10 7.2 10 6.5C10 6.4 10 6.2 10 6.1L12.4 5.2C12.7 5.7 13.3 6 14 6C15.1 6 16 5.1 16 4C16 2.9 15.1 2 14 2ZM6 6.5C6 5.7 6.7 5 7.5 5C8.3 5 9 5.7 9 6.5C9 7.3 8.3 8 7.5 8C6.7 8 6 7.3 6 6.5Z" fill="rgb(34, 34, 34)" fill-opacity="1.00"/></svg>