<svg width="16" height="16" viewBox="0 0 16 16" fill="rgb(34, 34, 34)" xmlns="http://www.w3.org/2000/svg"><title>connect-error</title><g clip-path="url(#clip0_3_1725)"><path d="M6.3 7.3C5.5 8.3 5 9.5 5 10.9C4 11.1 3 11 3 11L1 13L0 12L2 10C2 10 1.8 7.2 3 6L4 5L6.3 7.3ZM10.9 5C11.1 4 11 3 11 3L13 1L12 0L10 2C10 2 7.2 1.8 6 3L5 4L7.3 6.3C8.3 5.5 9.5 5 10.9 5ZM16 11C16 13.8 13.8 16 11 16C8.2 16 6 13.8 6 11C6 8.2 8.2 6 11 6C13.8 6 16 8.2 16 11ZM12 11L14 9L13 8L11 10L9 8L8 9L10 11L8 13L9 14L11 12L13 14L14 13L12 11Z" fill="rgb(34, 34, 34)" fill-opacity="1.00"/></g><defs><clipPath id="clip0_3_1725"><rect width="16" height="16" fill="rgb(34, 34, 34)"/></clipPath></defs></svg>