<svg width="16" height="16" viewBox="0 0 16 16" fill="rgb(34, 34, 34)" xmlns="http://www.w3.org/2000/svg"><title>cut</title><g clip-path="url(#clip0_3_1637)"><path d="M12.987 4C11.3317 4 9.99001 5.343 9.99001 7H8.99101V2L6.99301 0V7H0L1.998 9H6.99301V10C6.98801 10 6.98102 10 6.97502 10C5.31968 10 3.97802 11.343 3.97802 13C3.97802 14.657 5.31968 16 6.97502 16C8.63037 16 9.97203 14.657 9.97203 13C9.97203 12.121 9.59441 11.331 8.99301 10.782L8.99101 10.78V9H10.7692C11.3207 9.615 12.1169 10 13.003 10C14.6583 10 16 8.657 16 7C16 5.343 14.6583 4 13.003 4C12.997 4 12.992 4 12.986 4H12.987ZM6.99301 14.5C6.16583 14.5 5.49451 13.828 5.49451 13C5.49451 12.172 6.16583 11.5 6.99301 11.5C7.82018 11.5 8.49151 12.172 8.49151 13C8.49151 13.828 7.82018 14.5 6.99301 14.5ZM12.987 8.5C12.1598 8.5 11.4885 7.828 11.4885 7C11.4885 6.172 12.1598 5.5 12.987 5.5C13.8142 5.5 14.4855 6.172 14.4855 7C14.4855 7.828 13.8142 8.5 12.987 8.5ZM2.28771 3L0.999001 1.71L1.70829 1L2.997 2.29L2.28771 3ZM5.28472 6L3.996 4.71L4.70529 4L5.99401 5.29L5.28472 6ZM11.2787 12L9.99001 10.71L10.6993 10L11.988 11.29L11.2787 12ZM14.2757 15L12.987 13.71L13.6963 13L14.985 14.29L14.2757 15Z" fill="rgb(34, 34, 34)" fill-opacity="1.00"/></g><defs><clipPath id="clip0_3_1637"><rect width="16" height="16" fill="rgb(34, 34, 34)"/></clipPath></defs></svg>