<svg width="16" height="16" viewBox="0 0 16 16" fill="rgb(34, 34, 34)" xmlns="http://www.w3.org/2000/svg"><title>database-o</title><path d="M15 2.496H14.999C14.993 0.18 9.64102 0 7.99902 0C6.35702 0 1.00602 0.18 0.999023 2.496V13.501C1.00202 15.819 6.35702 15.999 7.99902 15.999C9.64102 15.999 14.993 15.819 14.999 13.502H15V2.495V2.496ZM7.99902 1C11.313 1 13.999 1.672 13.999 2.5C13.999 3.328 11.313 4 7.99902 4C4.68502 4 1.99902 3.328 1.99902 2.5C1.99902 1.672 4.68502 1 7.99902 1ZM1.99902 3.945C3.62802 4.9 6.80002 5 7.99902 5C9.19802 5 12.371 4.9 14 3.945V6H13.999C13.999 6.828 11.313 7.5 7.99902 7.5C4.68502 7.5 1.99902 6.828 1.99902 6V3.945ZM1.99902 7.445C3.62802 8.4 6.80002 8.5 7.99902 8.5C9.19802 8.5 12.371 8.4 14 7.445V10H13.999C13.999 10.828 11.313 11.5 7.99902 11.5C4.68502 11.5 1.99902 10.828 1.99902 10V7.445ZM7.99902 15C4.68502 15 1.99902 14.328 1.99902 13.5V11.445C3.62802 12.4 6.80002 12.5 7.99902 12.5C9.19802 12.5 12.371 12.4 14 11.445V13.5H13.999C13.999 14.328 11.313 15 7.99902 15Z" fill="rgb(34, 34, 34)" fill-opacity="1.00"/></svg>