<!-- Generated by Trend Micro Style Portal -->
<svg version="1.1" xmlns="http://www.w3.org/2000/svg" width="16" height="16" viewBox="0 0 16 16">
  <title>desktop</title>
  <path fill="rgb(34,34,34)" d="M14 1h-12c-0.552 0-1 0.448-1 1v0 9c0 0.552 0.448 1 1 1v0h5v0.5l-2.75 1.57c-0.148 0.089-0.245 0.248-0.245 0.43 0 0.274 0.221 0.497 0.495 0.5h7c0.274-0.003 0.495-0.226 0.495-0.5 0-0.182-0.097-0.341-0.243-0.429l-0.002-0.001-2.75-1.57v-0.5h5c0.552 0 1-0.448 1-1v0-9c0-0.552-0.448-1-1-1v0zM3 3h10v7h-10z"></path>
</svg>