<!-- Generated by Trend Micro Style Portal -->
<svg version="1.1" xmlns="http://www.w3.org/2000/svg" width="16" height="16" viewBox="0 0 16 16">
  <title>desktop-block</title>
  <path fill="rgb(34,34,34)" d="M11 6c-2.761 0-5 2.239-5 5s2.239 5 5 5c2.761 0 5-2.239 5-5v0c0-2.761-2.239-5-5-5v0zM7.5 11c0-0.002 0-0.004 0-0.006 0-1.927 1.563-3.49 3.49-3.49 0.702 0 1.356 0.207 1.903 0.564l-0.013-0.008-4.82 4.82c-0.349-0.531-0.558-1.181-0.56-1.879v-0.001zM11 14.5c-0.699-0.002-1.349-0.211-1.893-0.568l0.013 0.008 4.82-4.82c0.349 0.534 0.556 1.188 0.556 1.89 0 1.927-1.563 3.49-3.49 3.49-0.002 0-0.004 0-0.006 0h0zM5 11h-4c-0.552 0-1-0.448-1-1v0-9c0-0.552 0.448-1 1-1v0h12c0.552 0 1 0.448 1 1v0 4.8c-0.576-0.339-1.248-0.59-1.964-0.715l-0.036-0.005v-3.080h-10v7h3.34c-0.215 0.593-0.34 1.277-0.34 1.991 0 0.003 0 0.006 0 0.009v-0zM5.070 11.89c0.119 0.791 0.375 1.502 0.745 2.139l-0.015-0.029h-3.3c-0.274-0.003-0.495-0.226-0.495-0.5 0-0.182 0.097-0.341 0.243-0.429l0.002-0.001z"></path>
</svg>