<svg width="16" height="16" viewBox="0 0 16 16" fill="rgb(34, 34, 34)" xmlns="http://www.w3.org/2000/svg"><title>desktop-update</title><path d="M2 9V2H12V5H14V1C14 0.448 13.552 0 13 0H1C0.448 0 0 0.448 0 1V10C0 10.552 0.448 11 1 11H6V11.5L2.25 13.07C2.102 13.159 2.005 13.318 2.005 13.5C2.005 13.774 2.226 13.997 2.5 14H7.42C7.156 13.41 7.002 12.722 7.002 11.998C7.002 10.868 7.377 9.825 8.01 8.988L8.001 9.001L2 9Z" fill="rgb(34, 34, 34)" fill-opacity="1.00"/><path d="M14.5 12C14.5 13.381 13.381 14.5 12 14.5C10.619 14.5 9.5 13.381 9.5 12C9.5 10.619 10.619 9.5 12 9.5V12L15 9L12 6V8C9.791 8 8 9.791 8 12C8 14.209 9.791 16 12 16C14.209 16 16 14.209 16 12H14.5Z" fill="rgb(34, 34, 34)" fill-opacity="1.00"/></svg>