<svg width="16" height="16" viewBox="0 0 16 16" fill="rgb(34, 34, 34)" xmlns="http://www.w3.org/2000/svg"><title>desktop-off</title><path d="M13 12H14C14.032 12.004 14.069 12.006 14.106 12.006C14.603 12.006 15.006 11.603 15.006 11.106C15.006 11.069 15.004 11.032 14.999 10.995V10.999V1.999C15.003 1.967 15.005 1.93 15.005 1.893C15.005 1.396 14.602 0.993 14.105 0.993C14.068 0.993 14.031 0.995 13.994 1H13.998H1.99805L0.998047 0L-0.00195312 1L14.998 16L15.998 15L13 12ZM4.00005 3H13V10H11L4.00005 3ZM7.00005 10L12 15H4.50005C4.22405 15 4.00005 14.776 4.00005 14.5C4.00005 14.337 4.07805 14.192 4.19905 14.101L4.20005 14.1L7.00005 12.5V12H2.00005C1.96805 12.004 1.93105 12.006 1.89405 12.006C1.39705 12.006 0.994047 11.603 0.994047 11.106C0.994047 11.069 0.996047 11.032 1.00105 10.995V10.999V3.999L3.00105 5.999V9.999L7.00005 10Z" fill="rgb(34, 34, 34)" fill-opacity="1.00"/></svg>