<svg width="16" height="16" viewBox="0 0 16 16" fill="rgb(34, 34, 34)" xmlns="http://www.w3.org/2000/svg"><title>edge</title><path d="M0 7.12615C0.5 3.41252 3 0 7.6 0C10.2 0 12.7 1.40516 14 3.71363C14.7 4.81768 15 6.22283 15 7.52762V9.03314H4.8C4.8 13.1482 11 13.2486 14 11.0405V14.7541C11.5 16.0589 8.6 16.36 5.8 15.5571C2.6 14.2523 1 10.639 2.3 7.42725C2.9 5.82136 4.2 4.51657 5.8 3.91436C5.2 4.61694 4.8 5.52025 4.7 6.52394H10.5C10.7 4.81768 9.5 3.31215 7.8 3.11142C7.6 3.11142 7.4 3.11142 7.2 3.11142C4.3 3.21178 1.6 4.71731 0 7.12615Z" fill="rgb(34, 34, 34)" fill-opacity="1.00"/></svg>