<svg width="16" height="16" viewBox="0 0 16 16" fill="rgb(34, 34, 34)" xmlns="http://www.w3.org/2000/svg"><title>email-unread-o</title><path d="M13.5 5.88989C14.88 5.88989 16 4.76989 16 3.38989C16 2.00989 14.88 0.889893 13.5 0.889893C12.12 0.889893 11 2.00989 11 3.38989C11 4.76989 12.12 5.88989 13.5 5.88989ZM1 2.38989H10.15C10.06 2.70989 10 3.03989 10 3.38989H1L8 8.13989L11.16 5.98989C11.43 6.23989 11.75 6.43989 12.09 6.58989L8 9.37989L1 4.62989V13.3999H15V6.55989C15.37 6.37989 15.71 6.13989 16 5.84989V13.3999C16 13.6799 15.9 13.9199 15.7 14.1199C15.51 14.3099 15.28 14.3999 15 14.3999H1C0.72 14.3999 0.48 14.3099 0.28 14.1199C0.09 13.9199 0 13.6799 0 13.3999V3.38989C0 3.10989 0.09 2.86989 0.28 2.68989C0.48 2.48989 0.72 2.38989 1 2.38989Z" fill="rgb(34, 34, 34)" fill-opacity="1.00"/></svg>