<!-- Generated by Trend Micro Style Portal -->
<svg version="1.1" xmlns="http://www.w3.org/2000/svg" width="0" height="0" viewBox="0 0 0 0">
  <title>email-business-o</title>
  <path fill="rgb(34,34,34)" d="M960 256h-256v64h256v124.219l-448 224.031-448-224.031v-124.219h256v-64h-256c-35.302 0.109-63.891 28.698-64 63.99v640.010c0.109 35.302 28.698 63.891 63.99 64h896.010c35.302-0.109 63.891-28.698 64-63.99v-640.010c-0.109-35.302-28.698-63.891-63.99-64h-0.010zM64 960v-444.224l448 223.972 448-223.972v444.224zM594.227 376.684c0.008-0.277 0.013-0.602 0.013-0.929 0-12.454-6.726-23.338-16.744-29.215l-0.159-0.086c-15.494-8.426-33.48-14.849-52.503-18.295l-1.102-0.166-41.792-9.363c-31.791-5.478-60.231-16.031-85.865-30.89l1.233 0.659c-23.955-17.86-39.301-46.114-39.301-77.953 0-2.6 0.102-5.176 0.303-7.724l-0.021 0.337c-0.020-0.79-0.031-1.72-0.031-2.653 0-33.874 14.715-64.311 38.102-85.267l0.108-0.095c22.568-19.074 51.459-31.315 83.137-33.223l0.397-0.019v-81.801h64v83.344c26.688 4.461 50.352 14.924 70.382 29.965l-0.414-0.297c27.951 21.878 45.748 55.619 45.748 93.516 0 0.851-0.009 1.7-0.027 2.546l0.002-0.126h-77.512c0-0.002 0-0.004 0-0.006 0-21.975-12.521-41.025-30.818-50.406l-0.319-0.149c-13.070-6.283-28.415-9.954-44.618-9.954-1.207 0-2.41 0.020-3.607 0.061l0.174-0.005c-1.349-0.072-2.927-0.113-4.516-0.113-17.181 0-33.237 4.82-46.889 13.181l0.393-0.224c-11.538 7.337-19.084 20.055-19.084 34.535 0 0.462 0.008 0.921 0.023 1.379l-0.002-0.067c-0.013 0.356-0.021 0.775-0.021 1.195 0 13.231 7.577 24.693 18.629 30.283l0.194 0.089c14.729 6.873 31.894 12.517 49.81 16.078l1.463 0.242 67.747 16.32c25.399 5.006 47.852 15.001 67.251 28.971l-0.506-0.347c21.279 17.978 34.701 44.68 34.701 74.517 0 2.112-0.067 4.208-0.2 6.286l0.014-0.284c0.013 0.654 0.021 1.425 0.021 2.198 0 35.080-15.836 66.462-40.748 87.386l-0.175 0.143c-23.731 19.363-53.782 31.817-86.65 33.917l-0.448 0.023v81.801h-64v-82.168c-32.127-3.12-60.982-15.054-84.705-33.324l0.385 0.285c-26.802-21.677-43.798-54.561-43.798-91.415 0-1.853 0.043-3.696 0.128-5.528l-0.010 0.259h76.988c1.255 15.273 6.583 29.094 14.884 40.634l-0.164-0.24c15.313 15.33 36.477 24.813 59.856 24.813 3.119 0 6.198-0.169 9.23-0.498l-0.375 0.033c1.323 0.043 2.879 0.068 4.441 0.068 15.306 0 30.057-2.373 43.906-6.772l-1.026 0.281c19.987-5.183 34.509-23.062 34.509-44.331 0-0.497-0.008-0.993-0.024-1.487l0.002 0.072z"></path>
</svg>