<svg width="16" height="16" viewBox="0 0 16 16" fill="rgb(34, 34, 34)" xmlns="http://www.w3.org/2000/svg"><title>face-neurtral-o</title><g clip-path="url(#clip0_3_1765)"><path d="M11 11H5V10H11V11ZM8 1.5C4.41 1.5 1.5 4.41 1.5 8C1.5 11.59 4.41 14.5 8 14.5C11.59 14.5 14.5 11.59 14.5 8C14.496 4.412 11.588 1.504 8 1.5ZM8 0C12.418 0 16 3.582 16 8C16 12.418 12.418 16 8 16C3.582 16 0 12.418 0 8C0 3.582 3.582 0 8 0ZM5 5.001C4.448 5.001 4 5.449 4 6.001C4 6.553 4.448 7.001 5 7.001C5.552 7.001 6 6.553 6 6.001C6 5.449 5.552 5.001 5 5.001ZM11 5.001C10.448 5.001 10 5.449 10 6.001C10 6.553 10.448 7.001 11 7.001C11.552 7.001 12 6.553 12 6.001C12 5.449 11.552 5.001 11 5.001Z" fill="rgb(34, 34, 34)" fill-opacity="1.00"/></g><defs><clipPath id="clip0_3_1765"><rect width="16" height="16" fill="rgb(34, 34, 34)"/></clipPath></defs></svg>