<svg width="16" height="16" viewBox="0 0 16 16" fill="rgb(34, 34, 34)" xmlns="http://www.w3.org/2000/svg"><title>face-smile-o</title><g clip-path="url(#clip0_3_1754)"><path d="M5 7.00098C5.552 7.00098 6 6.55298 6 6.00098C6 5.44898 5.552 5.00098 5 5.00098C4.448 5.00098 4 5.44898 4 6.00098C4 6.55298 4.448 7.00098 5 7.00098Z" fill="rgb(34, 34, 34)" fill-opacity="1.00"/><path d="M12 6.00098C12 6.55298 11.552 7.00098 11 7.00098C10.448 7.00098 10 6.55298 10 6.00098C10 5.44898 10.448 5.00098 11 5.00098C11.552 5.00098 12 5.44898 12 6.00098Z" fill="rgb(34, 34, 34)" fill-opacity="1.00"/><path d="M3.536 9.19306C4.175 11.0661 5.919 12.4281 8 12.5001H8.008C10.08 12.4271 11.825 11.0661 12.474 9.15806L11.526 8.84106L11.518 8.86907C11.006 10.3441 9.638 11.4191 8 11.5011H7.991C6.362 11.4191 4.995 10.3441 4.474 8.84206L3.526 9.15907L3.536 9.19306Z" fill="rgb(34, 34, 34)" fill-opacity="1.00"/><path fill-rule="evenodd" clip-rule="evenodd" d="M0 8C0 3.582 3.582 0 8 0C12.418 0 16 3.582 16 8C16 12.418 12.418 16 8 16C3.582 16 0 12.418 0 8ZM14.5 8C14.5 4.41 11.59 1.5 8 1.5C4.412 1.504 1.504 4.412 1.5 8C1.5 11.59 4.41 14.5 8 14.5C11.59 14.5 14.5 11.59 14.5 8Z" fill="rgb(34, 34, 34)" fill-opacity="1.00"/></g><defs><clipPath id="clip0_3_1754"><rect width="16" height="16" fill="rgb(34, 34, 34)"/></clipPath></defs></svg>