<svg width="16" height="16" viewBox="0 0 16 16" fill="rgb(34, 34, 34)" xmlns="http://www.w3.org/2000/svg"><title>face-smile-o</title><path d="M8 1.5C11.59 1.5 14.5 4.41 14.5 8C14.5 11.59 11.59 14.5 8 14.5C4.41 14.5 1.5 11.59 1.5 8C1.504 4.412 4.412 1.504 8 1.5ZM8 0C3.582 0 0 3.582 0 8C0 12.418 3.582 16 8 16C12.418 16 16 12.418 16 8C16 3.582 12.418 0 8 0Z" fill="rgb(34, 34, 34)" fill-opacity="1.00"/><path d="M6 6.001C6 6.553 5.552 7.001 5 7.001C4.448 7.001 4 6.553 4 6.001C4 5.449 4.448 5.001 5 5.001C5.552 5.001 6 5.449 6 6.001Z" fill="rgb(34, 34, 34)" fill-opacity="1.00"/><path d="M12 6.001C12 6.553 11.552 7.001 11 7.001C10.448 7.001 10 6.553 10 6.001C10 5.449 10.448 5.001 11 5.001C11.552 5.001 12 5.449 12 6.001Z" fill="rgb(34, 34, 34)" fill-opacity="1.00"/><path d="M8 12.5C5.919 12.428 4.175 11.066 3.536 9.193L3.526 9.159L4.474 8.842C4.995 10.344 6.362 11.419 7.991 11.501H8C9.638 11.419 11.006 10.344 11.518 8.869L11.526 8.841L12.474 9.158C11.825 11.066 10.08 12.427 8.008 12.5H8Z" fill="rgb(34, 34, 34)" fill-opacity="1.00"/></svg>