<svg width="16" height="16" viewBox="0 0 16 16" fill="rgb(34, 34, 34)" xmlns="http://www.w3.org/2000/svg"><title>face-sad-o</title><g clip-path="url(#clip0_3_1762)"><path d="M8 1.5C11.59 1.5 14.5 4.41 14.5 8C14.5 11.59 11.59 14.5 8 14.5C4.41 14.5 1.5 11.59 1.5 8C1.504 4.412 4.412 1.504 8 1.5ZM8 0C3.582 0 0 3.582 0 8C0 12.418 3.582 16 8 16C12.418 16 16 12.418 16 8C16 3.582 12.418 0 8 0ZM5 4.998C4.448 4.998 4 5.446 4 5.998C4 6.55 4.448 6.998 5 6.998C5.552 6.998 6 6.55 6 5.998C6 5.446 5.552 4.998 5 4.998ZM11 4.998C10.448 4.998 10 5.446 10 5.998C10 6.55 10.448 6.998 11 6.998C11.552 6.998 12 6.55 12 5.998C12 5.446 11.552 4.998 11 4.998ZM12 10.832C11.379 9.184 9.828 8.027 8.004 7.997H8C6.172 8.027 4.621 9.184 4.01 10.802L4 10.832L4.95 11.164C5.43 9.911 6.608 9.031 7.996 8.997H8C9.392 9.031 10.57 9.911 11.042 11.141L11.05 11.164L12 10.832Z" fill="rgb(34, 34, 34)" fill-opacity="1.00"/></g><defs><clipPath id="clip0_3_1762"><rect width="16" height="16" fill="rgb(34, 34, 34)"/></clipPath></defs></svg>