<svg width="16" height="16" viewBox="0 0 16 16" fill="rgb(34, 34, 34)" xmlns="http://www.w3.org/2000/svg"><title>flag-more</title><g clip-path="url(#clip0_3_1776)"><path d="M13 12.0001H15V14.0001H13V12.0001ZM9.99998 14.0001H12V12.0001H9.99998V14.0001ZM6.99998 14.0001H8.99998V12.0001H6.99998V14.0001ZM15 3.00011C12.75 4.94511 7.68998 1.48811 7.68998 1.48811C6.51998 0.747106 5.09698 0.308105 3.56998 0.308105C2.95998 0.308105 2.36698 0.378105 1.79798 0.511105L1.85098 0.501105H1.00098V16.0011H2.00098V9.00111C3.00098 8.00111 5.99098 8.98611 8.00098 9.00111C12.298 8.98511 15.001 6.68611 15.001 3.00111L15 3.00011Z" fill="rgb(34, 34, 34)" fill-opacity="1.00"/></g><defs><clipPath id="clip0_3_1776"><rect width="16" height="16" fill="rgb(34, 34, 34)"/></clipPath></defs></svg>