<svg width="16" height="16" viewBox="0 0 16 16" fill="rgb(34, 34, 34)" xmlns="http://www.w3.org/2000/svg"><title>flag-o</title><path d="M3.734 1.013C5.068 1.104 6.282 1.551 7.302 2.259L7.279 2.244C8.956 3.498 11.016 4.331 13.255 4.549L13.304 4.553H13.962C13.253 6.583 11.228 7.9 8.089 7.9L3.633 7.495H3.167C3.163 7.495 3.157 7.495 3.152 7.495C2.743 7.495 2.351 7.571 1.99 7.71L2.012 7.703V1.318C2.504 1.126 3.074 1.014 3.67 1.014C3.676 1.014 3.682 1.014 3.688 1.014H3.733L3.734 1.013ZM3.734 0H3.673C3.664 0 3.654 0 3.644 0C2.973 0 2.329 0.111 1.728 0.316L1.77 0.304H1V16H2.013V8.911C2.364 8.608 2.821 8.419 3.321 8.405H3.324H3.633C4.949 8.506 6.772 8.911 8.089 8.911C12.443 8.911 15.178 6.582 15.178 2.835C14.738 3.213 14.162 3.443 13.533 3.443H13.356C10.926 3.443 7.786 1.316 7.786 1.316C6.649 0.534 5.253 0.049 3.748 0H3.736L3.734 0Z" fill="rgb(34, 34, 34)" fill-opacity="1.00"/></svg>