<svg width="16" height="16" viewBox="0 0 16 16" fill="rgb(34, 34, 34)" xmlns="http://www.w3.org/2000/svg"><title>flag-more</title><path d="M13 12H15V14H13V12ZM9.99998 14H12V12H9.99998V14ZM6.99998 14H8.99998V12H6.99998V14ZM15 3C12.75 4.945 7.68998 1.488 7.68998 1.488C6.51998 0.746999 5.09698 0.307999 3.56998 0.307999C2.95998 0.307999 2.36698 0.377999 1.79798 0.510999L1.85098 0.500999H1.00098V16.001H2.00098V9.001C3.00098 8.001 5.99098 8.986 8.00098 9.001C12.298 8.985 15.001 6.686 15.001 3.001L15 3Z" fill="rgb(34, 34, 34)" fill-opacity="1.00"/></svg>