<svg width="16" height="16" viewBox="0 0 16 16" fill="rgb(34, 34, 34)" xmlns="http://www.w3.org/2000/svg"><title>folder-add</title><g clip-path="url(#clip0_3_1759)"><path d="M15.06 2.99805C15.576 2.99805 15.995 3.41405 16 3.93005V4.99905H0V1.92905C0.005 1.41405 0.424 0.998047 0.94 0.998047C0.961 0.998047 0.982 0.999047 1 1.00005H7L8 3.00005H14.997C15.018 2.99905 15.039 2.99805 15.06 2.99805Z" fill="rgb(34, 34, 34)" fill-opacity="1.00"/><path d="M13 11H16V13H13V16H11V13H8V11H11V8H13V11Z" fill="rgb(34, 34, 34)" fill-opacity="1.00"/><path d="M1 15C0.441 14.967 0 14.506 0 13.942V6.00098H16V7.00098H15.99V9.99999H14V7.00098H10V10H7V14H10V15L1 15Z" fill="rgb(34, 34, 34)" fill-opacity="1.00"/></g><defs><clipPath id="clip0_3_1759"><rect width="16" height="16" fill="rgb(34, 34, 34)"/></clipPath></defs></svg>