<svg width="16" height="16" viewBox="0 0 16 16" fill="rgb(34, 34, 34)" xmlns="http://www.w3.org/2000/svg"><title>folder</title><path d="M0 6H16V13.93C16 13.933 16 13.938 16 13.942C16 14.506 15.559 14.968 15.003 15H15H1C0.441 14.967 0 14.506 0 13.942C0 13.938 0 13.934 0 13.93V6ZM15 3H8L7 1H1C0.982 0.999001 0.961 0.998001 0.94 0.998001C0.424 0.998001 0.005 1.414 0 1.929V4.999H16V3.929C15.995 3.413 15.576 2.997 15.06 2.997C15.039 2.997 15.018 2.998 14.997 2.999L15 3Z" fill="rgb(34, 34, 34)" fill-opacity="1.00"/></svg>