<svg width="16" height="16" viewBox="0 0 16 16" fill="rgb(34, 34, 34)" xmlns="http://www.w3.org/2000/svg"><title>gears</title><g clip-path="url(#clip0_3_1568)"><path d="M11 11V10L9.4 9.7C9.3 9.2 9.1 8.7 8.8 8.3L9.7 7L9 6.3L7.7 7.2C7.3 6.9 6.8 6.7 6.3 6.6L6 5H5L4.7 6.6C4.2 6.7 3.7 6.9 3.3 7.2L2 6.3L1.3 7L2.2 8.3C1.9 8.7 1.7 9.2 1.6 9.7L0 10V11L1.6 11.3C1.7 11.8 1.9 12.3 2.2 12.7L1.3 14L2 14.7L3.3 13.8C3.7 14.1 4.2 14.3 4.7 14.4L5 16H6L6.3 14.4C6.8 14.3 7.3 14.1 7.7 13.8L9 14.7L9.7 14L8.8 12.7C9.1 12.3 9.3 11.8 9.4 11.3L11 11ZM5.5 12.5C4.4 12.5 3.5 11.6 3.5 10.5C3.5 9.4 4.4 8.5 5.5 8.5C6.6 8.5 7.5 9.4 7.5 10.5C7.5 11.6 6.6 12.5 5.5 12.5ZM15 4C15 3.8 15 3.6 14.9 3.4L16 2.8L15.7 2.1L14.5 2.4C14.3 2 14 1.7 13.7 1.5L14 0.3L13.2 0L12.5 1.1C12.4 1 12.2 1 12 1C11.8 1 11.6 1 11.4 1.1L10.8 0L10.1 0.3L10.4 1.5C10 1.7 9.7 2 9.5 2.3L8.3 2.1L8 2.8L9.1 3.5C9 3.6 9 3.8 9 4C9 4.2 9 4.4 9.1 4.6L8 5.2L8.3 5.9L9.5 5.6C9.7 6 10 6.3 10.3 6.5L10 7.7L10.8 8L11.5 6.9C11.6 7 11.8 7 12 7C12.2 7 12.4 7 12.6 6.9L13.2 8L13.9 7.7L13.6 6.5C14 6.3 14.3 6 14.5 5.7L15.7 6L16 5.2L14.9 4.5C15 4.4 15 4.2 15 4ZM12 5.5C11.2 5.5 10.5 4.8 10.5 4C10.5 3.2 11.2 2.5 12 2.5C12.8 2.5 13.5 3.2 13.5 4C13.5 4.8 12.8 5.5 12 5.5Z" fill="rgb(34, 34, 34)" fill-opacity="1.00"/></g><defs><clipPath id="clip0_3_1568"><rect width="16" height="16" fill="rgb(34, 34, 34)"/></clipPath></defs></svg>