<svg width="16" height="16" viewBox="0 0 16 16" fill="rgb(34, 34, 34)" xmlns="http://www.w3.org/2000/svg"><title>indicator-2</title><path fill-rule="evenodd" clip-rule="evenodd" d="M13.6648 9.98236L12.7209 9.65207C12.9014 9.13621 13 8.58068 13 8C13 7.41932 12.9014 6.86379 12.7209 6.34793L13.6648 6.01764C13.8819 6.63821 14 7.30532 14 8C14 8.69468 13.8819 9.36179 13.6648 9.98236ZM9.98236 2.33521L9.65207 3.27909C9.13621 3.09858 8.58068 3 8 3C7.41932 3 6.86379 3.09858 6.34793 3.27909L6.01764 2.33521C6.63821 2.11806 7.30532 2 8 2C8.69468 2 9.36179 2.11806 9.98236 2.33521ZM2.33521 6.01764C2.11806 6.63821 2 7.30532 2 8C2 8.69468 2.11806 9.36179 2.33521 9.98236L3.27909 9.65207C3.09858 9.13621 3 8.58068 3 8C3 7.41932 3.09858 6.86379 3.27909 6.34793L2.33521 6.01764ZM6.01764 13.6648L6.34793 12.7209C6.86379 12.9014 7.41932 13 8 13C8.58068 13 9.13621 12.9014 9.65207 12.7209L9.98236 13.6648C9.36179 13.8819 8.69468 14 8 14C7.30532 14 6.63821 13.8819 6.01764 13.6648Z" fill="rgb(34, 34, 34)" fill-opacity="1.00"/></svg>