<svg width="16" height="16" viewBox="0 0 16 16" fill="rgb(34, 34, 34)" xmlns="http://www.w3.org/2000/svg"><title>investigation</title><g clip-path="url(#clip0_3_1548)"><path d="M11.7 10.3L16 14.6L14.6 16L10.3 11.7C9.3 12.5 7.9 13 6.5 13C2.9 13 0 10.1 0 6.5C0 2.9 2.9 0 6.5 0C7 0 7.5 0.1 8 0.2V1.8C7.5 1.6 7 1.5 6.5 1.5C3.7 1.5 1.5 3.7 1.5 6.5C1.5 9.3 3.7 11.5 6.5 11.5C8.3 11.5 10 10.5 10.8 9H12.5C12.3 9.5 12 9.9 11.7 10.3ZM13 3V0H11V3H8V5H11V8H13V5H16V3H13Z" fill="rgb(34, 34, 34)" fill-opacity="1.00"/></g><defs><clipPath id="clip0_3_1548"><rect width="16" height="16" fill="rgb(34, 34, 34)"/></clipPath></defs></svg>