<svg width="16" height="16" viewBox="0 0 16 16" fill="rgb(34, 34, 34)" xmlns="http://www.w3.org/2000/svg"><title>IOC</title><g clip-path="url(#clip0_3_1547)"><path d="M12.4966 9.006C11.667 9.009 10.9065 9.303 10.3111 9.791L10.3171 9.786L8.83107 8.796C8.93414 8.563 8.99418 8.292 8.99418 8.006C8.99418 7.081 8.36275 6.303 7.50716 6.08L7.49315 6.077V3.936C8.36275 3.706 8.99418 2.926 8.99418 2C8.99418 0.895 8.09857 0 6.99281 0C5.88705 0 4.99143 0.895 4.99143 2C4.99143 2.927 5.62287 3.707 6.47845 3.933L6.49246 3.936V6.077C5.62387 6.299 4.99143 7.074 4.99143 7.997C4.99143 8.374 5.0965 8.726 5.27963 9.025L5.27463 9.016L3.00006 11.289C2.71186 11.118 2.36563 11.018 1.99537 11.018C0.893614 11.018 0 11.911 0 13.012C0 14.113 0.893614 15.006 1.99537 15.006C3.09713 15.006 3.99074 14.113 3.99074 13.012C3.99074 13.01 3.99074 13.008 3.99074 13.006C3.98874 12.633 3.88367 12.284 3.70255 11.987L3.70755 11.996L5.98211 9.723C6.27131 9.901 6.62055 10.006 6.99581 10.006C7.45613 10.006 7.87942 9.847 8.21365 9.581L8.20964 9.584L9.61561 10.521C9.22935 11.075 8.99919 11.762 8.99919 12.504C8.99919 14.436 10.5663 16.002 12.4996 16.002C14.4329 16.002 16 14.436 16 12.504C16 10.572 14.4329 9.006 12.4996 9.006C12.4986 9.006 12.4976 9.006 12.4966 9.006ZM12.4966 14.506C11.3908 14.506 10.4952 13.611 10.4952 12.506C10.4952 11.401 11.3908 10.506 12.4966 10.506C13.6024 10.506 14.498 11.401 14.498 12.506C14.497 13.61 13.6014 14.505 12.4966 14.506Z" fill="rgb(34, 34, 34)" fill-opacity="1.00"/></g><defs><clipPath id="clip0_3_1547"><rect width="16" height="16" fill="rgb(34, 34, 34)"/></clipPath></defs></svg>