<svg width="16" height="16" viewBox="0 0 16 16" fill="rgb(34, 34, 34)" xmlns="http://www.w3.org/2000/svg"><title>key-close-o</title><path d="M16 2V7C15.997 7.183 15.97 7.359 15.922 7.526L15.925 7.512L14.999 6.586V2C14.998 1.448 14.551 1.001 13.999 1H8.99899C8.44699 1.001 7.99999 1.448 7.99899 2V6.414L5.41299 9H3.99899V11H1.99899V12.414L0.998993 13.414V15H2.58499L7.58499 10L8.29199 10.707L2.99899 16H-0.00100708V13L0.998993 12V10H2.99899V8H4.99899L6.99899 6V2C6.99899 0.895 7.89399 0 8.99899 0H13.999C15.104 0 16 0.895 16 2ZM11.414 9H12.586L13.586 8H10.414L11.414 9ZM12.5 5C11.672 5 11 4.328 11 3.5C11 2.672 11.672 2 12.5 2C13.328 2 14 2.672 14 3.5C14 4.328 13.328 5 12.5 5ZM12.5 4C12.776 4 13 3.776 13 3.5C13 3.224 12.776 3 12.5 3C12.224 3 12 3.224 12 3.5C12 3.776 12.224 4 12.5 4ZM14.241 10.759L16 9L15 8L12 11L8.99999 8L7.99999 9L11 12L7.99999 15L8.99999 16L12 13L15 16L16 15L13 12L13.534 11.466L14.241 10.759Z" fill="rgb(34, 34, 34)" fill-opacity="1.00"/></svg>