<svg width="16" height="16" viewBox="0 0 16 16" fill="rgb(34, 34, 34)" xmlns="http://www.w3.org/2000/svg"><title>key-up-o</title><g clip-path="url(#clip0_3_1412)"><path d="M12 12L16 16H8L12 12ZM14 1H9C8.448 1.001 8.001 1.448 8 2V6.414L5.414 9H4V11H2V12.414L1 13.414V15H2.586L9.586 8H14C14.552 7.999 14.999 7.552 15 7V2C14.999 1.448 14.552 1.001 14 1ZM14 0C15.105 0 16 0.895 16 2V7C16 8.105 15.105 9 14 9H10L3 16H0V13L1 12V10H3V8H5L7 6V2C7 0.895 7.895 0 9 0H14ZM12.5 3C12.224 3 12 3.224 12 3.5C12 3.776 12.224 4 12.5 4C12.776 4 13 3.776 13 3.5C13 3.224 12.776 3 12.5 3ZM12.5 2C13.328 2 14 2.672 14 3.5C14 4.328 13.328 5 12.5 5C11.672 5 11 4.328 11 3.5C11 2.672 11.672 2 12.5 2Z" fill="rgb(34, 34, 34)" fill-opacity="1.00"/></g><defs><clipPath id="clip0_3_1412"><rect width="16" height="16" fill="rgb(34, 34, 34)"/></clipPath></defs></svg>