<svg width="16" height="16" viewBox="0 0 16 16" fill="rgb(34, 34, 34)" xmlns="http://www.w3.org/2000/svg"><title>laptop-group</title><path d="M16 1V9C16 9.552 15.552 10 15 10H14V2H4V1C4 0.448 4.448 0 5 0H15C15.552 0 16 0.448 16 1ZM1 12V4C1 3.448 1.448 3 2 3H12C12.552 3 13 3.448 13 4V12C13 12.552 12.552 13 12 13H2C1.448 13 1 12.552 1 12ZM3 11H11V5H3V11ZM2 16H12C13.105 16 14 15.105 14 14H0C0 15.105 0.895 16 2 16ZM14 13C15.105 13 16 12.105 16 11H14V13Z" fill="rgb(34, 34, 34)" fill-opacity="1.00"/></svg>