<svg width="16" height="16" viewBox="0 0 16 16" fill="rgb(34, 34, 34)" xmlns="http://www.w3.org/2000/svg"><title>lateral-movement</title><path d="M5 8C5 8.552 4.552 9 4 9C3.448 9 3 8.552 3 8C3 7.448 3.448 7 4 7C4.552 7 5 7.448 5 8ZM6.448 6L8.448 8L6.448 10L7 10.552L9.552 8L7 5.448L6.448 6ZM10.5 5.448L9.948 6L11.948 8L9.948 10L10.5 10.552L13.052 8L10.5 5.448ZM16 8C16 12.418 12.418 16 8 16C3.582 16 0 12.418 0 8C0 3.582 3.582 0 8 0C12.418 0 16 3.582 16 8ZM15 8C15 4.134 11.866 1 8 1C4.134 1 1 4.134 1 8C1 11.866 4.134 15 8 15C11.866 15 15 11.866 15 8Z" fill="rgb(34, 34, 34)" fill-opacity="1.00"/></svg>