<svg width="16" height="16" viewBox="0 0 16 16" fill="rgb(34, 34, 34)" xmlns="http://www.w3.org/2000/svg"><title>light-o</title><path d="M8.75 13.5H7.25V16H8.75V13.5Z" fill="rgb(34, 34, 34)" fill-opacity="1.00"/><path d="M16 7H13.8V8.5H16V7Z" fill="rgb(34, 34, 34)" fill-opacity="1.00"/><path d="M2.2 7H0V8.5H2.2V7Z" fill="rgb(34, 34, 34)" fill-opacity="1.00"/><path d="M12.773 11.712L11.712 12.773L13.127 14.187L14.187 13.127L12.773 11.712Z" fill="rgb(34, 34, 34)" fill-opacity="1.00"/><path d="M3.227 11.712L1.813 13.127L2.873 14.187L4.288 12.773L3.227 11.712Z" fill="rgb(34, 34, 34)" fill-opacity="1.00"/><path d="M8.75 1.5V3.984L9.535 4.41C10.564 4.969 11.25 6.042 11.25 7.275C11.25 9.07 9.795 10.525 8 10.525C6.205 10.525 4.75 9.07 4.75 7.275C4.75 6.042 5.437 4.969 6.448 4.419L6.465 4.411L7.25 3.985V1.501H8.75V1.5ZM10.25 0H5.75V3.091C4.25 3.91 3.25 5.475 3.25 7.274C3.25 9.897 5.377 12.024 8 12.024C10.623 12.024 12.75 9.897 12.75 7.274C12.75 5.475 11.75 3.909 10.275 3.103L10.25 3.091V0Z" fill="rgb(34, 34, 34)" fill-opacity="1.00"/></svg>