<svg width="16" height="16" viewBox="0 0 16 16" fill="rgb(34, 34, 34)" xmlns="http://www.w3.org/2000/svg"><title>light</title><g clip-path="url(#clip0_3_1544)"><path d="M10.25 0V3.091L10.275 3.103C11.75 3.909 12.75 5.475 12.75 7.274C12.75 9.897 10.623 12.024 8 12.024C5.377 12.024 3.25 9.897 3.25 7.274C3.25 5.475 4.25 3.91 5.75 3.091V0H10.25Z" fill="rgb(34, 34, 34)" fill-opacity="1.00"/><path d="M0 7H2.2V8.5H0V7Z" fill="rgb(34, 34, 34)" fill-opacity="1.00"/><path d="M16 7H13.8V8.5H16V7Z" fill="rgb(34, 34, 34)" fill-opacity="1.00"/><path d="M8.75 16V13.5H7.25V16H8.75Z" fill="rgb(34, 34, 34)" fill-opacity="1.00"/><path d="M12.773 11.7119L11.712 12.7729L13.126 14.1869L14.187 13.1259L12.773 11.7119Z" fill="rgb(34, 34, 34)" fill-opacity="1.00"/><path d="M1.81299 13.1269L3.22699 11.7129L4.28799 12.7739L2.87399 14.1879L1.81299 13.1269Z" fill="rgb(34, 34, 34)" fill-opacity="1.00"/></g><defs><clipPath id="clip0_3_1544"><rect width="16" height="16" fill="rgb(34, 34, 34)"/></clipPath></defs></svg>