<svg width="16" height="16" viewBox="0 0 16 16" fill="rgb(34, 34, 34)" xmlns="http://www.w3.org/2000/svg"><title>light</title><path d="M7.25 13.5H8.75V16H7.25V13.5Z" fill="rgb(34, 34, 34)" fill-opacity="1.00"/><path d="M13.8 7H16V8.5H13.8V7Z" fill="rgb(34, 34, 34)" fill-opacity="1.00"/><path d="M0 7H2.2V8.5H0V7Z" fill="rgb(34, 34, 34)" fill-opacity="1.00"/><path d="M11.712 12.773L12.773 11.712L14.187 13.126L13.126 14.187L11.712 12.773Z" fill="rgb(34, 34, 34)" fill-opacity="1.00"/><path d="M1.81299 13.127L3.22699 11.713L4.28799 12.774L2.87399 14.188L1.81299 13.127Z" fill="rgb(34, 34, 34)" fill-opacity="1.00"/><path d="M10.25 3.091V0H5.75V3.091C4.25 3.91 3.25 5.475 3.25 7.274C3.25 9.897 5.377 12.024 8 12.024C10.623 12.024 12.75 9.897 12.75 7.274C12.75 5.475 11.75 3.909 10.275 3.103L10.25 3.091Z" fill="rgb(34, 34, 34)" fill-opacity="1.00"/></svg>