<svg width="16" height="16" viewBox="0 0 16 16" fill="rgb(34, 34, 34)" xmlns="http://www.w3.org/2000/svg"><title>link-thin</title><path d="M4.65318 12L3.95257 11.2L11.2589 4L11.9595 4.7L4.65318 12ZM13.8612 2.1C13.1606 1.4 12.2598 1 11.2589 1C10.2581 1 9.45736 1.4 8.75675 2.1L6.95518 3.8V5.2L9.45736 2.7C9.95779 2.3 10.5583 2 11.2589 2C11.9595 2 12.6601 2.3 13.1606 2.8C14.1614 3.8 14.1614 5.5 13.1606 6.5L10.7585 9H12.1597L13.9613 7.2C15.3625 5.8 15.3625 3.5 13.8612 2.1ZM4.65318 14C3.95257 14 3.25196 13.7 2.75152 13.2C1.75065 12.2 1.75065 10.5 2.75152 9.5L5.15361 7H3.75239L2.05091 8.8C0.649695 10.2 0.649695 12.5 2.05091 14C2.75152 14.6 3.65231 15 4.65318 15C5.65405 15 6.55483 14.6 7.25544 13.9L8.95692 12.2V10.8L6.45474 13.3C5.95431 13.7 5.35379 14 4.65318 14Z" fill="rgb(34, 34, 34)" fill-opacity="1.00"/></svg>