<svg width="16" height="16" viewBox="0 0 16 16" fill="rgb(34, 34, 34)" xmlns="http://www.w3.org/2000/svg"><title>link</title><path d="M13.879 7.50178L12.3843 8.99644H10.2918L12.8826 6.40569C13.7794 5.5089 13.7794 4.11388 12.8826 3.21708C11.9858 2.32028 10.5907 2.32028 9.69395 3.21708L7.00356 5.80783V3.61566L8.49822 2.121C9.99288 0.626334 12.3843 0.626334 13.879 2.121C15.3737 3.61566 15.3737 6.00712 13.879 7.50178ZM6.40569 12.7829C5.5089 13.6797 4.11388 13.6797 3.21708 12.7829C2.32028 11.8861 2.32028 10.4911 3.21708 9.59431L5.80783 7.00356H3.61566L2.121 8.49822C0.626334 9.99288 0.626334 12.3843 2.121 13.879C3.61566 15.3737 6.00712 15.3737 7.40214 13.879L8.99644 12.3843V10.2918L6.40569 12.7829ZM5.11032 11.9858L11.9858 5.11032L10.8897 4.01424L4.01424 10.8897L5.11032 11.9858Z" fill="rgb(34, 34, 34)" fill-opacity="1.00"/></svg>