<svg width="16" height="16" viewBox="0 0 16 16" fill="rgb(34, 34, 34)" xmlns="http://www.w3.org/2000/svg"><title>lock-open</title><path d="M13.25 6H6V3C6.001 2.448 6.448 2.001 7 2H9C9.552 2.001 9.999 2.448 10 3V4H12V3C11.998 1.344 10.656 0.002 9 0H7C5.344 0.002 4.002 1.344 4 3V6H2.75C2.336 6.002 2.002 6.336 2 6.75V15.25C2.002 15.664 2.336 15.998 2.75 16H13.25C13.664 15.998 13.998 15.664 14 15.25V6.75C13.998 6.336 13.664 6.002 13.25 6ZM9 12H7V10H9V12Z" fill="rgb(34, 34, 34)" fill-opacity="1.00"/></svg>