<svg width="16" height="16" viewBox="0 0 16 16" fill="rgb(34, 34, 34)" xmlns="http://www.w3.org/2000/svg"><title>lock-o</title><path d="M9.00403 10H7.00403V12H9.00403V10Z" fill="rgb(34, 34, 34)" fill-opacity="1.00"/><path fill-rule="evenodd" clip-rule="evenodd" d="M4.00403 6.003H2.794C2.775 6.001 2.753 6 2.73 6C2.327 6 2 6.32674 2 6.72942C2 6.7554 2.001 6.78038 2.004 6.80536V15.2956C2.007 15.6853 2.324 16 2.714 16C2.742 16 2.77 15.998 2.797 15.995H13.214C13.611 15.972 13.934 15.6803 14.003 15.3006L14.004 15.2956V6.80236C13.967 6.35272 13.593 6.003 13.137 6.003H12.004V3C12.004 1.343 10.661 0 9.00403 0H7.00403C5.34703 0 4.00403 1.343 4.00403 3V6.003ZM6.00403 6.003H10.004V3.003L10.0042 3.0003C10.0051 2.97928 10.006 2.9591 10.006 2.938C10.006 2.419 9.58503 1.998 9.06603 1.998C9.04403 1.998 9.02303 1.999 9.00403 2H7.00703L7.00429 1.99988C6.98328 1.99892 6.96311 1.998 6.94203 1.998C6.42303 1.998 6.00203 2.419 6.00203 2.938C6.00203 2.96 6.00303 2.981 6.00403 3V6.003ZM12.504 7.5018V14.4962H3.504V7.5018H12.504Z" fill="rgb(34, 34, 34)" fill-opacity="1.00"/></svg>