<!-- Generated by Trend Micro Style Portal -->
<svg version="1.1" xmlns="http://www.w3.org/2000/svg" width="0" height="0" viewBox="0 0 0 0">
  <title>machine-learning-o</title>
  <path fill="rgb(34,34,34)" d="M512 0.188c-282.666 0-511.812 229.146-511.812 511.812s229.146 511.812 511.812 511.812c282.666 0 511.812-229.146 511.812-511.812v0c0-282.666-229.146-511.812-511.812-511.812v0zM512 927.812c-229.647 0-415.812-186.166-415.812-415.812s186.166-415.812 415.812-415.812c229.647 0 415.812 186.166 415.812 415.812v0c-0.267 229.539-186.273 415.545-415.786 415.812h-0.026zM768.188 447.812c-41.402 0.131-76.613 26.493-89.895 63.332l-0.21 0.668h-195.047l-65.878-153.719c9.718-8.893 17.552-19.667 22.952-31.766l0.243-0.609 143.602-0.188c14.95 35.157 49.196 59.361 89.095 59.361 53.318 0 96.541-43.223 96.541-96.541s-43.223-96.541-96.541-96.541c-43.765 0-80.728 29.121-92.569 69.043l-0.174 0.683-136.164 0.179c-11.766-40.532-48.561-69.658-92.159-69.658-52.906 0-95.794 42.888-95.794 95.794 0 33.249 16.939 62.542 42.659 79.719l0.349 0.219-28.379 113.504c-4.325-0.82-9.368-1.353-14.513-1.478l-0.116-0.002c-53.019 0-96 42.981-96 96s42.981 96 96 96v0c17.304-0.112 33.48-4.843 47.386-13.019l-0.445 0.242 145.059 108.793c-0.004 0.31-0.006 0.677-0.006 1.043 0 53.023 42.983 96.006 96.006 96.006s96.006-42.983 96.006-96.006c0-6.4-0.626-12.653-1.821-18.703l0.1 0.609 112.687-112.688c5.147 0.979 11.066 1.54 17.117 1.54 52.969 0 95.908-42.94 95.908-95.908s-42.94-95.908-95.908-95.908c-0.033 0-0.065 0-0.098 0h0.005zM678.082 575.812c3.991 10.977 9.5 20.457 16.388 28.751l-0.126-0.157-89.536 89.536c-14.389-11.915-32.587-19.702-52.529-21.325l-0.338-0.022-41.476-96.783zM352.188 575.812h88.58l48.576 113.356c-6.647 4.797-12.427 10.16-17.488 16.151l-0.117 0.143-126.344-94.762c4.246-10.325 6.736-22.307 6.793-34.864v-0.023zM329.187 511.812l31.005-124.012 53.149 124.012zM672.188 255.812c17.673 0 32 14.327 32 32s-14.327 32-32 32c-17.673 0-32-14.327-32-32v0c0.036-17.658 14.341-31.964 31.996-32h0.004zM224.188 575.812c0-17.673 14.327-32 32-32s32 14.327 32 32c0 17.673-14.327 32-32 32v0c-17.658-0.036-31.964-14.341-32-31.996v-0.004zM768.188 575.812c-17.673 0-32-14.327-32-32s14.327-32 32-32c17.673 0 32 14.327 32 32v0c-0.036 17.658-14.341 31.964-31.996 32h-0.004z"></path>
</svg>