<svg width="16" height="16" viewBox="0 0 16 16" fill="rgb(34, 34, 34)" xmlns="http://www.w3.org/2000/svg"><title>map-marker</title><g clip-path="url(#clip0_3_1523)"><path d="M14 6.00009C14 5.99909 14 5.99709 14 5.99609C14 2.68209 11.314 -0.00390625 8 -0.00390625C4.686 -0.00390625 2 2.68209 2 5.99609C2 7.40009 2.482 8.69109 3.29 9.71309L3.28 9.70009L8 16.0001L12.72 9.70009C13.517 8.69209 13.999 7.40209 14 6.00009ZM8 3.00009C9.657 3.00009 11 4.34309 11 6.00009C11 7.65709 9.657 9.00009 8 9.00009C6.343 9.00009 5 7.65709 5 6.00009C5 4.34309 6.343 3.00009 8 3.00009Z" fill="rgb(34, 34, 34)" fill-opacity="1.00"/></g><defs><clipPath id="clip0_3_1523"><rect width="16" height="16" fill="rgb(34, 34, 34)"/></clipPath></defs></svg>