<svg width="16" height="16" viewBox="0 0 16 16" fill="rgb(34, 34, 34)" xmlns="http://www.w3.org/2000/svg"><title>migrate-success</title><path d="M4 12V0.00100708H2V12H0L3 16L5.316 12.912C5.227 12.658 5.149 12.351 5.095 12.036L5.09 12.001L4 12ZM7 6.53701C7.562 6.03101 8.227 5.62701 8.958 5.36201L9 5.34901V3.99701H11L8 0.00100708L5 3.99701H7V6.53701ZM11 6.00001C8.239 6.00001 6 8.23901 6 11C6 13.761 8.239 16 11 16C13.761 16 16 13.761 16 11C16 10.992 16 10.982 16 10.972C16 8.22601 13.774 6.00001 11.028 6.00001C11.018 6.00001 11.008 6.00001 10.999 6.00001H11.001H11ZM10 14L7.46 11.52L8.53 10.52L10 12L13.46 8.50001L14.53 9.55001L10 14Z" fill="rgb(34, 34, 34)" fill-opacity="1.00"/></svg>