<svg width="16" height="16" viewBox="0 0 16 16" fill="rgb(34, 34, 34)" xmlns="http://www.w3.org/2000/svg"><title>migrate-success</title><g clip-path="url(#clip0_3_1520)"><path d="M4 12V0.000976562H2V12H0L3 16L5.316 12.912C5.227 12.658 5.149 12.351 5.095 12.036L5.09 12.001L4 12ZM7 6.53698C7.562 6.03098 8.227 5.62698 8.958 5.36198L9 5.34898V3.99698H11L8 0.000976562L5 3.99698H7V6.53698ZM11 5.99998C8.239 5.99998 6 8.23898 6 11C6 13.761 8.239 16 11 16C13.761 16 16 13.761 16 11C16 10.992 16 10.982 16 10.972C16 8.22598 13.774 5.99998 11.028 5.99998C11.018 5.99998 11.008 5.99998 10.999 5.99998H11.001H11ZM10 14L7.46 11.52L8.53 10.52L10 12L13.46 8.49998L14.53 9.54998L10 14Z" fill="rgb(34, 34, 34)" fill-opacity="1.00"/></g><defs><clipPath id="clip0_3_1520"><rect width="16" height="16" fill="rgb(34, 34, 34)"/></clipPath></defs></svg>