<svg width="16" height="16" viewBox="0 0 16 16" fill="rgb(34, 34, 34)" xmlns="http://www.w3.org/2000/svg"><title>mobile-off</title><path d="M13 11.997V1.00525C13.004 0.97327 13.006 0.936298 13.006 0.899325C13.006 0.402698 12.603 0 12.106 0C12.069 0 12.032 0.0019985 11.995 0.00699475H11.999H3.999C3.967 0.00299775 3.93 0.000999251 3.893 0.000999251C3.396 0.000999251 2.993 0.403697 2.993 0.900325C2.993 0.937297 2.995 0.974269 3 1.01124V1.00724V2.00649L1 0.007994L0 1.00724L15 15.996L16 14.9968L13 11.997ZM4 2.0045H12V10.9978L4 3.00375V2.0045ZM4 12.9963V7.00075L3 6.0015V14.9948C2.996 15.0267 2.994 15.0637 2.994 15.1007C2.994 15.5973 3.397 16 3.894 16C3.931 16 3.968 15.998 4.005 15.993H4.001H12.001C12.01 15.993 12.02 15.993 12.03 15.993C12.296 15.993 12.536 15.8771 12.7 15.6932L12.701 15.6922L10.001 12.9943L4 12.9963ZM9 14.9948H7V13.9955H9V14.9948Z" fill="rgb(34, 34, 34)" fill-opacity="1.00"/></svg>