<svg width="16" height="16" viewBox="0 0 16 16" fill="rgb(34, 34, 34)" xmlns="http://www.w3.org/2000/svg"><title>NAS</title><path d="M15 1H1C0.448 1 0 1.448 0 2V14C0 14.552 0.448 15 1 15H15C15.552 15 16 14.552 16 14V2C16 1.448 15.552 1 15 1ZM2 5C1.448 5 1 4.552 1 4C1 3.448 1.448 3 2 3C2.552 3 3 3.448 3 4C3 4.552 2.552 5 2 5ZM15 13H4V3H15V13Z" fill="rgb(34, 34, 34)" fill-opacity="1.00"/><path d="M5 4H7V12H5V4Z" fill="rgb(34, 34, 34)" fill-opacity="1.00"/><path d="M11 4H8V12H11V4ZM10 6H9V5H10V6Z" fill="rgb(34, 34, 34)" fill-opacity="1.00"/><path d="M12 4H14V12H12V4Z" fill="rgb(34, 34, 34)" fill-opacity="1.00"/></svg>