<svg width="16" height="16" viewBox="0 0 16 16" fill="rgb(34, 34, 34)" xmlns="http://www.w3.org/2000/svg"><title>opera</title><g clip-path="url(#clip0_3_1794)"><path d="M10.125 1.05499C4.635 1.05499 1.977 8.27399 5.367 12.51C6.472 13.962 8.184 14.902 10.118 14.949H10.125C11.321 14.946 12.431 14.58 13.352 13.955L13.332 13.968C11.927 15.229 10.06 16 8.013 16C8.008 16 8.004 16 7.999 16C7.873 16 7.742 16 7.616 15.99C3.366 15.78 0 12.283 0 7.99899C0 3.58099 3.582 -0.00100708 8 -0.00100708H8.026C10.068 0.00599292 11.928 0.776993 13.337 2.04099L13.329 2.03399C12.431 1.42099 11.321 1.05399 10.126 1.05299L10.125 1.05499ZM13.409 13.884C12.843 14.238 12.155 14.447 11.418 14.447C10.564 14.447 9.776 14.165 9.141 13.69L9.151 13.697C10.964 13.036 12.303 10.742 12.303 7.99999C12.303 5.26799 10.974 2.97399 9.161 2.30299C9.786 1.83999 10.572 1.56099 11.423 1.56099C12.173 1.56099 12.873 1.77699 13.463 2.15099L13.447 2.14199C15.019 3.60499 15.999 5.68499 15.999 7.99499C15.999 10.323 15.003 12.419 13.414 13.879L13.408 13.884H13.409Z" fill="rgb(34, 34, 34)" fill-opacity="1.00"/></g><defs><clipPath id="clip0_3_1794"><rect width="16" height="16" fill="rgb(34, 34, 34)"/></clipPath></defs></svg>