<svg width="16" height="16" viewBox="0 0 16 16" fill="rgb(34, 34, 34)" xmlns="http://www.w3.org/2000/svg"><title>partner-close-o</title><g clip-path="url(#clip0_3_1734)"><path fill-rule="evenodd" clip-rule="evenodd" d="M7.48636 12.8471C7.6025 12.9442 7.73367 13.0273 7.87584 13.0934L7.88686 13.0974C8.02603 13.1564 8.18623 13.1925 8.35544 13.1975H8.35745L9.57897 11.976L6.57522 8.97222L6.75544 8.79199L6.14468 8.34143C6.05857 8.26934 5.94643 8.22528 5.82428 8.22528C5.54794 8.22528 5.32265 8.44956 5.32265 8.72691C5.32265 8.8811 5.39274 9.02028 5.50288 9.11139L5.50388 9.11239L8.50764 11.3352C8.68786 11.4653 8.76796 11.5354 8.798 11.7056C8.80401 11.7317 8.80701 11.7607 8.80701 11.7907C8.80701 11.983 8.67785 12.1452 8.50063 12.1952L8.49762 12.1962C8.46959 12.2053 8.43655 12.2103 8.4025 12.2103C8.3688 12.2103 8.33608 12.2054 8.30628 12.1955C8.20461 12.1306 8.11586 12.0588 8.03705 11.977L8.03605 11.976L4.43154 9.33267C3.98398 9.01627 3.5965 8.70688 3.22503 8.37847L3.24005 8.39149C2.37297 7.49737 1.62103 6.48411 1.01427 5.37972L0.977222 5.30763L3.54043 1.48285L4.07109 1.66308L4.68185 1.87334C4.46959 2.14268 4.34143 2.48711 4.34143 2.86058C4.34143 3.01538 4.36335 3.16421 4.4042 3.30508C4.50569 3.67509 4.73263 3.98177 5.0363 4.18223L5.0423 4.18623C5.21452 4.3174 5.42678 4.40451 5.65807 4.42653H5.66308L9.39775 4.69687L12.9922 7.35019L13.0723 7.43029C13.1524 7.50538 13.2095 7.60551 13.2315 7.71765L13.2325 7.72065C13.2375 7.74969 13.2406 7.78173 13.2406 7.81577C13.2406 8.08911 13.0373 8.31539 12.774 8.35144H12.771C12.6979 8.35144 12.6288 8.33242 12.5687 8.30038L12.5707 8.30138L12.4706 8.2413L8.84606 5.53792C8.76796 5.48586 8.67184 5.45382 8.56871 5.45382C8.29237 5.45382 8.06809 5.6781 8.06809 5.95444C8.06809 6.09762 8.12816 6.22678 8.22528 6.3179L8.79599 6.73842L8.98623 6.5582L10.3579 7.96996L12.2403 9.3617L14.9937 6.5582L15.0638 6.62829C15.3642 6.06758 15.6446 5.49687 15.9249 4.8761C15.972 4.77597 16 4.65782 16 4.53367C16 4.33642 15.9299 4.15519 15.8138 4.01302L15.8148 4.01402L12.7409 0.289362C12.5947 0.11214 12.3755 0 12.1292 0C12.021 0 11.9179 0.0220275 11.8248 0.0610764L11.8298 0.0590738C10.9467 0.430538 9.88436 0.773967 8.78799 1.03229L8.64581 1.06033C8.20926 1.15544 7.70864 1.21051 7.19399 1.21051H6.36295C5.58612 1.02153 4.9453 0.826237 4.3243 0.602427L4.36045 0.609762L4.22328 0.565707L4.3243 0.602427L3.66959 0.469587H3.44931C3.17697 0.472591 2.93767 0.613767 2.8005 0.827034L0.125156 4.83504C0.0470588 4.9582 0 5.10939 0 5.27059C0 5.43179 0.0470588 5.58298 0.127159 5.70914L0.125156 5.70613C0.647003 6.66841 1.17942 7.4923 1.76666 8.27008C1.59676 8.49823 1.48784 8.77931 1.46683 9.08536V9.09036C1.46483 9.1204 1.46383 9.15645 1.46383 9.19149C1.46383 9.56796 1.597 9.91439 1.81927 10.1837L1.81727 10.1807C1.99249 10.392 2.22378 10.5522 2.48811 10.6383L2.49812 10.6413C2.46909 10.7174 2.44506 10.8085 2.42904 10.9026L2.42804 10.9116C2.42603 10.9427 2.42503 10.9787 2.42503 11.0158C2.42503 11.3952 2.5582 11.7437 2.78148 12.016L2.77947 12.013C3.02078 12.3114 3.37422 12.5096 3.77572 12.5437H3.89086C4.02229 12.5369 4.1452 12.513 4.26143 12.474C4.31851 12.6781 4.41059 12.8552 4.53367 13.0073L4.53166 13.0043C4.75895 13.2816 5.09237 13.4658 5.46784 13.4949H5.56295C5.91539 13.4939 6.2358 13.3567 6.47509 13.1334L6.47409 13.1344L7.10488 12.5537L7.48636 12.8471ZM5.66408 2.38398C5.76521 2.35194 5.88135 2.33392 6.0015 2.33392C6.01326 2.33392 6.02407 2.33392 6.03579 2.33486L7.23605 2.27484C7.81978 2.27084 8.38548 2.20576 8.93116 2.08461L8.8781 2.09462C10.0553 1.82599 11.078 1.49946 12.0555 1.09739L14.9957 4.56771C14.6153 5.44581 14.2438 6.16971 13.8323 6.86658L13.8844 6.77046C13.8233 6.70538 13.7582 6.64631 13.6881 6.59324L13.6841 6.59024C13.3617 6.30588 13.0093 6.02954 12.6408 5.77422L12.6028 5.74919L12.3524 5.56896L10.7905 4.43755L10.42 4.16721L10.0996 3.9169C9.97947 3.79374 9.82128 3.70763 9.64406 3.6776L9.63905 3.6766L7.8368 3.54643L5.83429 3.39625C5.63304 3.36821 5.47184 3.22103 5.42478 3.02879L5.42378 3.02578C5.40476 2.97272 5.39274 2.91164 5.39274 2.84756C5.39274 2.65031 5.50088 2.4771 5.66108 2.38598L5.66408 2.38398ZM2.98073 9.72315C2.85056 9.71414 2.73642 9.65006 2.66133 9.55394L2.66033 9.55294C2.58423 9.45782 2.53817 9.33667 2.53817 9.20451C2.53817 9.19037 2.53906 9.17713 2.54 9.1631L2.54009 9.16169C2.53917 9.15287 2.53917 9.14312 2.53917 9.13242C2.53917 9.1214 2.53917 9.11139 2.54018 9.10138V9.10238C2.70038 9.25257 2.90063 9.42278 3.17096 9.63304C3.1179 9.6771 3.05382 9.70814 2.98373 9.72315H2.98073ZM4.2423 11.4453C4.16421 11.5194 4.05807 11.5645 3.94193 11.5655C3.80976 11.5544 3.69562 11.4864 3.62253 11.3862L3.62153 11.3852C3.50738 11.2841 3.43429 11.1379 3.43129 10.9757V10.9747C3.4383 10.8285 3.50238 10.6974 3.6015 10.6043L3.89187 10.3339L3.98198 10.2839L4.803 10.8946L4.2423 11.4453ZM5.85432 12.4466C5.79424 12.5026 5.71314 12.5367 5.62403 12.5367C5.5229 12.5297 5.43379 12.4806 5.37472 12.4075L5.37372 12.4065C5.31064 12.3294 5.27259 12.2303 5.27259 12.1212C5.27259 12.1091 5.27259 12.0961 5.27459 12.0841V12.0861C5.2806 11.967 5.33367 11.8618 5.41477 11.7857L5.69512 11.5254L6.34593 12.006L5.85432 12.4466Z" fill="rgb(34, 34, 34)" fill-opacity="1.00"/><path d="M7.58646 7.13993C7.52338 7.10989 7.45029 7.09187 7.37219 7.09187C7.09585 7.09187 6.87157 7.31615 6.87157 7.5925C6.87157 7.71334 6.9144 7.82522 6.98616 7.91124L7.36618 8.20126L8.07707 7.49037L7.58646 7.13993Z" fill="rgb(34, 34, 34)" fill-opacity="1.00"/><path d="M15.997 8.97215L12.9932 11.9759L15.997 14.9797L14.9957 15.9809L11.992 12.9772L8.98822 15.9809L7.98697 14.9797L10.9907 11.9759L7.98697 8.97215L8.98822 7.9709L11.992 10.9747L14.9957 7.9709L15.997 8.97215Z" fill="rgb(34, 34, 34)" fill-opacity="1.00"/></g><defs><clipPath id="clip0_3_1734"><rect width="16" height="16" fill="rgb(34, 34, 34)"/></clipPath></defs></svg>