<svg width="16" height="16" viewBox="0 0 16 16" fill="rgb(34, 34, 34)" xmlns="http://www.w3.org/2000/svg"><title>partner-error-o</title><g clip-path="url(#clip0_3_1727)"><path d="M2.53418 9.14095C2.53415 9.14069 2.5342 9.1412 2.53418 9.14095V9.14095Z" fill="rgb(34, 34, 34)" fill-opacity="1.00"/><path fill-rule="evenodd" clip-rule="evenodd" d="M4.97258 10.9445V10.9515C4.97458 11.8648 5.18044 12.7302 5.5322 13.4687H5.45725C5.08251 13.4398 4.74973 13.2559 4.52289 12.9791L4.52489 12.9821C4.40205 12.8303 4.31015 12.6535 4.25318 12.4498C4.13717 12.4888 4.0145 12.5126 3.88333 12.5194H3.76841C3.36768 12.4854 3.01493 12.2876 2.77409 11.9898L2.77609 11.9928C2.55324 11.7209 2.42034 11.3732 2.42034 10.9944C2.42034 10.9575 2.42134 10.9215 2.42333 10.8905L2.42433 10.8815C2.44032 10.7876 2.46431 10.6966 2.49329 10.6207L2.48329 10.6177C2.21947 10.5318 1.98863 10.3719 1.81375 10.161L1.81575 10.164C1.5939 9.8952 1.461 9.54944 1.461 9.17369C1.461 9.13872 1.46199 9.10274 1.46399 9.07276V9.06777C1.48496 8.76231 1.59367 8.48178 1.76324 8.25407C1.17714 7.4778 0.64575 6.6555 0.124914 5.69509L0.126913 5.69808C0.0469677 5.57217 0 5.42127 0 5.26038C0 5.09949 0.0469677 4.9486 0.124914 4.82568L2.79508 0.825433C2.93198 0.612579 3.17082 0.471676 3.44263 0.468678H3.66248L4.31593 0.60126C4.93572 0.824637 5.5753 1.01955 6.35063 1.20817H7.18006C7.69371 1.20817 8.19337 1.15321 8.62907 1.05827L8.77097 1.03029C9.86522 0.772469 10.9255 0.429705 11.8069 0.0589595L11.8019 0.0609581C11.8958 0.0219849 11.9988 0 12.1067 0C12.3525 0 12.5714 0.111923 12.7173 0.288801L15.8151 4.00625L15.8141 4.00525C15.93 4.14715 16 4.32802 16 4.52489C16 4.6488 15.972 4.76672 15.9251 4.86665C15.6452 5.47624 15.3754 6.03585 15.0856 6.57548L15.0886 6.57848C14.8488 6.35163 14.591 6.14478 14.2962 5.94591C14.526 5.50621 14.7459 5.04653 14.9657 4.55687L12.0611 1.06331C11.0855 1.46458 10.0647 1.79048 8.88989 2.05858L8.94285 2.04859C8.39823 2.16951 7.83361 2.23446 7.25102 2.23846L6.05308 2.29836C6.04138 2.29742 6.0306 2.29742 6.01886 2.29742C5.89894 2.29742 5.78302 2.31541 5.68209 2.34739L5.6791 2.34839C5.50522 2.43533 5.3863 2.6142 5.3863 2.82206C5.3863 2.88002 5.39529 2.93698 5.41228 2.98595L5.41328 2.98895C5.46025 3.18081 5.62114 3.32771 5.822 3.35569L7.82062 3.50559L9.61939 3.6355L9.62438 3.6365C9.80126 3.66648 9.95915 3.75242 10.0791 3.87534L10.3989 4.12516L10.7686 4.39498L11.5281 4.95459H10.9055C10.5398 4.95459 10.181 4.98757 9.86922 5.04453L9.37955 4.68478L5.65211 4.41497H5.64712C5.41628 4.39298 5.20442 4.30604 5.03254 4.17513L5.02654 4.17113C4.72347 3.97106 4.49696 3.66498 4.39567 3.29568C4.3549 3.15509 4.33302 3.00655 4.33302 2.85204C4.33302 2.4793 4.46093 2.13553 4.67279 1.86672L4.06321 1.65686L3.53357 1.47698L0.97533 5.29436L1.0123 5.36631C1.61789 6.46855 2.36837 7.47986 3.23378 8.37224L3.21879 8.35925C3.58953 8.68703 3.97627 8.99582 4.42296 9.3116L5.08125 9.80033C5.01001 10.1705 4.97258 10.5528 4.97258 10.9445ZM2.65517 9.53245C2.73012 9.62838 2.84404 9.69234 2.97396 9.70133H2.97695C3.04691 9.68634 3.11086 9.65536 3.16383 9.61139C2.89401 9.40154 2.69415 9.23165 2.53426 9.08176V9.08076C2.53326 9.09075 2.53326 9.10074 2.53326 9.11174C2.53326 9.12242 2.53326 9.13215 2.53418 9.14095L2.53408 9.14236C2.53314 9.15636 2.53226 9.16958 2.53226 9.18369C2.53226 9.3156 2.57823 9.43651 2.65418 9.53145L2.65517 9.53245ZM3.9333 11.5401C4.04922 11.5391 4.15514 11.4941 4.23309 11.4201L4.79271 10.8705L3.97327 10.2609L3.88333 10.3109L3.59353 10.5807C3.4946 10.6737 3.43064 10.8046 3.42365 10.9505V10.9515C3.42664 11.1134 3.49959 11.2593 3.61352 11.3602L3.61452 11.3612C3.68746 11.4611 3.80139 11.5291 3.9333 11.5401Z" fill="rgb(34, 34, 34)" fill-opacity="1.00"/><path d="M5.08125 9.80033L5.08251 9.80126L5.0885 9.76329C5.08605 9.77562 5.08363 9.78797 5.08125 9.80033Z" fill="rgb(34, 34, 34)" fill-opacity="1.00"/><path d="M6.05308 2.29836C6.05283 2.29834 6.05333 2.29838 6.05308 2.29836V2.29836Z" fill="rgb(34, 34, 34)" fill-opacity="1.00"/><path d="M4.31593 0.60126L4.35201 0.608582L4.2151 0.564612C4.24866 0.576914 4.28227 0.589129 4.31593 0.60126Z" fill="rgb(34, 34, 34)" fill-opacity="1.00"/><path fill-rule="evenodd" clip-rule="evenodd" d="M11.9988 6.03981C12.7333 6.19371 13.4068 6.51449 13.9664 6.95318L13.9774 6.96118C15.1536 7.87555 15.9111 9.30457 15.9111 10.9095C15.9111 13.6686 13.6736 15.906 10.9145 15.906C9.09176 15.906 7.49686 14.9297 6.61147 13.4487L6.62346 13.4697C6.52553 13.3118 6.43559 13.1479 6.34165 12.9491L6.35365 12.982C6.2727 12.7862 6.20475 12.5823 6.14179 12.3395C6.12847 12.2962 6.1107 12.2418 6.09294 12.1874C6.0574 12.0786 6.02187 11.9697 6.02187 11.9497V11.8513C5.99711 11.6839 5.98045 11.5134 5.97191 11.3302V10.9454C5.97191 10.5937 6.00788 10.2499 6.07184 9.95112L6.07783 9.91815C6.15178 9.57138 6.26171 9.23662 6.39162 8.95181L6.40461 8.91983C7.17808 7.16204 8.93587 5.93488 10.9795 5.93488C11.3292 5.93488 11.671 5.97086 11.9678 6.03382L11.9988 6.03981ZM7.97053 12.9491L8.96985 13.9484L10.9685 11.9497L12.9671 13.9484L13.9664 12.9491L11.9678 10.9504L13.9664 8.95181L12.9671 7.9525L10.9685 9.95112L8.96985 7.9525L7.97053 8.95181L9.96916 10.9504L7.97053 12.9491Z" fill="rgb(34, 34, 34)" fill-opacity="1.00"/></g><defs><clipPath id="clip0_3_1727"><rect width="16" height="16" fill="rgb(34, 34, 34)"/></clipPath></defs></svg>