<svg width="16" height="16" viewBox="0 0 16 16" fill="rgb(34, 34, 34)" xmlns="http://www.w3.org/2000/svg"><title>paste</title><g clip-path="url(#clip0_3_1485)"><path d="M13 5H7.69C7.309 5 7 5.309 7 5.69V15.31C7 15.691 7.309 16 7.69 16H15.31C15.691 16 16 15.691 16 15.31V8L13 5ZM13 6.41L14.59 8H13V6.41ZM8 15V6H12V9H15V15H8ZM8 0H3V2H8V0ZM10 1H9V3H2V1H1C1 1 0.997 1 0.995 1C0.478 1 0.053 1.392 0 1.896V1.9V13.1C0 13.597 0.403 14 0.9 14H6V4H11V2C10.96 1.464 10.536 1.04 10.004 1H10Z" fill="rgb(34, 34, 34)" fill-opacity="1.00"/></g><defs><clipPath id="clip0_3_1485"><rect width="16" height="16" fill="rgb(34, 34, 34)"/></clipPath></defs></svg>