<!-- Generated by Trend Micro Style Portal -->
<svg version="1.1" xmlns="http://www.w3.org/2000/svg" width="16" height="16" viewBox="0 0 16 16">
  <title>permission</title>
  <path fill="rgb(34,34,34)" d="M6 13.3l-0.7-0.7-0.7 0.8 1.4 1.3 2.3-2.3-0.7-0.8zM5.3 9.6l0.7 0.7 1.6-1.7 0.7 0.8-2.3 2.3-1.4-1.3zM11 11h1.4c0.005 0 0.010 0 0.016 0 1.979 0 3.584-1.605 3.584-3.584 0-1.592-1.038-2.942-2.475-3.409l-0.025-0.007c-0.442-1.723-1.971-2.98-3.798-3l-0.002-0c-0.003-0-0.007-0-0.011-0-1.451 0-2.716 0.799-3.379 1.98l-0.010 0.020h-0.8c-1.696 0.036-3.096 1.264-3.397 2.878l-0.003 0.022c-1.192 0.156-2.103 1.165-2.103 2.387 0 0.040 0.001 0.079 0.003 0.119l-0-0.006c0.040 1.202 0.867 2.2 1.981 2.496l0.019 0.004v5.1h9zM10 15h-7v-8h1v1h5v-1h1zM8 7h-3v-1h3z"></path>
</svg>