<svg width="16" height="16" viewBox="0 0 16 16" fill="rgb(34, 34, 34)" xmlns="http://www.w3.org/2000/svg"><title>permission</title><path d="M12.38 11H11.02V10.99L11 15.99H2V10.9C0.86 10.61 0.01 9.59 0 8.36C0 7.14 0.84 6.12 1.96 5.81H1.98C2.21 4.15 3.62 2.88 5.33 2.88H5.35C5.63 2.88 5.88 2.92 6.14 2.98C6.85 1.79 8.12 1 9.58 1H9.62C11.47 1 13.02 2.26 13.46 3.98V4.01C14.94 4.47 16 5.82 16 7.42C15.98 9.4 14.37 11 12.38 11ZM3 15H10V7H8.98V8H3.98V7H3V15ZM5 7H8V6H5V7ZM6.01 11.36L4.82 10.17L5.18 9.81L6 10.64L7.82 8.8L8.18 9.16L6.01 11.36ZM6.514 13.841L7.66 14.97L8.01 14.61L6.868 13.486L7.99 12.36L7.63 12.01L6.511 13.133L5.37 12.01L5.01 12.36L6.156 13.489L5.01 14.64L5.37 14.99L6.514 13.841Z" fill="rgb(34, 34, 34)" fill-opacity="1.00"/></svg>