<!-- Generated by Trend Micro Style Portal -->
<svg version="1.1" xmlns="http://www.w3.org/2000/svg" width="16" height="16" viewBox="0 0 16 16">
  <title>phishing-2</title>
  <path fill="rgb(34,34,34)" d="M15.43 0h-14.86c-0.32 0-0.57 0.26-0.57 0.59v11.81c0 0.33 0.26 0.59 0.57 0.59h8.15c-0.17-0.48-0.27-1.010-0.27-1.56v-4.46l4.11 3.31v-4.25h3.43v-5.44c0-0.33-0.26-0.59-0.57-0.59zM13.99 2.010l-5.63 4.53c-0.070 0.050-0.15 0.080-0.24 0.080s-0.17-0.030-0.24-0.080l-5.64-4.53s-0.040-0.040-0.040-0.070c0-0.030 0-0.060 0-0.080 0-0.030 0.030-0.050 0.050-0.070s0.050-0.020 0.070-0.020h11.59s0.050 0 0.070 0.020c0.020 0.020 0.040 0.040 0.050 0.070 0 0.030 0 0.050 0 0.080s-0.020 0.050-0.040 0.070zM13.53 13.32c0.13-0.12 0.24-0.27 0.31-0.43s0.11-0.33 0.11-0.51v-4.93h1.37v4.93c0 1.45-1.23 2.63-2.74 2.63s-2.74-1.18-2.74-2.63v-2.96l2.4 2.96h-1.030c0 0.080 0 0.15 0.020 0.23 0.050 0.28 0.19 0.53 0.4 0.72 0.25 0.23 0.58 0.37 0.95 0.37s0.71-0.14 0.95-0.37z"></path>
</svg>