<svg width="16" height="16" viewBox="0 0 16 16" fill="rgb(34, 34, 34)" xmlns="http://www.w3.org/2000/svg"><title>plan-pending</title><path d="M14.5 8H16C16 12.4 12.4 16 8 16C3.6 16 0 12.4 0 8C0 3.6 3.6 0 8 0V1.5C4.4 1.5 1.5 4.4 1.5 8C1.5 11.6 4.4 14.5 8 14.5C11.6 14.5 14.5 11.6 14.5 8ZM10 0C9.4 0 9 0.4 9 1C9 1.6 9.4 2 10 2C10.6 2 11 1.6 11 1C11 0.4 10.6 0 10 0ZM13 2C12.4 2 12 2.4 12 3C12 3.6 12.4 4 13 4C13.6 4 14 3.6 14 3C14 2.4 13.6 2 13 2ZM15 5C14.4 5 14 5.4 14 6C14 6.6 14.4 7 15 7C15.6 7 16 6.6 16 6C16 5.4 15.6 5 15 5Z" fill="rgb(34, 34, 34)" fill-opacity="1.00"/></svg>