<svg width="16" height="16" viewBox="0 0 16 16" fill="rgb(34, 34, 34)" xmlns="http://www.w3.org/2000/svg"><title>print</title><g clip-path="url(#clip0_3_1460)"><path d="M15 6H1C0.448 6 0 6.448 0 7V12H3V15C3 15.552 3.448 16 4 16H12C12.552 16 13 15.552 13 15V12H16V7C16 6.448 15.552 6 15 6ZM12 12V15H4V10H12V12ZM15 8H14V7H15V8ZM13 1C13 0.448 12.552 0 12 0H4C3.448 0 3 0.448 3 1V5H13V1ZM12 4H4V1H12V4Z" fill="rgb(34, 34, 34)" fill-opacity="1.00"/></g><defs><clipPath id="clip0_3_1460"><rect width="16" height="16" fill="rgb(34, 34, 34)"/></clipPath></defs></svg>