<svg width="16" height="16" viewBox="0 0 16 16" fill="rgb(34, 34, 34)" xmlns="http://www.w3.org/2000/svg"><title>puzzle</title><g clip-path="url(#clip0_297_117)"><path d="M16 11V15C16 15.552 15.552 16 15 16H11V14.5C11 13.672 10.328 13 9.5 13C8.672 13 8 13.672 8 14.5V16H4C3.448 16 3 15.552 3 15V11H1.5C0.672 11 0 10.328 0 9.5C0 8.672 0.672 8 1.5 8H3V4C3 3.448 3.448 3 4 3H8V1.5C8 0.672 8.672 0 9.5 0C10.328 0 11 0.672 11 1.5V3H15C15.552 3 16 3.448 16 4V8H14.5C13.672 8 13 8.672 13 9.5C13 10.328 13.672 11 14.5 11H16Z" fill="rgb(34, 34, 34)" fill-opacity="1.00"/></g><defs><clipPath id="clip0_297_117"><rect width="16" height="16" fill="rgb(34, 34, 34)"/></clipPath></defs></svg>