<svg width="16" height="16" viewBox="0 0 16 16" fill="rgb(34, 34, 34)" xmlns="http://www.w3.org/2000/svg"><title>query</title><g clip-path="url(#clip0_3_1458)"><path d="M4.03499 8.02298H9.01999V9.01998H4.03499V8.02298ZM4.03499 7.02598H9.01999V6.02898H4.03499V7.02598ZM16 14.598L14.598 16L10.351 11.753C9.83899 12.129 9.24899 12.443 8.61599 12.667L8.56799 12.682C7.96199 12.889 7.26399 13.009 6.53799 13.009C6.52899 13.009 6.51999 13.009 6.50999 13.009C6.49699 13.009 6.48199 13.009 6.46599 13.009C5.56399 13.009 4.70699 12.82 3.93099 12.479L3.97099 12.495C3.16799 12.146 2.48099 11.679 1.89799 11.107L1.89899 11.108C1.32799 10.525 0.860986 9.83898 0.528986 9.07998L0.511986 9.03598C0.186986 8.30298 -0.00201416 7.44898 -0.00201416 6.54998C-0.00201416 6.53698 -0.00201416 6.52398 -0.00201416 6.51098V6.51298C-0.00201416 6.49998 -0.00201416 6.48398 -0.00201416 6.46798C-0.00201416 5.56598 0.186986 4.70898 0.527986 3.93298L0.511986 3.97298C1.18899 2.41098 2.40899 1.19098 3.92799 0.530977L3.96999 0.514977C4.70499 0.189977 5.56299 0.000976562 6.46399 0.000976562C6.47999 0.000976562 6.49599 0.000976562 6.51099 0.000976562H6.50899C6.51999 0.000976562 6.53299 0.000976562 6.54599 0.000976562C7.44499 0.000976562 8.29999 0.189977 9.07299 0.530977L9.03299 0.514977C9.83299 0.861977 10.516 1.33498 11.089 1.91598L11.09 1.91698C11.672 2.49098 12.145 3.17298 12.476 3.93198L12.492 3.97398C12.817 4.70898 13.006 5.56698 13.006 6.46898C13.006 6.48498 13.006 6.50098 13.006 6.51598V6.51398C13.006 6.52098 13.006 6.52998 13.006 6.53898C13.006 7.26698 12.88 7.96498 12.65 8.61398L12.663 8.57098C12.437 9.24898 12.125 9.83798 11.732 10.363L11.744 10.347L16 14.598ZM11.513 6.52798C11.513 6.52098 11.513 6.51198 11.513 6.50298C11.513 5.80898 11.37 5.14798 11.111 4.54798L11.123 4.57998C10.858 3.96698 10.495 3.44498 10.049 3.00698L10.048 3.00598C9.60999 2.55898 9.08699 2.19598 8.50599 1.94298L8.47499 1.93098C7.89999 1.68498 7.22999 1.54198 6.52799 1.54198C5.82599 1.54198 5.15599 1.68498 4.54699 1.94398L4.57999 1.93098C3.96299 2.19898 3.43599 2.56098 2.99099 3.00598C2.55199 3.44598 2.19499 3.96798 1.94399 4.54698L1.93199 4.57898C1.68599 5.15398 1.54299 5.82398 1.54299 6.52598C1.54299 7.22798 1.68599 7.89798 1.94499 8.50698L1.93199 8.47398C2.19799 9.08998 2.55499 9.61598 2.99199 10.064L2.99099 10.063C3.43799 10.499 3.96399 10.856 4.54699 11.109L4.58099 11.122C5.15599 11.368 5.82599 11.512 6.52799 11.512C7.22999 11.512 7.89999 11.369 8.50899 11.11L8.47599 11.123C9.08699 10.86 9.60899 10.502 10.05 10.064C10.495 9.61898 10.857 9.09198 11.112 8.50698L11.125 8.47398C11.371 7.90698 11.515 7.24598 11.515 6.55198C11.515 6.54298 11.515 6.53398 11.515 6.52598L11.513 6.52798ZM4.03499 5.03198H9.01999V4.03498H4.03499V5.03198Z" fill="rgb(34, 34, 34)" fill-opacity="1.00"/></g><defs><clipPath id="clip0_3_1458"><rect width="16" height="16" fill="rgb(34, 34, 34)"/></clipPath></defs></svg>