<!-- Generated by Trend Micro Style Portal -->
<svg version="1.1" xmlns="http://www.w3.org/2000/svg" width="0" height="0" viewBox="0 0 0 0">
  <title>ransomware-o</title>
  <path fill="rgb(34,34,34)" d="M512 0c-282.77 0-512 229.23-512 512s229.23 512 512 512c282.77 0 512-229.23 512-512v0c0-282.77-229.23-512-512-512v0zM512 928c-229.75 0-416-186.25-416-416s186.25-416 416-416c229.75 0 416 186.25 416 416v0c-0.268 229.643-186.358 415.732-415.975 416h-0.025zM816 600.879c0.043 1.269 0.068 2.762 0.068 4.26 0 35.825-14.047 68.369-36.933 92.425l0.053-0.056c-19.533 19.714-45.565 32.96-74.614 36.256l-0.573 0.053v98.184h-64v-99.043c-28.384-4.182-53.29-16.696-72.761-34.94l0.074 0.069c-24.434-24.84-39.52-58.94-39.52-96.565 0-2.658 0.075-5.299 0.224-7.92l-0.016 0.363h69.289c1.013 16.167 5.805 31.023 13.496 43.954l-0.248-0.45c12.879 16.247 32.614 26.576 54.762 26.576 2.494 0 4.958-0.131 7.385-0.387l-0.303 0.026c1.162 0.044 2.527 0.069 3.898 0.069 13.896 0 27.194-2.56 39.448-7.235l-0.76 0.254c18.403-7.299 31.179-24.947 31.179-45.579 0-1.297-0.051-2.583-0.15-3.855l0.011 0.168c0.029-0.563 0.046-1.223 0.046-1.886 0-12.481-5.944-23.573-15.156-30.6l-0.094-0.068c-13.83-9.003-29.977-15.885-47.275-19.7l-0.969-0.179-37.613-10.082c-28.936-6.119-54.49-17.433-76.855-33.009l0.683 0.45c-21.893-20.69-35.521-49.928-35.521-82.349 0-3.364 0.147-6.693 0.434-9.982l-0.030 0.427c-0.048-1.352-0.076-2.941-0.076-4.536 0-34.727 13.067-66.401 34.552-90.375l-0.113 0.128c18.469-19.383 43.466-32.4 71.452-35.516l0.527-0.048v-98.18h64v100.461c23.255 5.414 43.442 16.276 59.888 31.19l-0.112-0.1c25.46 25.054 41.236 59.883 41.236 98.397 0 1.729-0.032 3.45-0.095 5.163l0.007-0.247h-69.76c0.020-0.6 0.032-1.305 0.032-2.012 0-21.774-11.040-40.97-27.828-52.295l-0.224-0.142c-11.608-6.735-25.542-10.71-40.405-10.71-0.999 0-1.994 0.018-2.985 0.054l0.143-0.004c-1.101-0.061-2.39-0.096-3.687-0.096-15.901 0-30.581 5.228-42.415 14.058l0.187-0.134c-10.542 8.637-17.216 21.657-17.216 36.235 0 0.834 0.022 1.662 0.065 2.485l-0.005-0.115c-0.045 0.69-0.070 1.497-0.070 2.309 0 13.167 6.689 24.772 16.855 31.601l0.137 0.086c13.287 7.389 28.673 13.429 44.894 17.32l1.254 0.254 60.969 17.574c23.257 5.674 43.477 16.393 60.248 30.976l-0.173-0.147c19.401 20.534 31.327 48.309 31.327 78.869 0 2.762-0.097 5.501-0.289 8.215l0.021-0.365zM464.938 514.159c19.403 20.534 31.331 48.311 31.331 78.873 0 2.761-0.097 5.5-0.289 8.212l0.021-0.365c0.043 1.269 0.068 2.762 0.068 4.26 0 35.825-14.047 68.369-36.933 92.425l0.053-0.056c-19.533 19.714-45.565 32.96-74.614 36.256l-0.573 0.053v98.184h-64v-99.043c-28.384-4.182-53.29-16.696-72.761-34.94l0.074 0.069c-24.434-24.84-39.52-58.94-39.52-96.565 0-2.658 0.075-5.299 0.224-7.92l-0.016 0.363h69.289c1.013 16.167 5.805 31.023 13.496 43.954l-0.248-0.45c12.879 16.247 32.614 26.576 54.762 26.576 2.494 0 4.958-0.131 7.385-0.387l-0.303 0.026c1.162 0.044 2.527 0.069 3.898 0.069 13.896 0 27.194-2.56 39.448-7.235l-0.76 0.254c18.403-7.299 31.179-24.947 31.179-45.579 0-1.297-0.051-2.583-0.15-3.855l0.011 0.168c0.029-0.563 0.046-1.223 0.046-1.886 0-12.481-5.944-23.573-15.156-30.6l-0.094-0.068c-13.83-9.003-29.977-15.885-47.275-19.7l-0.969-0.179-37.613-10.082c-28.936-6.119-54.49-17.433-76.855-33.009l0.683 0.45c-21.893-20.69-35.521-49.928-35.521-82.349 0-3.364 0.147-6.693 0.434-9.982l-0.030 0.427c-0.048-1.352-0.076-2.941-0.076-4.536 0-34.727 13.067-66.401 34.552-90.375l-0.113 0.128c18.469-19.383 43.466-32.4 71.452-35.516l0.527-0.048v-98.18h64v100.461c23.255 5.414 43.442 16.276 59.888 31.19l-0.112-0.1c25.459 25.053 41.233 59.882 41.233 98.395 0 1.729-0.032 3.451-0.095 5.165l0.007-0.248h-69.76c0.020-0.599 0.032-1.303 0.032-2.009 0-21.775-11.041-40.971-27.829-52.296l-0.224-0.142c-11.608-6.735-25.542-10.71-40.405-10.71-0.999 0-1.994 0.018-2.985 0.054l0.143-0.004c-1.101-0.061-2.39-0.096-3.687-0.096-15.901 0-30.581 5.228-42.415 14.058l0.187-0.134c-10.542 8.637-17.216 21.657-17.216 36.235 0 0.834 0.022 1.662 0.065 2.485l-0.005-0.115c-0.045 0.69-0.070 1.497-0.070 2.309 0 13.167 6.689 24.772 16.855 31.601l0.137 0.086c13.287 7.389 28.673 13.429 44.894 17.32l1.254 0.254 60.969 17.574c23.258 5.673 43.477 16.392 60.248 30.974l-0.174-0.148z"></path>
</svg>