<svg width="16" height="16" viewBox="0 0 16 16" fill="rgb(34, 34, 34)" xmlns="http://www.w3.org/2000/svg"><title>ransomware</title><g clip-path="url(#clip0_106_3955)"><path d="M15.38 4.89C14.96 3.91 14.39 3.06 13.66 2.34C12.94 1.61 12.09 1.04 11.11 0.62C10.14 0.2 9.10001 0 8.00001 0C6.90001 0 5.86001 0.21 4.89001 0.62C3.91001 1.04 3.06001 1.61 2.33001 2.34C1.60001 3.07 1.04001 3.91 0.63001 4.89C0.21001 5.86 0.0100098 6.9 0.0100098 8C0.0100098 9.1 0.22001 10.14 0.63001 11.11C1.05001 12.09 1.61001 12.94 2.33001 13.67C3.06001 14.39 3.91001 14.96 4.89001 15.37C5.86001 15.79 6.90001 15.99 8.00001 15.99C9.10001 15.99 10.14 15.78 11.11 15.37C12.09 14.95 12.94 14.39 13.66 13.67C14.39 12.94 14.96 12.09 15.38 11.11C15.8 10.14 16 9.1 16 8C16 6.9 15.79 5.86 15.38 4.89ZM7.76001 9.33V9.45C7.76001 9.73 7.71001 10 7.60001 10.25C7.49001 10.5 7.36001 10.72 7.18001 10.91C7.03001 11.06 6.86001 11.18 6.65001 11.29C6.45001 11.38 6.24001 11.45 6.03001 11.48H6.01001V13.01H5.01001V11.46C4.79001 11.43 4.58001 11.37 4.39001 11.27C4.20001 11.18 4.03001 11.06 3.87001 10.91C3.68001 10.71 3.53001 10.49 3.42001 10.24C3.32001 9.98 3.26001 9.7 3.26001 9.41V9.29H4.34001C4.35001 9.41 4.37001 9.53 4.40001 9.65C4.44001 9.76 4.49001 9.87 4.56001 9.98V9.96C4.65001 10.1 4.77001 10.2 4.92001 10.27C5.08001 10.34 5.24001 10.38 5.40001 10.38H5.57001C5.68001 10.38 5.79001 10.37 5.90001 10.35C6.00001 10.33 6.10001 10.3 6.20001 10.27H6.18001C6.33001 10.21 6.44001 10.11 6.52001 9.99C6.61001 9.87 6.66001 9.72 6.66001 9.55V9.47C6.66001 9.37 6.64001 9.27 6.60001 9.19C6.56001 9.11 6.50001 9.04 6.43001 8.99C6.32001 8.92 6.20001 8.85 6.07001 8.8C5.96001 8.75 5.83001 8.71 5.69001 8.68H5.67001L5.08001 8.52C4.85001 8.47 4.64001 8.4 4.44001 8.32C4.24001 8.24 4.05001 8.13 3.88001 8.01H3.90001C3.72001 7.85 3.58001 7.67 3.48001 7.45C3.39001 7.22 3.34001 6.98 3.34001 6.73V6.67C3.34001 6.67 3.34001 6.61 3.36001 6.58V6.52C3.36001 6.25 3.41001 5.99 3.50001 5.75C3.59001 5.51 3.72001 5.3 3.89001 5.11C4.04001 4.95 4.20001 4.83 4.39001 4.73C4.58001 4.63 4.78001 4.57 5.00001 4.54H5.02001V3.01H6.02001V4.57C6.20001 4.62 6.36001 4.69 6.52001 4.77C6.69001 4.84 6.83001 4.94 6.96001 5.07C7.16001 5.26 7.31001 5.49 7.43001 5.76C7.54001 6.02 7.60001 6.3 7.60001 6.6V6.68H6.51001V6.65C6.51001 6.48 6.47001 6.33 6.39001 6.18C6.32001 6.03 6.21001 5.92 6.08001 5.84V5.82C5.99001 5.77 5.89001 5.73 5.78001 5.71C5.68001 5.68 5.57001 5.66 5.45001 5.66H5.34001C5.22001 5.66 5.10001 5.68 4.98001 5.72C4.88001 5.75 4.78001 5.8 4.68001 5.88C4.60001 5.94 4.53001 6.03 4.48001 6.13C4.44001 6.22 4.42001 6.33 4.42001 6.44V6.5C4.42001 6.6 4.44001 6.7 4.48001 6.8C4.53001 6.88 4.60001 6.95 4.68001 7C4.78001 7.06 4.89001 7.12 5.01001 7.17C5.12001 7.21 5.25001 7.25 5.39001 7.28H5.41001L6.36001 7.55C6.54001 7.6 6.70001 7.67 6.86001 7.75C7.03001 7.82 7.17001 7.92 7.30001 8.03C7.45001 8.2 7.56001 8.38 7.64001 8.59C7.73001 8.8 7.78001 9.02 7.78001 9.26V9.32L7.76001 9.33ZM12.76 9.33V9.45C12.76 9.73 12.71 10 12.6 10.25C12.5 10.5 12.36 10.72 12.18 10.91C12.03 11.06 11.86 11.18 11.65 11.29C11.45 11.38 11.24 11.45 11.03 11.48H11.01V13.01H10.01V11.46C9.79001 11.43 9.58001 11.37 9.39001 11.27C9.20001 11.18 9.03001 11.06 8.87001 10.91C8.68001 10.71 8.53001 10.49 8.42001 10.24C8.32001 9.98 8.26001 9.7 8.26001 9.41V9.29H9.34001C9.35001 9.41 9.37001 9.53 9.40001 9.65C9.44001 9.76 9.49001 9.87 9.56001 9.98V9.96C9.65001 10.1 9.77001 10.2 9.92001 10.27C10.08 10.34 10.24 10.38 10.4 10.38H10.57C10.68 10.38 10.79 10.37 10.9 10.35C11 10.33 11.1 10.3 11.2 10.27H11.18C11.33 10.21 11.44 10.11 11.52 9.99C11.61 9.87 11.66 9.72 11.66 9.55V9.47C11.66 9.37 11.64 9.27 11.6 9.19C11.56 9.11 11.5 9.04 11.43 8.99C11.32 8.92 11.2 8.85 11.07 8.8C10.96 8.75 10.83 8.71 10.69 8.68H10.67L10.08 8.52C9.85001 8.47 9.64001 8.4 9.44001 8.32C9.24001 8.24 9.05001 8.13 8.88001 8.01H8.90001C8.72001 7.85 8.58001 7.67 8.48001 7.45C8.39001 7.22 8.34001 6.98 8.34001 6.73V6.67C8.34001 6.67 8.34001 6.61 8.36001 6.58V6.52C8.36001 6.25 8.41001 5.99 8.50001 5.75C8.59001 5.51 8.72001 5.3 8.89001 5.11C9.04001 4.95 9.20001 4.83 9.39001 4.73C9.58001 4.63 9.78001 4.57 10 4.54H10.02V3.01H11.02V4.57C11.2 4.62 11.36 4.69 11.52 4.77C11.69 4.84 11.83 4.94 11.96 5.07C12.16 5.26 12.31 5.49 12.43 5.76C12.54 6.02 12.6 6.3 12.6 6.6V6.68H11.51V6.65C11.51 6.48 11.47 6.33 11.39 6.18C11.32 6.03 11.21 5.92 11.08 5.84V5.82C10.99 5.77 10.89 5.73 10.78 5.71C10.68 5.68 10.57 5.66 10.45 5.66H10.34C10.22 5.66 10.1 5.68 9.98001 5.72C9.88001 5.75 9.78001 5.8 9.68001 5.88C9.60001 5.94 9.53001 6.03 9.48001 6.13C9.44001 6.22 9.42001 6.33 9.42001 6.44V6.5C9.42001 6.6 9.44001 6.7 9.48001 6.8C9.53001 6.88 9.60001 6.95 9.68001 7C9.78001 7.06 9.89001 7.12 10.01 7.17C10.12 7.21 10.25 7.25 10.39 7.28H10.41L11.36 7.55C11.54 7.6 11.7 7.67 11.86 7.75C12.03 7.82 12.17 7.92 12.3 8.03C12.45 8.2 12.56 8.38 12.64 8.59C12.73 8.8 12.78 9.02 12.78 9.26V9.32L12.76 9.33Z" fill="rgb(34, 34, 34)" fill-opacity="1.00"/></g><defs><clipPath id="clip0_106_3955"><rect width="16" height="16" fill="rgb(34, 34, 34)"/></clipPath></defs></svg>