<!-- Generated by Trend Micro Style Portal -->
<svg version="1.1" xmlns="http://www.w3.org/2000/svg" width="16" height="16" viewBox="0 0 16 16">
  <title>rca</title>
  <path fill="rgb(34,34,34)" d="M6 9h-2.1c-0.2 0.9-1 1.5-1.9 1.5-1.1 0-2-0.9-2-2s0.9-2 2-2c0.9 0 1.7 0.6 1.9 1.5h2.1zM11 4.5c2.2 0 4 1.8 4 4s-1.8 4-4 4-4-1.8-4-4c0-2.2 1.8-4 4-4zM11 3.5c-2.8 0-5 2.2-5 5s2.2 5 5 5 5-2.2 5-5-2.2-5-5-5zM11 10.5c1.1 0 2-0.9 2-2s-0.9-2-2-2-2 0.9-2 2 0.9 2 2 2zM11 6.5c1.1 0 2 0.9 2 2s-0.9 2-2 2-2-0.9-2-2 0.9-2 2-2zM11 6c-1.4 0-2.5 1.1-2.5 2.5s1.1 2.5 2.5 2.5 2.5-1.1 2.5-2.5c0-1.4-1.1-2.5-2.5-2.5z"></path>
</svg>