<svg width="16" height="16" viewBox="0 0 16 16" fill="rgb(34, 34, 34)" xmlns="http://www.w3.org/2000/svg"><title>redo</title><path d="M10.0022 6.99741L11.9959 5.00326C11.0755 3.78878 9.63245 3.01211 8.00849 3.01211C5.25227 3.01211 3.0187 5.24616 3.0187 8.00298C3.0187 10.7598 5.25227 12.9938 8.00849 12.9938C9.84631 12.9938 11.4523 11.9993 12.3187 10.5199L12.3317 10.4959L14.0626 11.4955C12.8304 13.6056 10.5778 15.001 7.9985 15.001C4.13398 15.001 1 11.8673 1 8.00098C1 4.13463 4.13299 1.00098 7.9985 1.00098C10.1801 1.00098 12.1288 1.99955 13.412 3.56488L13.422 3.57687L15 1.99855V6.99641L10.0022 6.99741Z" fill="rgb(34, 34, 34)" fill-opacity="1.00"/></svg>