<svg width="16" height="16" viewBox="0 0 16 16" fill="rgb(34, 34, 34)" xmlns="http://www.w3.org/2000/svg"><title>rocket</title><path d="M1.5 14.5C1.5 14.5 0.8 13.7 2.2 11C2.2 11 0 12 0 16C4 16 5 13.8 5 13.8C2.2 15.2 1.5 14.5 1.5 14.5ZM8.2 2.8L8 3C6.976 4.186 5.989 5.491 5.088 6.858L5 7H2L0.8 8.3L3.5 10V11.1L4.9 12.5H6L7.7 15.3L9 14V11C10.509 10.011 11.814 9.024 13.049 7.959L13 8V7.9L13.1 7.8C16 5 16 0 16 0C16 0 11 0 8.2 2.8ZM12 6C10.895 6 10 5.105 10 4C10 2.895 10.895 2 12 2C13.105 2 14 2.895 14 4C13.997 5.103 13.103 5.997 12 6Z" fill="rgb(34, 34, 34)" fill-opacity="1.00"/></svg>