<svg width="16" height="16" viewBox="0 0 16 16" fill="rgb(34, 34, 34)" xmlns="http://www.w3.org/2000/svg"><title>router</title><path d="M7.99998 1C9.45598 1.017 10.723 1.808 11.41 2.981L11.42 3L12.27 2.49C11.377 1.042 9.79998 0.0910034 7.99998 0.0910034C6.19998 0.0910034 4.62298 1.042 3.74198 2.468L3.72998 2.49L4.57998 3C5.27698 1.808 6.54398 1.017 7.99798 1H7.99998Z" fill="rgb(34, 34, 34)" fill-opacity="1.00"/><path fill-rule="evenodd" clip-rule="evenodd" d="M14 9H15C15.552 9 16 9.448 16 10V14C16 14.552 15.552 15 15 15H1C0.448 15 0 14.552 0 14V10C0 9.448 0.448 9 1 9H2V3H3L5 9H11L13 3H14V9ZM3 12C3 12.552 3.448 13 4 13C4.552 13 5 12.552 5 12C5 11.448 4.552 11 4 11C3.448 11 3 11.448 3 12ZM6 12C6 12.552 6.448 13 7 13C7.552 13 8 12.552 8 12C8 11.448 7.552 11 7 11C6.448 11 6 11.448 6 12ZM9 12C9 12.552 9.448 13 10 13C10.552 13 11 12.552 11 12C11 11.448 10.552 11 10 11C9.448 11 9 11.448 9 12ZM12 12C12 12.552 12.448 13 13 13C13.552 13 14 12.552 14 12C14 11.448 13.552 11 13 11C12.448 11 12 11.448 12 12Z" fill="rgb(34, 34, 34)" fill-opacity="1.00"/><path d="M8 6C8.552 6 9 5.552 9 5C9 4.448 8.552 4 8 4C7.448 4 7 4.448 7 5C7 5.552 7.448 6 8 6Z" fill="rgb(34, 34, 34)" fill-opacity="1.00"/><path d="M10.5599 3.48001L9.70994 4.00001L9.70494 3.99101C9.35294 3.41901 8.72094 3.03701 7.99994 3.03701C7.27894 3.03701 6.64694 3.41901 6.28994 4.00001L5.43994 3.48001L5.44694 3.46701C5.97594 2.61301 6.92194 2.04401 7.99994 2.04401C9.07794 2.04401 10.0239 2.61301 10.5599 3.48001Z" fill="rgb(34, 34, 34)" fill-opacity="1.00"/></svg>