<svg width="16" height="16" viewBox="0 0 16 16" fill="rgb(34, 34, 34)" xmlns="http://www.w3.org/2000/svg"><title>scan-square</title><path d="M2 5H1V2.5C1 1.672 1.672 1 2.5 1H5V2H2.5C2.224 2 2 2.224 2 2.5V5ZM2 13.5V11H1V13.5C1 14.328 1.672 15 2.5 15H5V14H2.5C2.224 14 2 13.776 2 13.5ZM14 2.5V5H15V2.5C15 1.672 14.328 1 13.5 1H11V2H13.5C13.776 2 14 2.224 14 2.5ZM14 13.5C14 13.776 13.776 14 13.5 14H11V15H13.5C14.328 15 15 14.328 15 13.5V11H14V13.5ZM0 7V9H16V7H0Z" fill="rgb(34, 34, 34)" fill-opacity="1.00"/></svg>