<svg width="16" height="16" viewBox="0 0 16 16" fill="rgb(34, 34, 34)" xmlns="http://www.w3.org/2000/svg"><title>search-o</title><g clip-path="url(#clip0_3_1660)"><path d="M16 14.5936L11.7509 10.3445C12.5359 9.28321 13.0067 7.94763 13.0067 6.50334C13.0067 2.91154 10.0951 0 6.50333 0C2.91154 0 0 2.91154 0 6.50334C0 10.0951 2.91154 13.0067 6.50333 13.0067C7.94863 13.0067 9.28321 12.5359 10.3624 11.7389L10.3445 11.7519L14.5936 16.001L16 14.5936ZM6.52428 11.5115C3.77034 11.5115 1.53706 9.27822 1.53706 6.52428C1.53706 3.77034 3.77034 1.53706 6.52428 1.53706C9.27822 1.53706 11.5115 3.77034 11.5115 6.52428C11.5115 9.27822 9.27822 11.5115 6.52428 11.5115Z" fill="rgb(34, 34, 34)" fill-opacity="1.00"/></g><defs><clipPath id="clip0_3_1660"><rect width="16" height="16" fill="rgb(34, 34, 34)"/></clipPath></defs></svg>