<svg width="17" height="17" viewBox="0 0 17 17" fill="rgb(34, 34, 34)" xmlns="http://www.w3.org/2000/svg"><title>search-o</title><path d="M17 15.59L12.74 11.33C13.527 10.266 13.999 8.92701 13.999 7.47901C13.999 3.87801 11.08 0.959015 7.479 0.959015C3.878 0.959015 0.959 3.87801 0.959 7.47901C0.959 11.08 3.878 13.999 7.479 13.999C8.928 13.999 10.266 13.527 11.348 12.728L11.33 12.741L15.59 17.001L17 15.59ZM7.5 12.5C4.739 12.5 2.5 10.261 2.5 7.50001C2.5 4.73901 4.739 2.50001 7.5 2.50001C10.261 2.50001 12.5 4.73901 12.5 7.50001C12.5 10.261 10.261 12.5 7.5 12.5Z" fill="rgb(34, 34, 34)" fill-opacity="1.00"/></svg>