<svg width="16" height="16" viewBox="0 0 16 16" fill="rgb(34, 34, 34)" xmlns="http://www.w3.org/2000/svg"><title>self-service</title><path d="M16 0H4C1.8 0 0 1.8 0 4V16L3 14C3 14 3.5 14 4 14H12C14.2 14 16 12.2 16 10V0ZM9 12H7V10H9V12ZM11.1 4.6C11.1 5.1 10.9 5.5 10.6 5.8C10.1 6.2 9 7.1 9 8V9H7V8C7 7.2 8 6.2 8 6.2C8.4 5.8 8.8 5.5 9.2 5.1C9.3 4.9 9.4 4.7 9.4 4.5C9.4 4.2 9.4 3.3 8 3.3C6.6 3.3 6.6 4.1 6.5 4.6H5C5 3.9 5.3 3.2 5.8 2.8C6.4 2.3 7.1 2 7.8 2C7.9 2 8 2 8 2C8.1 2 8.1 2 8.2 2C9 2 9.7 2.3 10.3 2.7C10.8 3.2 11.1 3.8 11.1 4.6Z" fill="rgb(34, 34, 34)" fill-opacity="1.00"/></svg>