<svg width="16" height="16" viewBox="0 0 16 16" fill="rgb(34, 34, 34)" xmlns="http://www.w3.org/2000/svg"><title>server-update</title><path d="M11 6C8.239 6 6 8.239 6 11C6 13.761 8.239 16 11 16C13.761 16 16 13.761 16 11C16 8.239 13.761 6 11 6ZM11 14L8 11H10V8H12V11H14L11 14ZM14 0H0V3H14V0ZM5 2H2V1H5V2ZM0 8V11H5C5.002 9.895 5.303 8.86 5.825 7.972L5.81 8H0ZM2 10V9H4V10H2ZM11 5C12.105 5.002 13.14 5.303 14.028 5.825L14 5.81V4H0V7H6.54C7.641 5.773 9.23 5.004 10.999 5H11ZM2 6V5H5V6H2Z" fill="rgb(34, 34, 34)" fill-opacity="1.00"/></svg>