<svg width="16" height="16" viewBox="0 0 16 16" fill="rgb(34, 34, 34)" xmlns="http://www.w3.org/2000/svg"><title>share-o</title><path d="M12.5 10C11.571 10.001 10.761 10.507 10.33 11.259L10.324 11.271L5.87299 9.28605C5.95399 9.05105 6.00099 8.78005 6.00099 8.49905C6.00099 8.15705 5.93199 7.83105 5.80699 7.53405L5.81299 7.55005L10.481 4.97105C10.941 5.59605 11.673 5.99605 12.499 5.99605C13.879 5.99605 14.998 4.87705 14.998 3.49705C14.998 2.11705 13.879 0.998047 12.499 0.998047C11.119 0.998047 9.99999 2.11705 9.99999 3.49705C9.99999 3.69605 10.023 3.89005 10.067 4.07605L10.064 4.05905L5.25199 6.71805C4.80099 6.27405 4.18099 5.99905 3.49799 5.99905C2.11699 5.99905 0.997986 7.11805 0.997986 8.49905C0.997986 9.88005 2.11699 10.999 3.49799 10.999C4.24199 10.999 4.90899 10.674 5.36699 10.159L5.36899 10.156L10.015 12.227C10.006 12.308 9.99999 12.403 9.99999 12.498C9.99999 13.879 11.119 14.998 12.5 14.998C13.881 14.998 15 13.879 15 12.498C15 11.117 13.881 9.99805 12.5 9.99805V10ZM12.5 2.00005C13.328 2.00005 14 2.67205 14 3.50005C14 4.32805 13.328 5.00005 12.5 5.00005C11.672 5.00005 11 4.32805 11 3.50005C11.001 2.67205 11.672 2.00105 12.5 2.00005ZM3.49999 10C2.67199 10 1.99999 9.32805 1.99999 8.50005C1.99999 7.67205 2.67199 7.00005 3.49999 7.00005C4.32799 7.00005 4.99999 7.67205 4.99999 8.50005C4.99899 9.32805 4.32799 9.99905 3.49999 10ZM12.5 14C11.672 14 11 13.328 11 12.5C11 11.672 11.672 11 12.5 11C13.328 11 14 11.672 14 12.5C13.999 13.328 13.328 13.999 12.5 14Z" fill="rgb(34, 34, 34)" fill-opacity="1.00"/></svg>