<svg width="16" height="16" viewBox="0 0 16 16" fill="rgb(34, 34, 34)" xmlns="http://www.w3.org/2000/svg"><title>sherlock</title><path d="M14.4713 13.111C13.7899 12.715 13.2384 12.163 12.8537 11.502L12.8427 11.481C12.526 10.922 12.3292 10.257 12.3032 9.549V9.541C12.3472 8.827 12.572 8.173 12.9327 7.615L12.9227 7.631C13.4023 6.821 14.1316 7.421 14.7711 7.341C15.7103 7.231 14.871 6.531 14.2815 5.701C13.692 4.871 14.2815 3.841 13.8619 2.611C13.5441 1.699 12.8368 0.995 11.9455 0.688L11.9235 0.682C11.9235 0.422 11.9235 0.062 11.5838 0.002C11.5669 2.32831e-10 11.5479 0 11.5279 0C11.2681 0 11.0433 0.15 10.9364 0.369L10.9344 0.373L10.6147 0.303C10.274 0.204 9.88332 0.146 9.47867 0.146C8.27272 0.146 7.18566 0.655 6.42033 1.471L6.41833 1.473C5.93775 2.053 5.51412 2.711 5.17441 3.416L5.14943 3.473C4.86968 3.993 2.78149 4.333 3.01129 4.643C3.24109 4.953 5.08949 4.813 5.33927 4.843C5.58905 4.873 5.51911 5.103 5.47915 5.343C5.43918 5.583 5.00956 5.853 4.74978 6.133C4.5 6.485 4.30217 6.894 4.17728 7.335L4.17029 7.363C4.09035 7.633 4.28019 7.663 4.41008 7.663C4.53996 7.663 5.03953 7.523 5.16942 7.663C5.21138 7.718 5.23636 7.787 5.23636 7.862C5.23636 7.909 5.22637 7.954 5.20838 7.995L5.20938 7.993C4.89965 7.993 4.21025 8.073 4.00043 8.453C3.66473 9.143 3.32902 9.984 3.05126 10.85L3.01129 10.993C2.79148 11.623 2.51173 11.703 2.28193 11.683C2.05213 11.663 1.92224 11.293 2.05213 10.743C2.18201 10.193 1.66247 9.993 1.01303 9.993C0.363595 9.993 -0.0860138 10.113 0.0138994 10.783C0.113812 11.453 0.32363 12.703 1.01303 12.993C1.30278 13.145 1.64348 13.246 2.00417 13.273L2.01216 13.274C2.09309 13.287 2.18701 13.294 2.28293 13.294C3.09822 13.294 3.78662 12.751 4.00743 12.006L4.01042 11.993C4.01042 11.993 4.54995 9.363 5.00956 8.993C5.00956 9.153 5.21937 9.323 5.25934 9.693C5.2993 10.063 4.8397 10.603 5.35925 10.963C5.8788 11.323 6.05864 10.993 7.00782 10.993C7.72719 10.993 7.7172 11.243 7.7172 11.243C7.63827 12.255 7.38549 13.189 6.98684 14.043L7.00782 13.993C5.94874 14.453 6.00869 14.993 6.00869 14.993H16C15.6543 14.227 15.1328 13.592 14.4843 13.122L14.4713 13.113V13.111Z" fill="rgb(34, 34, 34)" fill-opacity="1.00"/></svg>