<svg width="16" height="16" viewBox="0 0 16 16" fill="rgb(34, 34, 34)" xmlns="http://www.w3.org/2000/svg"><title>slider</title><path d="M7 2V1.75C6.999 1.336 6.664 1.001 6.25 1H3.75C3.336 1.001 3.001 1.336 3 1.75V2H0V4H3V4.25C3.001 4.664 3.336 4.999 3.75 5H6.25C6.664 4.998 6.998 4.664 7 4.25V4H16V2H7ZM4 4V2H6V4H4ZM13 6.75C12.998 6.336 12.664 6.002 12.25 6H9.75C9.336 6.002 9.002 6.336 9 6.75V7H0V9H9V9.25C9.002 9.664 9.336 9.998 9.75 10H12.25C12.664 9.998 12.998 9.664 13 9.25V9H16V7H13V6.75ZM10 9V7H12V9H10ZM7 11.75C6.998 11.336 6.664 11.002 6.25 11H3.75C3.336 11.001 3.001 11.336 3 11.75V12H0V14H3V14.25C3.001 14.664 3.336 14.999 3.75 15H6.25C6.664 14.998 6.998 14.664 7 14.25V14H16V12H7V11.75ZM4 14V12H6V14H4Z" fill="rgb(34, 34, 34)" fill-opacity="1.00"/></svg>