<svg width="16" height="16" viewBox="0 0 16 16" fill="rgb(34, 34, 34)" xmlns="http://www.w3.org/2000/svg"><title>spam-warning</title><g clip-path="url(#clip0_106_3958)"><path d="M14.98 0H1.02C0.46 0 0 0.46 0 1.02V12.99C0 13.55 0.46 14.01 1.02 14.01H7.42C7.15 13.4 7 12.72 7 12.01C7 9.25 9.24 7.01 12 7.01C13.64 7.01 15.09 7.81 16 9.04V1.02C16 0.46 15.54 0 14.98 0ZM7.94 6.75L2 2.25H14L7.94 6.75ZM12 8C9.79 8 8 9.79 8 12C8 14.21 9.79 16 12 16C14.21 16 16 14.21 16 12C16 9.79 14.21 8 12 8ZM13 14.5H11V13.5H13V14.5ZM13 12.5H11V9.5H13V12.5Z" fill="rgb(34, 34, 34)" fill-opacity="1.00"/></g><defs><clipPath id="clip0_106_3958"><rect width="16" height="16" fill="rgb(34, 34, 34)"/></clipPath></defs></svg>