<!-- Generated by Trend Micro Style Portal -->
<svg version="1.1" xmlns="http://www.w3.org/2000/svg" width="16" height="16" viewBox="0 0 16 16">
  <title>spam-warnimg</title>
  <path fill="rgb(34,34,34)" d="M0.57 0h14.86c0.32 0 0.57 0.26 0.57 0.59v6.63c-1-1.060-2.42-1.73-4-1.73-3.040 0-5.5 2.46-5.5 5.5 0 0.7 0.13 1.37 0.37 1.99h-6.3c-0.32 0-0.57-0.26-0.57-0.59v-11.8c0-0.33 0.26-0.59 0.57-0.59zM8.35 6.54l5.63-4.53s0.040-0.040 0.040-0.070c0-0.030 0-0.060 0-0.080 0-0.030-0.030-0.050-0.050-0.070s-0.050-0.020-0.070-0.020h-11.58s-0.050 0-0.070 0.020c-0.020 0.020-0.040 0.040-0.050 0.070 0 0.030 0 0.050 0 0.080s0.020 0.050 0.040 0.070l5.64 4.53c0.070 0.050 0.15 0.080 0.24 0.080s0.17-0.030 0.24-0.080zM16 11c0 2.21-1.79 4-4 4s-4-1.79-4-4 1.79-4 4-4 4 1.79 4 4zM11.33 11.5v-4h1.33v4h-1.33zM11.33 14.17v-1.33h1.33v1.33h-1.33z"></path>
</svg>