<!-- Generated by Trend Micro Style Portal -->
<svg version="1.1" xmlns="http://www.w3.org/2000/svg" width="0" height="0" viewBox="0 0 0 0">
  <title>spam-o</title>
  <path fill="rgb(34,34,34)" d="M960 128h-896c-35.302 0.109-63.891 28.698-64 63.99v640.010c0.109 35.302 28.698 63.891 63.99 64h896.010c35.302-0.109 63.891-28.698 64-63.99v-640.010c-0.109-35.302-28.698-63.891-63.99-64h-0.010zM306.953 509.258l205.047 102.524 205.047-102.524 215.16 322.742h-840.413zM64 758.312v-370.531l185.266 92.633zM774.734 480.414l185.266-92.633v370.531zM256 192h704v124.219l-448 224-448-224v-124.219z"></path>
</svg>