<!-- Generated by Trend Micro Style Portal -->
<svg version="1.1" xmlns="http://www.w3.org/2000/svg" width="16" height="16" viewBox="0 0 16 16">
  <title>spam</title>
  <path fill="rgb(34,34,34)" d="M15.43 0h-14.86c-0.32 0-0.57 0.26-0.57 0.59v12.82c0 0.33 0.26 0.59 0.57 0.59h14.86c0.32 0 0.57-0.26 0.57-0.59v-12.82c0-0.33-0.26-0.59-0.57-0.59zM13.99 2.010l-5.63 4.53c-0.070 0.050-0.15 0.080-0.24 0.080s-0.17-0.030-0.24-0.080l-5.64-4.53s-0.040-0.040-0.040-0.070c0-0.030 0-0.060 0-0.080 0-0.030 0.030-0.050 0.050-0.070s0.050-0.020 0.070-0.020h11.59s0.050 0 0.070 0.020c0.020 0.020 0.040 0.040 0.050 0.070 0 0.030 0 0.050 0 0.080s-0.020 0.050-0.040 0.070z"></path>
</svg>