<!-- Generated by Trend Micro Style Portal -->
<svg version="1.1" xmlns="http://www.w3.org/2000/svg" width="0" height="0" viewBox="0 0 0 0">
  <title>spyware</title>
  <path fill="rgb(34,34,34)" d="M160.46 384h96v118.664c0 0.001 0 0.001 0 0.002 0 75.847 61.485 137.333 137.332 137.334h237.336c75.847-0.002 137.332-61.488 137.332-137.334 0-0.001 0-0.001 0-0.002v0-118.664h96c17.673 0 32-14.327 32-32s-14.327-32-32-32v0l-97.996-17.816c-12.535-107.801-43.965-302.184-107.572-302.184-87.866 0-98.56 116.277-146.432 116.672-47.879-0.395-58.566-116.672-146.432-116.672-63.607 0-95.040 194.383-107.572 302.184l-97.996 17.816c-17.673 0-32 14.327-32 32s14.327 32 32 32v0zM561.909 547.859l116.271-81.281c2.285-1.76 5.187-2.82 8.338-2.82 5.581 0 10.385 3.329 12.534 8.109l0.035 0.087c1.025 2.229 1.992 4.905 2.744 7.669l0.087 0.377c1.659 5.347 2.615 11.494 2.615 17.864 0 14.838-5.185 28.465-13.843 39.167l0.092-0.118c-41.121 50.785-126.481 25.326-126.481 25.326-8.852-2.63-9.933-9.115-2.392-14.381zM323.003 480c0.84-3.14 1.808-5.814 2.97-8.381l-0.137 0.338c2.184-4.867 6.988-8.196 12.569-8.196 3.15 0 6.053 1.061 8.37 2.844l-0.032-0.024 116.269 81.278c7.539 5.266 6.464 11.75-2.394 14.383 0 0-85.359 25.457-126.481-25.328-8.564-10.585-13.749-24.211-13.749-39.048 0-6.371 0.956-12.519 2.732-18.308l-0.117 0.442zM770.355 865.941c9.42-42.889 22.372-80.547 39.038-116.118l-1.413 3.356c59.101-136.621 0-136.621-59.105-68.312s-172.414 147.133-236.414 147.133-177.313-78.82-236.416-147.136-118.208-68.308-59.105 68.312c15.253 32.216 28.205 69.874 36.944 109.119l0.681 3.643c-151.983 41.164-254.104 110.879-254.104 158.062h1024c0-47.183-102.121-116.899-254.106-158.059z"></path>
</svg>