<svg width="16" height="16" viewBox="0 0 16 16" fill="rgb(34, 34, 34)" xmlns="http://www.w3.org/2000/svg"><title>subnet</title><g clip-path="url(#clip0_281_987)"><path d="M11 14H16V15H11V16H5.00002V15H2.34375e-05V14H5.00002V13H7.00002V11H9.00002V13H11V14Z" fill="rgb(34, 34, 34)" fill-opacity="1.00"/><path d="M9.62402 1C10.979 1 12.155 1.916 12.483 3.229L12.609 3.798L13.166 3.969C14.26 4.304 14.997 5.289 15 6.407C14.984 7.837 13.809 9.001 12.348 9.001H2.66602C1.75702 9.001 1.01102 8.262 1.00202 7.353L1.00102 7.294C1.03802 6.584 1.52802 5.97 2.18502 5.793L2.87202 5.648L2.96902 4.953C3.13402 3.776 4.14902 2.888 5.35102 2.888C5.54702 2.888 5.71202 2.907 5.88602 2.951L6.61002 3.132L6.99002 2.49C7.54102 1.557 8.50902 1 9.58802 1H9.62402ZM9.62402 0H9.57902C8.11502 0 6.83502 0.788 6.13002 1.981C5.87402 1.917 5.62802 1.888 5.35202 1.888H5.33102C3.62402 1.888 2.21202 3.153 1.97902 4.814L1.96002 4.818C0.836024 5.12 0.00702344 6.143 -0.000976562 7.361L0.00202344 7.362C0.0160234 8.821 1.20302 10 2.66602 10H12.379C14.365 10 15.977 8.401 15.999 6.417C15.995 4.817 14.937 3.465 13.458 3.012L13.452 2.985C13.022 1.27 11.471 0 9.62402 0Z" fill="rgb(34, 34, 34)" fill-opacity="1.00"/></g><defs><clipPath id="clip0_281_987"><rect width="16" height="16" fill="rgb(34, 34, 34)"/></clipPath></defs></svg>