<svg width="16" height="17" viewBox="0 0 16 17" fill="rgb(34, 34, 34)" xmlns="http://www.w3.org/2000/svg"><title>sweeping</title><path d="M15.2 4.43C15.334 4.343 15.423 4.198 15.43 4.031C15.43 4.031 15.43 4.029 15.43 4.028C15.43 3.964 15.419 3.903 15.399 3.846L15.4 3.85C15.2 3.55 14.9 3.45 14.7 3.65C13.25 1.452 10.792 0.0220032 8 0.0220032C3.582 0.0220032 0 3.604 0 8.022C0 12.44 3.582 16.022 8 16.022C12.415 16.022 15.995 12.445 16 8.031C15.997 6.704 15.693 5.449 15.153 4.33L15.175 4.381V4.431L15.2 4.43ZM8 15.03C4.134 15.03 1 11.896 1 8.03C1.009 4.171 4.14 1.046 8 1.046C10.394 1.046 12.507 2.248 13.77 4.081L13.785 4.105L12.885 4.605C11.806 3.042 10.024 2.03 8.006 2.03C8.004 2.03 8.002 2.03 8 2.03C5.681 2.061 3.672 3.359 2.631 5.263L2.615 5.295V5.33C3.5 3.73 6 3.03 8 3.03H8.03C8.035 3.03 8.041 3.03 8.047 3.03C9.682 3.03 11.125 3.849 11.99 5.099L12 5.115L11.2 5.615C10.463 4.63 9.299 3.999 7.988 3.999C6.431 3.999 5.082 4.889 4.421 6.188L4.411 6.211C4.911 5.211 6.811 5.011 8.011 5.011C8.934 5.018 9.756 5.441 10.302 6.101L10.306 6.106L9.406 6.606C9.093 6.252 8.638 6.031 8.131 6.031C8.12 6.031 8.11 6.031 8.099 6.031H8.101H8.001C6.896 6.031 6.001 6.926 6.001 8.031C6.001 9.136 6.896 10.031 8.001 10.031C9.106 10.031 10.001 9.136 10.001 8.031C10.002 8.013 10.003 7.992 10.003 7.971C10.003 7.95 10.002 7.929 10.001 7.908V7.911C10.001 7.906 10.001 7.9 10.001 7.893C10.001 7.759 9.964 7.634 9.899 7.528L9.901 7.531L14.301 4.931C14.719 5.841 14.975 6.903 15.001 8.022V8.031C15.001 11.897 11.867 15.031 8.001 15.031L8 15.03ZM9 8.03C9.001 8.046 9.002 8.064 9.002 8.083C9.002 8.102 9.001 8.12 9 8.138V8.136C9 8.137 9 8.139 9 8.141C9 8.635 8.599 9.036 8.105 9.036C8.103 9.036 8.101 9.036 8.1 9.036H7.89C7.889 9.036 7.887 9.036 7.885 9.036C7.391 9.036 6.99 8.635 6.99 8.141C6.99 8.139 6.99 8.137 6.99 8.136C6.991 8.098 6.995 8.062 7.001 8.026L7 8.031C6.999 8.015 6.998 7.997 6.998 7.978C6.998 7.959 6.999 7.941 7 7.923V7.925C7 7.924 7 7.922 7 7.92C7 7.426 7.401 7.025 7.895 7.025C7.897 7.025 7.899 7.025 7.9 7.025H8.11C8.111 7.025 8.113 7.025 8.115 7.025C8.609 7.025 9.01 7.426 9.01 7.92C9.01 7.922 9.01 7.924 9.01 7.925C9.009 7.963 9.005 7.999 8.999 8.035L9 8.03Z" fill="rgb(34, 34, 34)" fill-opacity="1.00"/></svg>