<svg width="16" height="16" viewBox="0 0 16 16" fill="rgb(34, 34, 34)" xmlns="http://www.w3.org/2000/svg"><title>sweeping-warning</title><path d="M16 8C16 6.8 15.7 5.5 15.2 4.4L15.3 4.3C15.5 4.2 15.6 3.9 15.5 3.6C15.4 3.4 15.1 3.3 14.8 3.4L14.7 3.5C12.2 -0.0999956 7.3 -1.1 3.6 1.3C-0.0999997 3.7 -1.1 8.7 1.3 12.4C3.3 15.4 6.9 16.7 10.3 15.6C12.3 16.5 14.7 15.6 15.6 13.6C16.1 12.5 16.1 11.3 15.6 10.3C15.9 9.60001 16 8.8 16 8ZM15 8C15 8.4 15 8.8 14.9 9.2C13.6 7.8 11.5 7.60001 9.9 8.60001C10 8.20001 10.1 7.8 9.9 7.5L14.3 4.9C14.7 5.9 15 6.9 15 8ZM8 9C7.4 9 7 8.5 7 8C7 7.5 7.4 7 8 7C8.6 7 9 7.4 9 8C9 8.60001 8.5 9 8 9ZM8 15C4.1 15 1 11.9 1 8C1 4.1 4.1 1 8 1C10.3 1 12.5 2.1 13.8 4L12.9 4.5C11.8 3 10 2 8 2C5.8 2 3.7 3.3 2.6 5.2C3.5 3.7 6 3 8 3C9.6 3 11 3.8 11.9 5.1L11.1 5.6C9.9 3.8 7.4 3.4 5.6 4.8C5.1 5.1 4.7 5.6 4.4 6.2C4.9 5.2 6.8 5 8 5C8.9 5 9.7 5.4 10.3 6.1L9.4 6.6C8.6 5.8 7.4 5.8 6.6 6.5C5.8 7.2 5.8 8.5 6.5 9.3C7 9.90001 7.9 10.1 8.6 9.8C7.6 11.4 7.8 13.5 9.2 14.8C8.8 15 8.4 15 8 15ZM12.5 14.5H11.5V13.5H12.5V14.5ZM12.5 13H11.5V10H12.5V13Z" fill="rgb(34, 34, 34)" fill-opacity="1.00"/></svg>