<svg width="16" height="16" viewBox="0 0 16 16" fill="rgb(34, 34, 34)" xmlns="http://www.w3.org/2000/svg"><title>sweeping</title><g clip-path="url(#clip0_3_1581)"><path d="M15.2 4.408C15.334 4.321 15.423 4.176 15.43 4.009C15.43 4.009 15.43 4.007 15.43 4.006C15.43 3.942 15.419 3.881 15.399 3.824L15.4 3.828C15.2 3.528 14.9 3.428 14.7 3.628C13.25 1.43 10.792 0 8 0C3.582 0 0 3.582 0 8C0 12.418 3.582 16 8 16C12.415 16 15.995 12.423 16 8.009C15.997 6.682 15.693 5.427 15.153 4.308L15.175 4.359V4.409L15.2 4.408ZM8 15.008C4.134 15.008 1 11.874 1 8.008C1.009 4.149 4.14 1.024 8 1.024C10.394 1.024 12.507 2.226 13.77 4.059L13.785 4.083L12.885 4.583C11.806 3.02 10.024 2.008 8.006 2.008C8.004 2.008 8.002 2.008 8 2.008C5.681 2.039 3.672 3.337 2.631 5.241L2.615 5.273V5.308C3.5 3.708 6 3.008 8 3.008H8.03C8.035 3.008 8.041 3.008 8.047 3.008C9.682 3.008 11.125 3.827 11.99 5.077L12 5.093L11.2 5.593C10.463 4.608 9.299 3.977 7.988 3.977C6.431 3.977 5.082 4.867 4.421 6.166L4.411 6.189C4.911 5.189 6.811 4.989 8.011 4.989C8.934 4.996 9.756 5.419 10.302 6.079L10.306 6.084L9.406 6.584C9.093 6.23 8.638 6.009 8.131 6.009C8.12 6.009 8.11 6.009 8.099 6.009H8.101H8.001C6.896 6.009 6.001 6.904 6.001 8.009C6.001 9.114 6.896 10.009 8.001 10.009C9.106 10.009 10.001 9.114 10.001 8.009C10.002 7.991 10.003 7.97 10.003 7.949C10.003 7.928 10.002 7.907 10.001 7.886V7.889C10.001 7.884 10.001 7.878 10.001 7.871C10.001 7.737 9.964 7.612 9.899 7.506L9.901 7.509L14.301 4.909C14.719 5.819 14.975 6.881 15.001 8V8.009C15.001 11.875 11.867 15.009 8.001 15.009L8 15.008ZM9 8.008C9.001 8.024 9.002 8.042 9.002 8.061C9.002 8.08 9.001 8.098 9 8.116V8.114C9 8.115 9 8.117 9 8.119C9 8.613 8.599 9.014 8.105 9.014C8.103 9.014 8.101 9.014 8.1 9.014H7.89C7.889 9.014 7.887 9.014 7.885 9.014C7.391 9.014 6.99 8.613 6.99 8.119C6.99 8.117 6.99 8.115 6.99 8.114C6.991 8.076 6.995 8.04 7.001 8.004L7 8.009C6.999 7.993 6.998 7.975 6.998 7.956C6.998 7.937 6.999 7.919 7 7.901V7.903C7 7.902 7 7.9 7 7.898C7 7.404 7.401 7.003 7.895 7.003C7.897 7.003 7.899 7.003 7.9 7.003H8.11C8.111 7.003 8.113 7.003 8.115 7.003C8.609 7.003 9.01 7.404 9.01 7.898C9.01 7.9 9.01 7.902 9.01 7.903C9.009 7.941 9.005 7.977 8.999 8.013L9 8.008Z" fill="rgb(34, 34, 34)" fill-opacity="1.00"/></g><defs><clipPath id="clip0_3_1581"><rect width="16" height="16" fill="rgb(34, 34, 34)"/></clipPath></defs></svg>