<svg width="16" height="16" viewBox="0 0 16 16" fill="rgb(34, 34, 34)" xmlns="http://www.w3.org/2000/svg"><title>tag-add</title><g clip-path="url(#clip0_3_1677)"><path d="M12.9964 11H16V13H12.9964V16H10.9941V13H7.99049V11H10.9941V8H12.9964V11ZM16 0V6.424L13.9976 8.424V7H9.99287V10H6.9893V14H8.41499L6.88918 15.524C6.61886 15.806 6.23841 15.981 5.81691 15.981C5.39541 15.981 5.01596 15.806 4.74564 15.525L0.457543 11.242C0.175208 10.972 0 10.592 0 10.171C0 9.75 0.175208 9.371 0.456542 9.101H0.457543C1.52982 8.03 9.56936 0 9.56936 0L16 0ZM13.9976 3.5C13.9976 2.672 13.3248 2 12.4958 2C11.6669 2 10.9941 2.672 10.9941 3.5C10.9941 4.328 11.6669 5 12.4958 5C13.3248 5 13.9976 4.328 13.9976 3.5Z" fill="rgb(34, 34, 34)" fill-opacity="1.00"/></g><defs><clipPath id="clip0_3_1677"><rect width="16" height="16" fill="rgb(34, 34, 34)"/></clipPath></defs></svg>