<svg width="16" height="16" viewBox="0 0 16 16" fill="rgb(34, 34, 34)" xmlns="http://www.w3.org/2000/svg"><title>tag</title><g clip-path="url(#clip0_3_1518)"><path d="M9.56876 0.00100113L0.457515 9.11225C0.175197 9.38256 0 9.76298 0 10.1845C0 10.6059 0.175197 10.9854 0.456514 11.2557H0.457515L4.74534 15.5425C5.01564 15.8248 5.39607 16 5.81754 16C6.23902 16 6.61845 15.8248 6.88875 15.5435L15.999 6.43123V0L9.56876 0.00100113ZM12.4951 5.00663C11.6661 5.00663 10.9934 4.33388 10.9934 3.50494C10.9934 2.67601 11.6661 2.00325 12.4951 2.00325C13.324 2.00325 13.9967 2.67601 13.9967 3.50494C13.9967 4.33388 13.324 5.00663 12.4951 5.00663Z" fill="rgb(34, 34, 34)" fill-opacity="1.00"/></g><defs><clipPath id="clip0_3_1518"><rect width="16" height="16" fill="rgb(34, 34, 34)"/></clipPath></defs></svg>