<svg width="16" height="16" viewBox="0 0 16 16" fill="rgb(34, 34, 34)" xmlns="http://www.w3.org/2000/svg"><title>tag</title><path d="M9.57698 -7.08003e-06L0.475982 9.10099C0.193982 9.37099 0.0189819 9.75099 0.0189819 10.172C0.0189819 10.593 0.193982 10.972 0.474982 11.242H0.475982L4.75898 15.524C5.02898 15.806 5.40898 15.981 5.82998 15.981C6.25098 15.981 6.62998 15.806 6.89998 15.525L16 6.42299V-0.00100708L9.57698 -7.08003e-06ZM12.5 4.99999C11.672 4.99999 11 4.32799 11 3.49999C11 2.67199 11.672 1.99999 12.5 1.99999C13.328 1.99999 14 2.67199 14 3.49999C14 4.32799 13.328 4.99999 12.5 4.99999Z" fill="rgb(34, 34, 34)" fill-opacity="1.00"/></svg>