<!-- Generated by Trend Micro Style Portal -->
<svg version="1.1" xmlns="http://www.w3.org/2000/svg" width="0" height="0" viewBox="0 0 0 0">
  <title>target-o</title>
  <path fill="rgb(34,34,34)" d="M1024 512c0.001 0.339 0.001 0.74 0.001 1.141 0 283.401-229.742 513.142-513.142 513.142s-513.142-229.742-513.142-513.142c0-283.401 229.742-513.142 513.142-513.142 101.992 0 197.035 29.756 276.92 81.060l-2.041-1.227-69.906 69.917c-58.914-33.814-129.522-53.757-204.788-53.757-230.277 0-416.954 186.677-416.954 416.954s186.677 416.954 416.954 416.954c230.277 0 416.954-186.677 416.954-416.954 0-75.267-19.943-145.876-54.834-206.831l1.076 2.040 69.916-69.91c50.077 77.443 79.844 172.085 79.844 273.68 0 0.026 0 0.052 0 0.078v-0.004zM512 256c29.75 0.348 58.124 5.782 84.44 15.471l-1.752-0.565 49.571-49.578c-39.411-18.527-85.594-29.341-134.302-29.341-177.859 0-322.043 144.184-322.043 322.043s144.184 322.043 322.043 322.043c177.859 0 322.043-144.184 322.043-322.043 0-48.709-10.814-94.891-30.171-136.279l0.831 1.977-49.571 49.57c9.126 24.568 14.563 52.947 14.911 82.549l0.001 0.153c0 141.385-114.615 256-256 256s-256-114.615-256-256c0-141.385 114.615-256 256-256v0zM478.303 477.814l-94.058-94.059v256h256l-94.059-94.058 360.174-360.174c-20.744-24.914-42.97-47.139-67.054-67.211l-0.829-0.672-68.57 68.571z"></path>
</svg>