<svg width="16" height="16" viewBox="0 0 16 16" fill="rgb(34, 34, 34)" xmlns="http://www.w3.org/2000/svg"><title>time-off</title><path d="M16 8C16 3.6 12.4 0 8 0C6 0 4.4 0.8 3 2L1 0L0 1L15 16L16 15L14 13C15.2 11.6 16 10 16 8ZM10 9H13V8H9L8 7V3H7V6L4 3C5.1 2.1 6.5 1.5 8 1.5C11.6 1.5 14.5 4.4 14.5 8C14.5 9.5 13.9 10.9 13 12L10 9ZM8 14.5C4.4 14.5 1.5 11.6 1.5 8C1.5 7 1.6 5.9 2 5L1 4C0.3 5.2 0 6.6 0 8C0 12.4 3.6 16 8 16C9.4 16 10.8 15.7 12 15L11 14C10.1 14.4 9 14.5 8 14.5Z" fill="rgb(34, 34, 34)" fill-opacity="1.00"/></svg>