<svg width="16" height="16" viewBox="0 0 16 16" fill="rgb(34, 34, 34)" xmlns="http://www.w3.org/2000/svg"><title>tools-configuration</title><g clip-path="url(#clip0_297_116)"><path d="M8.596 10.697L13.6 15.701C14 16.101 14.6 16.101 15 15.701L15.7 14.901C16.1 14.501 16.1 13.901 15.7 13.501L10.772 8.57297C10.765 8.57097 10.758 8.56997 10.751 8.56797L8.596 10.697ZM7 2.99997L2.286 -2.79518e-05L0 2.28597L3 6.99997L5.789 7.00397L7.012 5.79897L7 2.99997ZM16 3.89297C16 4.42897 15.902 4.92897 15.705 5.39297C15.5 5.86597 15.225 6.27697 14.881 6.62497C14.537 6.97297 14.138 7.24597 13.682 7.44197C13.227 7.64697 12.74 7.74997 12.222 7.74997C11.927 7.74997 11.633 7.72497 11.338 7.67597C11.043 7.62697 10.767 7.53497 10.508 7.40097L2.062 15.744C1.883 15.914 1.68 15.998 1.453 15.998C1.226 15.998 1.027 15.913 0.857 15.744L0.254 15.061C0.084 14.891 0 14.693 0 14.465C0 14.237 0.085 14.034 0.254 13.856L8.714 5.52597C8.482 5.05297 8.352 4.56197 8.326 4.05297C8.29 3.54397 8.351 3.05697 8.507 2.59297C8.663 2.12897 8.907 1.70497 9.237 1.32097C9.558 0.927972 9.956 0.615972 10.429 0.382972C10.902 0.168972 11.389 0.043972 11.889 0.00797205C12.389 -0.0280279 12.876 0.038972 13.349 0.208972L11.112 2.43197C10.942 2.60197 10.858 2.80297 10.858 3.03497C10.858 3.26697 10.943 3.46797 11.112 3.63797L12.317 4.82997C12.487 5.00897 12.685 5.09797 12.913 5.09797C13.141 5.09797 13.339 5.00897 13.509 4.82997L15.746 2.60697C15.826 2.82097 15.889 3.03597 15.934 3.24997C15.979 3.46397 16 3.67897 16 3.89297Z" fill="rgb(34, 34, 34)" fill-opacity="1.00"/></g><defs><clipPath id="clip0_297_116"><rect width="16" height="16" fill="rgb(34, 34, 34)"/></clipPath></defs></svg>