<!-- Generated by Trend Micro Style Portal -->
<svg version="1.1" xmlns="http://www.w3.org/2000/svg" width="0" height="0" viewBox="0 0 0 0">
  <title>url</title>
  <path fill="rgb(34,34,34)" d="M1024 252.787c0 0.010 0 0.021 0 0.033 0 63.731-26.757 121.213-69.651 161.824l-0.102 0.096-232.809 223.14c-20.921 19.967-45.643 36.168-72.941 47.384l-1.566 0.57-8.413 3.031c-7.919 2.989-17.738 5.887-27.803 8.13l-1.541 0.288c-6.845 1.548-15.419 2.934-24.134 3.847l-1.023 0.087c-2.097 0.227-4.191 0.448-6.292 0.621-6.109 0.513-13.222 0.805-20.403 0.805-3.049 0-6.086-0.053-9.11-0.157l0.439 0.012c-7.744-0.156-15.414-0.977-23.104-1.887-1.094-0.136-2.199-0.117-3.293-0.269l-16.535-2.266c-43.698-9.043-81.647-29.456-111.831-57.996l0.108 0.101-32.7-31.277c-1.336-1.28-2.637-2.59-3.941-3.898-4.672-4.7-8.227-10.125-12.416-15.153l66.344-63.59c4.246 5.778 8.676 10.875 13.484 15.59l0.020 0.020 32.699 31.277c26.162 23.412 60.895 37.723 98.971 37.723 39.26 0 74.966-15.215 101.543-40.071l-0.084 0.078 232.777-223.104c25.36-23.803 41.186-57.507 41.28-94.908v-0.017c0-0.046 0-0.1 0-0.155 0-34.563-14.055-65.843-36.76-88.438l-0.005-0.005c-0.762-0.768-1.528-1.532-2.321-2.266l-32.699-31.281c-25.968-23.906-60.775-38.562-99.005-38.562-39.395 0-75.155 15.563-101.468 40.876l-128.315 122.98h-133.422l198.258-190.026c42.829-40.84 100.954-65.971 164.948-65.971 62.81 0 119.966 24.21 162.646 63.807l-0.152-0.139 32.7 31.277c41.64 39.823 67.547 95.798 67.625 157.825v0.014zM492.598 768l-128.356 123.025c-26.266 25.267-62.026 40.83-101.421 40.83-38.229 0-73.036-14.655-99.108-38.654l0.103 0.094-32.699-31.279c-24.084-22.601-39.087-54.633-39.087-90.169 0-0.246 0.001-0.492 0.002-0.738v0.038c0.094-37.417 15.92-71.12 41.21-94.857l0.070-0.065 232.774-223.104c21.931-20.781 50.387-34.876 81.987-38.909l0.728-0.076c6.219-0.963 13.392-1.514 20.694-1.514 37.538 0 71.679 14.542 97.098 38.299l-0.081-0.075 32.699 31.281c0.793 0.735 1.558 1.5 2.321 2.27 3.841 4.075 7.47 8.473 10.797 13.102l0.261 0.382 66.359-63.616c-5.39-7.079-10.71-13.326-16.344-19.273l0.099 0.105-32.7-31.283c-26.536-24.928-59.239-43.604-95.565-53.49l-1.592-0.369c-19.676-5.811-42.282-9.155-65.668-9.155-63.774 0-121.741 24.865-164.734 65.429l0.118-0.11-232.809 223.137c-42.996 40.711-69.754 98.195-69.754 161.93 0 0.010 0 0.019 0 0.029v-0.001c0 0.144-0.001 0.314-0.001 0.484 0 59.948 24.341 114.211 63.68 153.445l0.005 0.005c1.304 1.313 2.609 2.624 3.941 3.899l32.7 31.281c42.527 39.458 99.684 63.669 162.495 63.669 63.993 0 122.117-25.13 165.041-66.060l-0.095 0.090 198.258-190.026h-133.426z"></path>
</svg>