<svg width="16" height="16" viewBox="0 0 16 16" fill="rgb(34, 34, 34)" xmlns="http://www.w3.org/2000/svg"><title>user-o</title><g clip-path="url(#clip0_3_1473)"><path d="M13.943 10.116C12.949 9.11505 11.732 8.33805 10.372 7.86405L10.306 7.84405C11.493 7.08405 12.268 5.77205 12.268 4.28005C12.268 4.27505 12.268 4.27105 12.268 4.26605V4.26705C12.268 1.91005 10.357 -0.00195312 7.99904 -0.00195312C5.64104 -0.00195312 3.73004 1.90905 3.73004 4.26705C3.73004 4.27105 3.73004 4.27505 3.73004 4.28005C3.73004 5.77305 4.50504 7.08405 5.67504 7.83405L5.69204 7.84405C4.26604 8.33805 3.04904 9.11505 2.05604 10.115L2.05504 10.116C1.11904 11.067 -0.483961 13.256 0.137039 14.738C0.488039 15.576 1.41404 16.001 2.88804 16.001H13.107C14.582 16.001 15.507 15.576 15.858 14.738C16.479 13.256 14.876 11.067 13.94 10.116H13.943ZM14.938 14.386C14.725 14.894 13.851 15 13.155 15H2.84504C2.14904 15 1.27504 14.894 1.06204 14.386C0.726039 13.583 1.83904 11.84 2.77204 10.891C3.77704 9.87705 5.04104 9.12205 6.45704 8.73405L6.51504 8.72005L6.92404 8.61905V7.28305L6.61804 7.13705C5.51704 6.60705 4.77104 5.49905 4.77104 4.21805C4.77104 2.43405 6.21704 0.988047 8.00104 0.988047C9.78504 0.988047 11.231 2.43405 11.231 4.21805C11.231 5.50005 10.485 6.60705 9.40304 7.12905L9.38404 7.13705L9.07804 7.28305V8.61905L9.48704 8.72005C10.961 9.12205 12.225 9.87705 13.229 10.89L13.23 10.891C14.163 11.84 15.276 13.582 14.94 14.386H14.938Z" fill="rgb(34, 34, 34)" fill-opacity="1.00"/></g><defs><clipPath id="clip0_3_1473"><rect width="16" height="16" fill="rgb(34, 34, 34)"/></clipPath></defs></svg>