<svg width="16" height="17" viewBox="0 0 16 17" fill="rgb(34, 34, 34)" xmlns="http://www.w3.org/2000/svg"><title>user-add</title><path d="M7.00001 11V15H2.21201C-1.79299 15 0.640009 11.5 1.78701 10.334C2.78301 9.32801 4.03701 8.58001 5.44301 8.19801L5.50001 8.18501V7.65101C4.30801 7.07601 3.50001 5.87701 3.50001 4.48901C3.50001 2.55601 5.06701 0.989014 7.00001 0.989014C8.93301 0.989014 10.5 2.55601 10.5 4.48901C10.5 5.87701 9.69201 7.07601 8.52101 7.64201L8.50001 7.65101V8.18501C9.07301 8.33701 9.57101 8.53401 10.04 8.78101L10 8.76201V11.001L7.00001 11ZM13 12V9.00001H11V12H8.00001V14H11V17H13V14H16V12H13Z" fill="rgb(34, 34, 34)" fill-opacity="1.00"/></svg>