<svg width="16" height="17" viewBox="0 0 16 17" fill="rgb(34, 34, 34)" xmlns="http://www.w3.org/2000/svg"><title>user</title><path d="M13.472 17H2.52801C-2.04899 17 0.732007 13 2.04301 11.667C3.18101 10.517 4.61501 9.662 6.22101 9.226L6.28601 9.211V8.601C4.92401 7.944 4.00001 6.573 4.00001 4.987C4.00001 2.778 5.79101 0.987 8.00001 0.987C10.209 0.987 12 2.778 12 4.987C12 6.573 11.077 7.944 9.73801 8.591L9.71401 8.601V9.211C11.385 9.663 12.819 10.518 13.957 11.667L13.958 11.668C15.269 13.001 18.05 17.001 13.473 17.001L13.472 17Z" fill="rgb(34, 34, 34)" fill-opacity="1.00"/></svg>