<svg width="16" height="16" viewBox="0 0 16 16" fill="rgb(34, 34, 34)" xmlns="http://www.w3.org/2000/svg"><title>user-list</title><g clip-path="url(#clip0_3_1479)"><path d="M14 13H12V14H14V13ZM14 11H12V12H14V11ZM11 13H9.99998V14H11V13ZM11 11H9.99998V12H11V11ZM7.99998 9V16H16V9H7.99998ZM15 15H8.99998V10H15V15ZM8.55693 7.20898L8.49992 7.19598V6.66199L8.52092 6.65302C9.69194 6.08698 10.4999 4.888 10.4999 3.5C10.4999 1.56702 8.93291 0 6.99992 0C5.06694 0 3.49992 1.56702 3.49992 3.5C3.49992 4.888 4.30791 6.08698 5.49992 6.66199V7.19598L5.44292 7.20898C4.03691 7.591 2.78294 8.33899 1.78691 9.34497C0.639938 10.511 -1.79305 14.011 2.21196 14.011H6.99992V8H10.4397C9.85204 7.66461 9.22478 7.39044 8.55693 7.20898Z" fill="rgb(34, 34, 34)" fill-opacity="1.00"/></g><defs><clipPath id="clip0_3_1479"><rect width="16" height="16" fill="rgb(34, 34, 34)"/></clipPath></defs></svg>