<svg width="16" height="16" viewBox="0 0 16 16" fill="rgb(34, 34, 34)" xmlns="http://www.w3.org/2000/svg"><title>user-add</title><g clip-path="url(#clip0_3_1413)"><path d="M7.00001 10.0041V14.0014H2.21201C-1.79299 14.0014 0.640009 10.5038 1.78701 9.33858C2.78301 8.33327 4.03701 7.58578 5.44301 7.20405L5.50001 7.19106V6.65742C4.30801 6.08282 3.50001 4.88464 3.50001 3.4976C3.50001 1.56592 5.06701 0 7.00001 0C8.93301 0 10.5 1.56592 10.5 3.4976C10.5 4.88464 9.69201 6.08282 8.52101 6.64843L8.50001 6.65742V7.19106C9.07301 7.34295 9.57101 7.53982 10.04 7.78665L10 7.76766V10.0051L7.00001 10.0041ZM13 11.0034V8.0055H11V11.0034H8.00001V13.0021H11V16H13V13.0021H16V11.0034H13Z" fill="rgb(34, 34, 34)" fill-opacity="1.00"/></g><defs><clipPath id="clip0_3_1413"><rect width="16" height="16" fill="rgb(34, 34, 34)"/></clipPath></defs></svg>