<svg width="16" height="16" viewBox="0 0 16 16" fill="rgb(34, 34, 34)" xmlns="http://www.w3.org/2000/svg"><title>user-group-close</title><g clip-path="url(#clip0_3_1403)"><path d="M7.52601 1.30609C8.07301 0.511094 8.97801 -0.00390625 10.003 -0.00390625C11.658 -0.00390625 12.999 1.33809 12.999 2.99209C12.999 4.18109 12.306 5.20809 11.303 5.69309L11.285 5.70109V6.15909C12.335 6.44109 13.246 6.93409 14.011 7.59209L14.002 7.58409L11.999 9.58709L9.70601 7.29409L9.42801 7.03009C9.78701 6.44509 9.99901 5.73709 9.99901 4.98009C9.99901 3.32809 8.98801 1.91209 7.55201 1.31609L7.52601 1.30609ZM6.58601 9.00009C6.58601 9.00009 7.32301 8.16709 7.28601 8.15809V7.70009C8.30801 7.20709 9.00001 6.17909 9.00001 4.98909C9.00001 3.33209 7.65701 1.98909 6.00001 1.98909C4.34301 1.98909 3.00001 3.33209 3.00001 4.98909C3.00001 6.17909 3.69201 7.20709 4.69601 7.69209L4.71401 7.70009V8.15809C3.46001 8.49709 2.38501 9.13809 1.53201 10.0001L1.53101 10.0011C0.548012 11.0011 -1.53799 14.0011 1.89501 14.0011H7.58901L9.58501 12.0011L6.58601 9.00009ZM14.986 13.9861L13 12.0001L16 9.00009L15 8.00009L12 11.0001L9.00001 8.00009L8.00001 9.00009L11 12.0001L8.00001 15.0001L9.00001 16.0001L12 13.0001L15 16.0001L16 15.0001L15.834 14.8341L14.986 13.9861Z" fill="rgb(34, 34, 34)" fill-opacity="1.00"/></g><defs><clipPath id="clip0_3_1403"><rect width="16" height="16" fill="rgb(34, 34, 34)"/></clipPath></defs></svg>