<svg width="16" height="17" viewBox="0 0 16 17" fill="rgb(34, 34, 34)" xmlns="http://www.w3.org/2000/svg"><title>user-unknown</title><path d="M9.426 4.423C9.426 4.103 9.426 3.265 8.029 3.265C6.632 3.265 6.593 4.075 6.495 4.564H5C5.013 3.845 5.323 3.201 5.813 2.748L5.815 2.746L5.817 2.744C6.351 2.283 7.053 2.002 7.819 2.002C7.82 2.002 7.821 2.002 7.822 2.002C7.86733 2.002 7.91233 2.003 7.957 2.005H7.951C8.004 2.002 8.065 2 8.127 2H8.128C8.91 2 9.626 2.282 10.18 2.75L10.175 2.746L10.173 2.744L10.178 2.748L10.174 2.745C10.678 3.184 10.996 3.825 10.999 4.541V4.542C10.999 5.003 10.811 5.42 10.508 5.721H10.507C10.005 6.191 8.933 7.08 8.933 8V9H6.966V8C6.966 7.16 7.999 6.221 7.999 6.221C8.433 5.853 8.825 5.477 9.194 5.078L9.202 5.069L9.209 5.061C9.344 4.892 9.425 4.675 9.425 4.438C9.425 4.437 9.425 4.436 9.425 4.435L9.426 4.423ZM9 12H7V10.001H9V12ZM13.958 11.667C12.82 10.517 11.386 9.662 9.78 9.226L9.715 9.211V8.601C11.077 7.944 12.001 6.573 12.001 4.987C12.001 2.778 10.21 0.987 8.001 0.987C5.792 0.987 4.001 2.778 4.001 4.987C4.001 6.573 4.924 7.944 6.263 8.591L6.287 8.601V9.211C4.616 9.663 3.182 10.518 2.044 11.667L2.043 11.668C0.732 13.001 -2.049 17.001 2.528 17.001H13.472C18.049 17.001 15.268 13.001 13.957 11.668L13.958 11.667Z" fill="rgb(34, 34, 34)" fill-opacity="1.00"/></svg>