<svg width="16" height="16" viewBox="0 0 16 16" fill="rgb(34, 34, 34)" xmlns="http://www.w3.org/2000/svg"><title>user-close</title><g clip-path="url(#clip0_3_1407)"><path d="M9.58601 12.0027L7.59001 14.0014H2.21201C-1.79299 14.0014 0.640009 10.5038 1.78701 9.33858C2.78301 8.33327 4.03701 7.58578 5.44301 7.20405L5.50001 7.19106V6.65742C4.30801 6.08282 3.50001 4.88464 3.50001 3.4976C3.50001 1.56592 5.06701 0 7.00001 0C8.93301 0 10.5 1.56592 10.5 3.4976C10.5 4.88464 9.69201 6.08282 8.52101 6.64843L8.50001 6.65742V7.09312L6.58601 9.00581L9.58601 12.0027ZM14.986 13.9874L13 12.0027L16 9.00481L15 8.0055L12 11.0034L9.00001 8.0055L8.00001 9.00481L11 12.0027L8.00001 15.0007L9.00001 16L12 13.0021L15 16L16 15.0007L15.834 14.8348L14.986 13.9874Z" fill="rgb(34, 34, 34)" fill-opacity="1.00"/></g><defs><clipPath id="clip0_3_1407"><rect width="16" height="16" fill="rgb(34, 34, 34)"/></clipPath></defs></svg>