<svg width="16" height="16" viewBox="0 0 16 16" fill="rgb(34, 34, 34)" xmlns="http://www.w3.org/2000/svg"><title>view-off</title><path d="M9.7 11.8L10.5 12.6C9.7 12.9 8.8 13 8 13C3.1 13 0.3 8.50005 0.2 8.30005L0 8.00005L0.2 7.70005C0.9 6.60005 1.8 5.70005 2.8 4.90005L3.5 5.60005C2.6 6.30005 1.8 7.10005 1.2 8.00005C1.9 8.90005 4.3 12 8 12C8.6 12 9.1 11.9 9.7 11.8ZM12.4 11.7L14.7 14L14 14.7L1.3 2.00005L2 1.30005L4.5 3.80005C5.6 3.30005 6.8 3.00005 8 3.00005C12.8 3.00005 15.7 7.50005 15.8 7.70005L16 8.00005L15.8 8.30005C14.9 9.60005 13.8 10.8 12.4 11.7ZM6.2 5.50005L7.6 6.90005C7.8 6.60005 8 6.30005 8 6.00005C8 5.40005 7.6 5.00005 7 5.00005C6.7 5.00005 6.4 5.20005 6.2 5.50005ZM14.8 8.00005C13.9 6.80005 12.7 5.70005 11.4 4.90005C12.4 6.50005 12.1 8.70005 10.7 9.90005L11.7 10.9C12.9 10.2 14 9.20005 14.8 8.00005ZM8.8 10.9L4.1 6.20005C4 6.50005 4 6.70005 4 7.00005C4 9.20005 5.8 11 8 11C8.3 11 8.5 11 8.8 10.9Z" fill="rgb(34, 34, 34)" fill-opacity="1.00"/></svg>