<svg width="16" height="16" viewBox="0 0 16 16" fill="rgb(34, 34, 34)" xmlns="http://www.w3.org/2000/svg"><title>workbench-manual</title><g clip-path="url(#clip0_271_103)"><path d="M2.50098 5C2.93998 5 3.34698 4.877 3.70598 4.677L5.26398 6.326C4.47498 7.342 4.00098 8.614 4.00098 10C4.00098 13.314 6.68698 16 10.001 16C13.315 16 16.001 13.314 16.001 10C16.001 6.686 13.315 4 10.001 4C8.43398 4 7.01198 4.606 5.94298 5.589L4.46698 4.027C4.79698 3.603 5.00098 3.078 5.00098 2.5C5.00098 1.119 3.88198 0 2.50098 0C1.11998 0 0.000976562 1.119 0.000976562 2.5C0.000976562 3.881 1.11998 5 2.50098 5ZM10.001 5C12.758 5 15.001 7.243 15.001 10C15.001 12.757 12.758 15 10.001 15C7.24398 15 5.00098 12.757 5.00098 10C5.00098 7.243 7.24398 5 10.001 5ZM2.50098 1C3.32798 1 4.00098 1.673 4.00098 2.5C4.00098 3.327 3.32798 4 2.50098 4C1.67398 4 1.00098 3.327 1.00098 2.5C1.00098 1.673 1.67398 1 2.50098 1ZM7.79798 11.441L7.79198 11.431L7.20998 12.175L7.81398 12.783L8.57498 12.188C8.82598 12.353 9.11798 12.479 9.43298 12.548L9.44998 12.551L9.56398 13.5H10.439L10.553 12.568C10.884 12.497 11.177 12.372 11.438 12.203L11.428 12.209L12.158 12.782L12.775 12.161L12.189 11.422C12.354 11.171 12.48 10.879 12.549 10.565L12.552 10.547L13.501 10.438V9.563L12.565 9.445C12.493 9.114 12.369 8.821 12.2 8.56L12.206 8.57L12.783 7.826L12.166 7.209L11.418 7.813C11.167 7.651 10.874 7.529 10.56 7.461L10.543 7.458L10.438 6.5H9.56298L9.44498 7.436C9.11398 7.508 8.81998 7.632 8.55998 7.801L8.56998 7.795L7.81298 7.209L7.20898 7.813L7.81298 8.579C7.64998 8.83 7.52598 9.123 7.45698 9.436L7.45398 9.454L6.49998 9.563V10.438L7.43198 10.556C7.50298 10.887 7.62898 11.18 7.79798 11.441ZM10.001 8.833C10.645 8.833 11.167 9.355 11.167 10C11.167 10.645 10.645 11.167 10.001 11.167C9.35698 11.167 8.83398 10.645 8.83398 10C8.83398 9.355 9.35598 8.833 10.001 8.833Z" fill="rgb(34, 34, 34)" fill-opacity="1.00"/></g><defs><clipPath id="clip0_271_103"><rect width="16" height="16" fill="rgb(34, 34, 34)"/></clipPath></defs></svg>