<svg width="16" height="16" viewBox="0 0 16 16" fill="rgb(34, 34, 34)" xmlns="http://www.w3.org/2000/svg"><title>workbench</title><g clip-path="url(#clip0_271_104)"><path d="M11.751 7.5C11.557 7.5 11.373 7.532 11.186 7.557L9.42502 4.917C10.074 4.414 10.499 3.635 10.499 2.75C10.499 1.231 9.26802 0 7.74902 0C6.23002 0 4.99902 1.231 4.99902 2.75C4.99902 4.269 6.23002 5.5 7.74902 5.5C8.09502 5.5 8.42302 5.429 8.72802 5.312L10.355 7.753C8.69702 8.332 7.50002 9.894 7.50002 11.75C7.50002 11.85 7.52302 11.943 7.52902 12.041H5.49502C5.49502 12.027 5.49902 12.014 5.49902 12C5.49902 10.996 4.95602 10.127 4.15202 9.647L5.84602 6.699L5.15202 6.301L3.40702 9.338C3.19502 9.286 2.97702 9.25 2.74902 9.25C1.23002 9.25 -0.000976562 10.481 -0.000976562 12C-0.000976562 13.519 1.23002 14.75 2.74902 14.75C3.97302 14.75 4.99802 13.945 5.35402 12.84H7.65802C8.14202 14.655 9.78102 16 11.749 16C14.096 16 15.999 14.097 15.999 11.75C15.999 9.403 14.096 7.5 11.749 7.5H11.751ZM7.75002 4.5C6.78502 4.5 6.00002 3.715 6.00002 2.75C6.00002 1.785 6.78502 1 7.75002 1C8.71502 1 9.50002 1.785 9.50002 2.75C9.50002 3.715 8.71502 4.5 7.75002 4.5ZM2.75002 13.75C1.78502 13.75 1.00002 12.965 1.00002 12C1.00002 11.035 1.78502 10.25 2.75002 10.25C3.71502 10.25 4.50002 11.035 4.50002 12C4.50002 12.965 3.71502 13.75 2.75002 13.75ZM11.751 15C9.95902 15 8.50102 13.542 8.50102 11.75C8.50102 9.958 9.95902 8.5 11.751 8.5C13.543 8.5 15.001 9.958 15.001 11.75C15.001 13.542 13.543 15 11.751 15ZM13.251 11.75C13.251 12.578 12.579 13.25 11.751 13.25C10.923 13.25 10.251 12.578 10.251 11.75C10.251 10.922 10.923 10.25 11.751 10.25C12.579 10.25 13.251 10.922 13.251 11.75Z" fill="rgb(34, 34, 34)" fill-opacity="1.00"/></g><defs><clipPath id="clip0_271_104"><rect width="16" height="16" fill="rgb(34, 34, 34)"/></clipPath></defs></svg>