<svg width="16" height="16" viewBox="0 0 16 16" fill="rgb(34, 34, 34)" xmlns="http://www.w3.org/2000/svg"><title>zoom-in</title><g clip-path="url(#clip0_3_1389)"><path d="M11.7133 10.3176C13.8068 7.42658 13.2087 3.33925 10.3176 1.24574C7.42658 -0.847767 3.33925 -0.249622 1.24574 2.64142C-0.847767 5.53245 -0.249622 9.61978 2.64142 11.7133C4.93431 13.408 8.02473 13.408 10.3176 11.7133L14.6043 16L16 14.6043L11.7133 10.3176ZM6.52936 11.5139C3.73802 11.5139 1.54482 9.32071 1.54482 6.52936C1.54482 3.73802 3.73802 1.54482 6.52936 1.54482C9.32071 1.54482 11.5139 3.73802 11.5139 6.52936C11.5139 9.32071 9.32071 11.5139 6.52936 11.5139ZM7.02782 6.03091H10.0185V7.02782H7.02782V10.0185H6.03091V7.02782H3.04018V6.03091H6.03091V3.04018H7.02782V6.03091Z" fill="rgb(34, 34, 34)" fill-opacity="1.00"/></g><defs><clipPath id="clip0_3_1389"><rect width="16" height="16" fill="rgb(34, 34, 34)"/></clipPath></defs></svg>