<svg width="17" height="17" viewBox="0 0 17 17" fill="rgb(34, 34, 34)" xmlns="http://www.w3.org/2000/svg"><title>zoom-out</title><path d="M12.7 11.3C14.8 8.39998 14.2 4.29998 11.3 2.19998C8.4 0.0999832 4.3 0.699983 2.2 3.59998C0.0999985 6.49998 0.699998 10.6 3.6 12.7C5.9 14.4 9 14.4 11.3 12.7L15.6 17L17 15.6L12.7 11.3ZM7.5 12.5C4.7 12.5 2.5 10.3 2.5 7.49998C2.5 4.69998 4.7 2.49998 7.5 2.49998C10.3 2.49998 12.5 4.69998 12.5 7.49998C12.5 10.3 10.3 12.5 7.5 12.5ZM4 6.99998H11V7.99998H4V6.99998Z" fill="rgb(34, 34, 34)" fill-opacity="1.00"/></svg>